G75*
%MOIN*%
%OFA0B0*%
%FSLAX24Y24*%
%IPPOS*%
%LPD*%
%AMOC8*
5,1,8,0,0,1.08239X$1,22.5*
%
%ADD10C,0.0060*%
%ADD11C,0.0827*%
%ADD12C,0.0600*%
%ADD13R,0.0787X0.0787*%
%ADD14C,0.1000*%
%ADD15C,0.0396*%
%ADD16C,0.0400*%
%ADD17C,0.0317*%
%ADD18C,0.0160*%
%ADD19C,0.1000*%
D10*
X055535Y010220D02*
X055642Y010113D01*
X055856Y010113D01*
X055962Y010220D01*
X055535Y010647D01*
X055535Y010220D01*
X055535Y010647D02*
X055642Y010754D01*
X055856Y010754D01*
X055962Y010647D01*
X055962Y010220D01*
X056178Y010220D02*
X056178Y010113D01*
X056285Y010113D01*
X056285Y010220D01*
X056178Y010220D01*
X056502Y010113D02*
X056929Y010113D01*
X056502Y010540D01*
X056502Y010647D01*
X056609Y010754D01*
X056823Y010754D01*
X056929Y010647D01*
X057791Y010434D02*
X057791Y010113D01*
X057791Y010434D02*
X057898Y010540D01*
X058112Y010540D01*
X058218Y010434D01*
X058436Y010540D02*
X058756Y010540D01*
X058863Y010434D01*
X058863Y010220D01*
X058756Y010113D01*
X058436Y010113D01*
X058218Y010113D02*
X058218Y010754D01*
X059079Y010540D02*
X059293Y010540D01*
X059186Y010647D02*
X059186Y010220D01*
X059079Y010113D01*
X059509Y010113D02*
X059722Y010113D01*
X059616Y010113D02*
X059616Y010540D01*
X059722Y010540D01*
X059940Y010540D02*
X059940Y010220D01*
X060047Y010113D01*
X060153Y010220D01*
X060260Y010113D01*
X060367Y010220D01*
X060367Y010540D01*
X060584Y010647D02*
X060691Y010754D01*
X060905Y010754D01*
X061011Y010647D01*
X061011Y010540D01*
X060905Y010434D01*
X060691Y010434D01*
X060584Y010327D01*
X060584Y010220D01*
X060691Y010113D01*
X060905Y010113D01*
X061011Y010220D01*
X061872Y010113D02*
X062086Y010113D01*
X061979Y010113D02*
X061979Y010540D01*
X062086Y010540D01*
X062303Y010540D02*
X062623Y010540D01*
X062730Y010434D01*
X062730Y010220D01*
X062623Y010113D01*
X062303Y010113D01*
X062303Y010754D01*
X061979Y010754D02*
X061979Y010861D01*
X063053Y010861D02*
X063053Y010754D01*
X063053Y010540D02*
X063053Y010113D01*
X063160Y010113D02*
X062946Y010113D01*
X063377Y010113D02*
X063377Y010754D01*
X063591Y010540D01*
X063804Y010754D01*
X063804Y010113D01*
X063160Y010540D02*
X063053Y010540D01*
X059616Y010754D02*
X059616Y010861D01*
D11*
X055708Y040433D03*
X056693Y041417D03*
X053740Y041417D03*
X051771Y040433D03*
X050787Y041417D03*
X046795Y041445D03*
X045811Y040460D03*
X043842Y041445D03*
X041874Y040460D03*
X040889Y041445D03*
X041874Y045382D03*
X045811Y045382D03*
X051771Y045354D03*
X055708Y045354D03*
D12*
X040968Y034882D02*
X040968Y034282D01*
X039968Y034282D02*
X039968Y034882D01*
X038968Y034882D02*
X038968Y034282D01*
X037968Y034282D02*
X037968Y034882D01*
X036968Y034882D02*
X036968Y034282D01*
X035968Y034282D02*
X035968Y034882D01*
X033996Y034882D02*
X033996Y034282D01*
X032996Y034282D02*
X032996Y034882D01*
X031996Y034882D02*
X031996Y034282D01*
X030996Y034282D02*
X030996Y034882D01*
X029996Y034882D02*
X029996Y034282D01*
X028996Y034282D02*
X028996Y034882D01*
X027996Y034882D02*
X027996Y034282D01*
X026996Y034282D02*
X026996Y034882D01*
X027393Y015985D02*
X027393Y015385D01*
X026393Y015385D02*
X026393Y015985D01*
X025393Y015985D02*
X025393Y015385D01*
X024393Y015385D02*
X024393Y015985D01*
X023393Y015985D02*
X023393Y015385D01*
X028393Y015385D02*
X028393Y015985D01*
X029393Y015985D02*
X029393Y015385D01*
X030393Y015385D02*
X030393Y015985D01*
X031393Y015985D02*
X031393Y015385D01*
X032393Y015385D02*
X032393Y015985D01*
X033968Y015985D02*
X033968Y015385D01*
X034968Y015385D02*
X034968Y015985D01*
X035968Y015985D02*
X035968Y015385D01*
X036968Y015385D02*
X036968Y015985D01*
X037968Y015985D02*
X037968Y015385D01*
X038968Y015385D02*
X038968Y015985D01*
X039968Y015985D02*
X039968Y015385D01*
X040968Y015385D02*
X040968Y015985D01*
D13*
X060964Y041604D03*
X060964Y044025D03*
X065295Y044025D03*
X065295Y041604D03*
D14*
X037976Y042319D03*
X037976Y044819D03*
X037976Y039819D03*
X031586Y039819D03*
X029314Y039819D03*
X029314Y042319D03*
X031586Y042319D03*
X031586Y044819D03*
X029314Y044819D03*
X022924Y044819D03*
X020654Y044819D03*
X020654Y042319D03*
X022924Y042319D03*
X022924Y039819D03*
X020654Y039819D03*
X014264Y039819D03*
X011993Y039819D03*
X011993Y042319D03*
X014264Y042319D03*
X014264Y044819D03*
X011993Y044819D03*
X005603Y044819D03*
X005603Y042319D03*
X005603Y039819D03*
D15*
X008071Y036013D03*
X008071Y033023D03*
X010563Y032409D03*
X016074Y034023D03*
X016074Y036023D03*
X020004Y032015D03*
X023074Y034023D03*
X023054Y036023D03*
X026081Y031023D03*
X026594Y027303D03*
X026583Y026719D03*
X031074Y033023D03*
X033074Y033023D03*
X036071Y033013D03*
X036071Y031033D03*
X036031Y027303D03*
X036031Y026719D03*
X043074Y030033D03*
X043064Y032023D03*
X043901Y034316D03*
X044305Y035310D03*
X047241Y035436D03*
X047255Y034709D03*
X047741Y031736D03*
X047514Y027523D03*
X047504Y027013D03*
X046974Y027023D03*
X046974Y027533D03*
X046434Y027533D03*
X046434Y027023D03*
X048044Y027013D03*
X048044Y027523D03*
X052649Y028379D03*
X053426Y028369D03*
X054271Y029133D03*
X054823Y029133D03*
X055374Y029133D03*
X055925Y029133D03*
X056476Y029133D03*
X057027Y029133D03*
X058278Y027721D03*
X058898Y027721D03*
X059498Y027721D03*
X060098Y027721D03*
X062314Y030793D03*
X063194Y030793D03*
X063194Y031451D03*
X063194Y032223D03*
X059484Y036813D03*
X059484Y037383D03*
X059484Y038013D03*
X065214Y043183D03*
X065714Y043183D03*
X065724Y044983D03*
X065184Y044993D03*
X057027Y024960D03*
X056476Y024960D03*
X055925Y024960D03*
X055374Y024960D03*
X054823Y024960D03*
X054271Y024960D03*
X059113Y021674D03*
X060333Y021674D03*
X061554Y021674D03*
X060255Y019863D03*
X039744Y018183D03*
X036020Y019250D03*
X036014Y019823D03*
X026594Y019823D03*
X026583Y019238D03*
X023381Y017933D03*
X017134Y019238D03*
X017134Y019823D03*
X017134Y026719D03*
X017134Y027303D03*
X007684Y027303D03*
X007685Y026719D03*
X007684Y019823D03*
X007705Y019258D03*
D16*
X004674Y007623D02*
X004674Y045793D01*
X041207Y045793D01*
X041100Y045535D01*
X041100Y045228D01*
X041218Y044943D01*
X041436Y044726D01*
X041720Y044608D01*
X042028Y044608D01*
X042312Y044726D01*
X042529Y044943D01*
X042647Y045228D01*
X042647Y045535D01*
X042540Y045793D01*
X045144Y045793D01*
X045037Y045535D01*
X045037Y045228D01*
X045155Y044943D01*
X045373Y044726D01*
X045657Y044608D01*
X045965Y044608D01*
X046249Y044726D01*
X046466Y044943D01*
X046584Y045228D01*
X046584Y045535D01*
X046477Y045793D01*
X051209Y045793D01*
X051177Y045751D01*
X051130Y045670D01*
X051094Y045584D01*
X051070Y045493D01*
X051058Y045401D01*
X051058Y045354D01*
X051058Y045307D01*
X051070Y045215D01*
X051094Y045124D01*
X051130Y045038D01*
X051177Y044957D01*
X051234Y044883D01*
X051300Y044817D01*
X051374Y044760D01*
X051455Y044713D01*
X051542Y044677D01*
X051632Y044653D01*
X051725Y044641D01*
X051771Y044641D01*
X051771Y045354D01*
X051058Y045354D01*
X051771Y045354D01*
X051771Y045354D01*
X051771Y045354D01*
X051771Y044641D01*
X051818Y044641D01*
X051911Y044653D01*
X052001Y044677D01*
X052088Y044713D01*
X052169Y044760D01*
X052243Y044817D01*
X052309Y044883D01*
X052366Y044957D01*
X052413Y045038D01*
X052448Y045124D01*
X052473Y045215D01*
X052485Y045307D01*
X052485Y045354D01*
X052485Y045401D01*
X052473Y045493D01*
X052448Y045584D01*
X052413Y045670D01*
X052366Y045751D01*
X052333Y045793D01*
X055146Y045793D01*
X055114Y045751D01*
X055067Y045670D01*
X055031Y045584D01*
X055007Y045493D01*
X054995Y045401D01*
X054995Y045354D01*
X054995Y045307D01*
X055007Y045215D01*
X055031Y045124D01*
X055067Y045038D01*
X055114Y044957D01*
X055171Y044883D01*
X055237Y044817D01*
X055311Y044760D01*
X055392Y044713D01*
X055479Y044677D01*
X055569Y044653D01*
X055662Y044641D01*
X055708Y044641D01*
X055708Y045354D01*
X054995Y045354D01*
X055708Y045354D01*
X055708Y045354D01*
X055708Y045354D01*
X055708Y044641D01*
X055755Y044641D01*
X055848Y044653D01*
X055938Y044677D01*
X056025Y044713D01*
X056106Y044760D01*
X056180Y044817D01*
X056246Y044883D01*
X056303Y044957D01*
X056350Y045038D01*
X056385Y045124D01*
X056410Y045215D01*
X056422Y045307D01*
X056422Y045354D01*
X056422Y045401D01*
X056410Y045493D01*
X056385Y045584D01*
X056350Y045670D01*
X056303Y045751D01*
X056270Y045793D01*
X065787Y045793D01*
X065785Y045793D01*
X065011Y045793D01*
X064820Y045714D01*
X064674Y045568D01*
X064494Y045388D01*
X064414Y045197D01*
X064414Y043080D01*
X064494Y042889D01*
X064820Y042562D01*
X065011Y042483D01*
X065848Y042483D01*
X066039Y042562D01*
X066185Y042709D01*
X066375Y042899D01*
X066454Y043090D01*
X066454Y045050D01*
X066458Y045059D01*
X066454Y045153D01*
X066454Y045247D01*
X066451Y045256D01*
X066450Y045266D01*
X066411Y045351D01*
X066375Y045438D01*
X066368Y045445D01*
X066364Y045454D01*
X066295Y045518D01*
X066229Y045584D01*
X066220Y045588D01*
X066155Y045648D01*
X066089Y045714D01*
X066080Y045718D01*
X066073Y045725D01*
X065985Y045757D01*
X065898Y045793D01*
X065888Y045793D01*
X065888Y045793D01*
X066467Y045793D01*
X066467Y007623D01*
X004674Y007623D01*
X004674Y007820D02*
X066467Y007820D01*
X066467Y008219D02*
X004674Y008219D01*
X004674Y008617D02*
X066467Y008617D01*
X066467Y009016D02*
X004674Y009016D01*
X004674Y009414D02*
X066467Y009414D01*
X066467Y009813D02*
X064426Y009813D01*
X064425Y009803D02*
X064428Y009834D01*
X064428Y011032D01*
X064425Y011064D01*
X064420Y011095D01*
X064411Y011125D01*
X064401Y011155D01*
X064387Y011183D01*
X064372Y011210D01*
X064354Y011236D01*
X064333Y011260D01*
X064311Y011282D01*
X064287Y011303D01*
X064261Y011321D01*
X064234Y011336D01*
X064206Y011350D01*
X064176Y011360D01*
X064146Y011368D01*
X064115Y011374D01*
X064084Y011377D01*
X056849Y011377D01*
X056818Y011374D01*
X056787Y011368D01*
X056756Y011360D01*
X056727Y011350D01*
X056698Y011336D01*
X056671Y011321D01*
X056645Y011303D01*
X056621Y011282D01*
X056599Y011260D01*
X056579Y011236D01*
X056561Y011210D01*
X056545Y011183D01*
X056532Y011155D01*
X056521Y011125D01*
X056513Y011095D01*
X056507Y011064D01*
X056505Y011032D01*
X056505Y009834D01*
X056507Y009803D01*
X056513Y009772D01*
X056521Y009742D01*
X056532Y009712D01*
X056545Y009684D01*
X056561Y009656D01*
X056579Y009631D01*
X056599Y009607D01*
X056621Y009584D01*
X056645Y009564D01*
X056671Y009546D01*
X056698Y009530D01*
X056727Y009517D01*
X056756Y009506D01*
X056787Y009498D01*
X056818Y009493D01*
X056849Y009490D01*
X064084Y009490D01*
X064115Y009493D01*
X064146Y009498D01*
X064176Y009506D01*
X064206Y009517D01*
X064234Y009530D01*
X064261Y009546D01*
X064287Y009564D01*
X064311Y009584D01*
X064333Y009607D01*
X064354Y009631D01*
X064372Y009656D01*
X064387Y009684D01*
X064401Y009712D01*
X064411Y009742D01*
X064420Y009772D01*
X064425Y009803D01*
X064428Y010211D02*
X066467Y010211D01*
X066467Y010610D02*
X064428Y010610D01*
X064428Y011008D02*
X066467Y011008D01*
X066467Y011407D02*
X004674Y011407D01*
X004674Y011805D02*
X066467Y011805D01*
X066467Y012204D02*
X004674Y012204D01*
X004674Y012602D02*
X066467Y012602D01*
X066467Y013001D02*
X004674Y013001D01*
X004674Y013399D02*
X066467Y013399D01*
X066467Y013798D02*
X004674Y013798D01*
X004674Y014196D02*
X066467Y014196D01*
X066467Y014595D02*
X004674Y014595D01*
X004674Y014993D02*
X022851Y014993D01*
X022834Y015011D02*
X023020Y014825D01*
X023262Y014725D01*
X023525Y014725D01*
X023767Y014825D01*
X023893Y014951D01*
X024020Y014825D01*
X024262Y014725D01*
X024525Y014725D01*
X024767Y014825D01*
X024893Y014951D01*
X025020Y014825D01*
X025262Y014725D01*
X025525Y014725D01*
X025767Y014825D01*
X025893Y014951D01*
X026020Y014825D01*
X026262Y014725D01*
X026525Y014725D01*
X026767Y014825D01*
X026893Y014951D01*
X027020Y014825D01*
X027262Y014725D01*
X027525Y014725D01*
X027767Y014825D01*
X027893Y014951D01*
X028020Y014825D01*
X028262Y014725D01*
X028525Y014725D01*
X028767Y014825D01*
X028936Y014994D01*
X029002Y014927D01*
X029079Y014872D01*
X029163Y014829D01*
X029253Y014799D01*
X029346Y014785D01*
X029393Y014785D01*
X029393Y015685D01*
X029393Y016585D01*
X029346Y016585D01*
X029253Y016570D01*
X029163Y016541D01*
X029079Y016498D01*
X029002Y016442D01*
X028936Y016376D01*
X028767Y016544D01*
X028525Y016645D01*
X028262Y016645D01*
X028020Y016544D01*
X027893Y016418D01*
X027767Y016544D01*
X027525Y016645D01*
X027262Y016645D01*
X027020Y016544D01*
X026893Y016418D01*
X026767Y016544D01*
X026525Y016645D01*
X026262Y016645D01*
X026020Y016544D01*
X025893Y016418D01*
X025767Y016544D01*
X025525Y016645D01*
X025262Y016645D01*
X025020Y016544D01*
X024893Y016418D01*
X024767Y016544D01*
X024525Y016645D01*
X024262Y016645D01*
X024020Y016544D01*
X023893Y016418D01*
X023767Y016544D01*
X023525Y016645D01*
X023262Y016645D01*
X023020Y016544D01*
X022834Y016359D01*
X022733Y016116D01*
X022733Y015253D01*
X022834Y015011D01*
X022733Y015392D02*
X004674Y015392D01*
X004674Y015790D02*
X022733Y015790D01*
X022764Y016189D02*
X004674Y016189D01*
X004674Y016587D02*
X023123Y016587D01*
X023663Y016587D02*
X024123Y016587D01*
X024663Y016587D02*
X025123Y016587D01*
X025663Y016587D02*
X026123Y016587D01*
X026663Y016587D02*
X027123Y016587D01*
X027663Y016587D02*
X028123Y016587D01*
X028663Y016587D02*
X030123Y016587D01*
X030020Y016544D02*
X030262Y016645D01*
X030525Y016645D01*
X030767Y016544D01*
X030893Y016418D01*
X031020Y016544D01*
X031262Y016645D01*
X031525Y016645D01*
X031767Y016544D01*
X031893Y016418D01*
X032020Y016544D01*
X032262Y016645D01*
X032525Y016645D01*
X032767Y016544D01*
X032953Y016359D01*
X033053Y016116D01*
X033053Y015253D01*
X032953Y015011D01*
X032767Y014825D01*
X032525Y014725D01*
X032262Y014725D01*
X032020Y014825D01*
X031893Y014951D01*
X031767Y014825D01*
X031525Y014725D01*
X031262Y014725D01*
X031020Y014825D01*
X030893Y014951D01*
X030767Y014825D01*
X030525Y014725D01*
X030262Y014725D01*
X030020Y014825D01*
X029851Y014994D01*
X029784Y014927D01*
X029708Y014872D01*
X029624Y014829D01*
X029534Y014799D01*
X029441Y014785D01*
X029393Y014785D01*
X029393Y015685D01*
X029393Y015685D01*
X029393Y016585D01*
X029441Y016585D01*
X029534Y016570D01*
X029624Y016541D01*
X029708Y016498D01*
X029784Y016442D01*
X029851Y016376D01*
X030020Y016544D01*
X030663Y016587D02*
X031123Y016587D01*
X031663Y016587D02*
X032123Y016587D01*
X032663Y016587D02*
X033531Y016587D01*
X033531Y016481D02*
X033409Y016359D01*
X033308Y016116D01*
X033308Y015253D01*
X033409Y015011D01*
X033594Y014825D01*
X033837Y014725D01*
X034099Y014725D01*
X034342Y014825D01*
X034468Y014951D01*
X034594Y014825D01*
X034837Y014725D01*
X035099Y014725D01*
X035342Y014825D01*
X035468Y014951D01*
X035594Y014825D01*
X035837Y014725D01*
X036099Y014725D01*
X036342Y014825D01*
X036468Y014951D01*
X036594Y014825D01*
X036837Y014725D01*
X037099Y014725D01*
X037342Y014825D01*
X037468Y014951D01*
X037594Y014825D01*
X037837Y014725D01*
X038099Y014725D01*
X038342Y014825D01*
X038468Y014951D01*
X038594Y014825D01*
X038837Y014725D01*
X039099Y014725D01*
X039342Y014825D01*
X039468Y014951D01*
X039594Y014825D01*
X039837Y014725D01*
X040099Y014725D01*
X040342Y014825D01*
X040468Y014951D01*
X040594Y014825D01*
X040837Y014725D01*
X041099Y014725D01*
X041342Y014825D01*
X041528Y015011D01*
X041628Y015253D01*
X041628Y016116D01*
X041528Y016359D01*
X041342Y016544D01*
X041099Y016645D01*
X040837Y016645D01*
X040594Y016544D01*
X040468Y016418D01*
X040342Y016544D01*
X040099Y016645D01*
X039837Y016645D01*
X039594Y016544D01*
X039468Y016418D01*
X039342Y016544D01*
X039099Y016645D01*
X038837Y016645D01*
X038594Y016544D01*
X038468Y016418D01*
X038342Y016544D01*
X038099Y016645D01*
X037837Y016645D01*
X037594Y016544D01*
X037468Y016418D01*
X037342Y016544D01*
X037099Y016645D01*
X036837Y016645D01*
X036594Y016544D01*
X036468Y016418D01*
X036342Y016544D01*
X036099Y016645D01*
X035837Y016645D01*
X035594Y016544D01*
X035468Y016418D01*
X035342Y016544D01*
X035099Y016645D01*
X034837Y016645D01*
X034594Y016544D01*
X034468Y016418D01*
X034411Y016476D01*
X034411Y017201D01*
X034344Y017363D01*
X033400Y018306D01*
X033238Y018373D01*
X023730Y018373D01*
X023697Y018406D01*
X023492Y018491D01*
X023270Y018491D01*
X023065Y018406D01*
X022908Y018249D01*
X022823Y018044D01*
X022823Y017822D01*
X022908Y017617D01*
X023065Y017460D01*
X023270Y017375D01*
X023492Y017375D01*
X023697Y017460D01*
X023730Y017493D01*
X032969Y017493D01*
X033531Y016931D01*
X033531Y016481D01*
X033338Y016189D02*
X033023Y016189D01*
X033053Y015790D02*
X033308Y015790D01*
X033308Y015392D02*
X033053Y015392D01*
X032935Y014993D02*
X033426Y014993D01*
X034411Y016587D02*
X034698Y016587D01*
X034411Y016986D02*
X066467Y016986D01*
X066467Y017384D02*
X034322Y017384D01*
X033924Y017783D02*
X066467Y017783D01*
X066467Y018181D02*
X033525Y018181D01*
X033078Y017384D02*
X023514Y017384D01*
X023248Y017384D02*
X004674Y017384D01*
X004674Y016986D02*
X033476Y016986D01*
X035238Y016587D02*
X035698Y016587D01*
X036238Y016587D02*
X036698Y016587D01*
X037238Y016587D02*
X037698Y016587D01*
X038238Y016587D02*
X038698Y016587D01*
X039238Y016587D02*
X039698Y016587D01*
X040238Y016587D02*
X040698Y016587D01*
X041238Y016587D02*
X066467Y016587D01*
X066467Y016189D02*
X041598Y016189D01*
X041628Y015790D02*
X066467Y015790D01*
X066467Y015392D02*
X041628Y015392D01*
X041510Y014993D02*
X066467Y014993D01*
X066467Y018580D02*
X036577Y018580D01*
X036518Y018521D02*
X036760Y018763D01*
X036891Y019079D01*
X036891Y019421D01*
X036851Y019519D01*
X036851Y021823D01*
X045192Y021823D01*
X045508Y021954D01*
X045750Y022196D01*
X045750Y022196D01*
X047031Y023477D01*
X047151Y023596D01*
X047151Y023598D01*
X047152Y023599D01*
X047217Y023756D01*
X047283Y023912D01*
X047283Y023914D01*
X047283Y023915D01*
X047283Y024084D01*
X047290Y026066D01*
X047377Y026153D01*
X048282Y026153D01*
X048444Y026220D01*
X048567Y026344D01*
X048837Y026614D01*
X048904Y026776D01*
X048904Y027751D01*
X048837Y027913D01*
X048714Y028036D01*
X048424Y028326D01*
X048262Y028393D01*
X046436Y028393D01*
X046266Y028394D01*
X045950Y028264D01*
X045707Y028023D01*
X045575Y027707D01*
X045565Y024443D01*
X044665Y023543D01*
X036851Y023543D01*
X036851Y025713D01*
X036854Y025722D01*
X036854Y027755D01*
X036769Y027961D01*
X036209Y028521D01*
X036052Y028678D01*
X034556Y030174D01*
X034556Y033910D01*
X034656Y034151D01*
X034656Y035014D01*
X034555Y035256D01*
X034370Y035442D01*
X034127Y035542D01*
X033864Y035542D01*
X033622Y035442D01*
X033453Y035273D01*
X033387Y035340D01*
X033310Y035396D01*
X033226Y035438D01*
X033136Y035468D01*
X033043Y035482D01*
X032996Y035482D01*
X032996Y034582D01*
X032996Y033682D01*
X033043Y033682D01*
X033136Y033697D01*
X033226Y033726D01*
X033310Y033769D01*
X033387Y033825D01*
X033436Y033874D01*
X033436Y029831D01*
X033521Y029625D01*
X035124Y028021D01*
X035124Y025602D01*
X035131Y025587D01*
X035131Y023543D01*
X027443Y023543D01*
X027443Y027103D01*
X027454Y027132D01*
X027454Y027474D01*
X027324Y027790D01*
X027082Y028032D01*
X026766Y028163D01*
X026411Y028163D01*
X026095Y028032D01*
X025853Y027790D01*
X025723Y027474D01*
X025723Y023543D01*
X017994Y023543D01*
X017994Y027130D01*
X017994Y027132D01*
X017994Y027474D01*
X017864Y027790D01*
X017622Y028032D01*
X017306Y028163D01*
X016963Y028163D01*
X016647Y028032D01*
X016405Y027790D01*
X016274Y027474D01*
X016274Y023543D01*
X008545Y023543D01*
X008545Y027474D01*
X008414Y027790D01*
X008172Y028032D01*
X007856Y028163D01*
X007513Y028163D01*
X007197Y028032D01*
X006955Y027790D01*
X006824Y027474D01*
X006824Y027132D01*
X006825Y027131D01*
X006825Y022755D01*
X006824Y022754D01*
X006824Y022412D01*
X006825Y022411D01*
X006825Y019087D01*
X006956Y018771D01*
X007198Y018529D01*
X007514Y018398D01*
X007876Y018398D01*
X008192Y018529D01*
X008434Y018771D01*
X008565Y019087D01*
X008565Y019429D01*
X008545Y019477D01*
X008545Y021823D01*
X016271Y021823D01*
X016271Y019070D01*
X016402Y018754D01*
X016644Y018512D01*
X016647Y018509D01*
X016963Y018378D01*
X017305Y018378D01*
X017621Y018509D01*
X017863Y018751D01*
X017994Y019067D01*
X017994Y019409D01*
X017991Y019416D01*
X017991Y021823D01*
X025721Y021823D01*
X025721Y019069D01*
X025852Y018753D01*
X026094Y018511D01*
X026095Y018509D01*
X026411Y018378D01*
X026754Y018378D01*
X027070Y018509D01*
X027312Y018751D01*
X027443Y019067D01*
X027443Y019409D01*
X027441Y019414D01*
X027441Y021823D01*
X035131Y021823D01*
X035131Y019108D01*
X035262Y018792D01*
X035504Y018550D01*
X035532Y018521D01*
X035848Y018390D01*
X036202Y018390D01*
X036518Y018521D01*
X036850Y018978D02*
X066467Y018978D01*
X066467Y019377D02*
X036891Y019377D01*
X036851Y019775D02*
X066467Y019775D01*
X066467Y020174D02*
X036851Y020174D01*
X036851Y020572D02*
X066467Y020572D01*
X066467Y020971D02*
X036851Y020971D01*
X036851Y021369D02*
X066467Y021369D01*
X066467Y021768D02*
X036851Y021768D01*
X035131Y021768D02*
X027441Y021768D01*
X027441Y021369D02*
X035131Y021369D01*
X035131Y020971D02*
X027441Y020971D01*
X027441Y020572D02*
X035131Y020572D01*
X035131Y020174D02*
X027441Y020174D01*
X027441Y019775D02*
X035131Y019775D01*
X035131Y019377D02*
X027443Y019377D01*
X027406Y018978D02*
X035184Y018978D01*
X035474Y018580D02*
X027140Y018580D01*
X026025Y018580D02*
X017691Y018580D01*
X017957Y018978D02*
X025758Y018978D01*
X025721Y019377D02*
X017994Y019377D01*
X017991Y019775D02*
X025721Y019775D01*
X025721Y020174D02*
X017991Y020174D01*
X017991Y020572D02*
X025721Y020572D01*
X025721Y020971D02*
X017991Y020971D01*
X017991Y021369D02*
X025721Y021369D01*
X025721Y021768D02*
X017991Y021768D01*
X016271Y021768D02*
X008545Y021768D01*
X008545Y021369D02*
X016271Y021369D01*
X016271Y020971D02*
X008545Y020971D01*
X008545Y020572D02*
X016271Y020572D01*
X016271Y020174D02*
X008545Y020174D01*
X008545Y019775D02*
X016271Y019775D01*
X016271Y019377D02*
X008565Y019377D01*
X008520Y018978D02*
X016309Y018978D01*
X016576Y018580D02*
X008243Y018580D01*
X007147Y018580D02*
X004674Y018580D01*
X004674Y018978D02*
X006870Y018978D01*
X006825Y019377D02*
X004674Y019377D01*
X004674Y019775D02*
X006825Y019775D01*
X006825Y020174D02*
X004674Y020174D01*
X004674Y020572D02*
X006825Y020572D01*
X006825Y020971D02*
X004674Y020971D01*
X004674Y021369D02*
X006825Y021369D01*
X006825Y021768D02*
X004674Y021768D01*
X004674Y022166D02*
X006825Y022166D01*
X006824Y022565D02*
X004674Y022565D01*
X004674Y022963D02*
X006825Y022963D01*
X006825Y023362D02*
X004674Y023362D01*
X004674Y023760D02*
X006825Y023760D01*
X006825Y024159D02*
X004674Y024159D01*
X004674Y024557D02*
X006825Y024557D01*
X006825Y024956D02*
X004674Y024956D01*
X004674Y025354D02*
X006825Y025354D01*
X006825Y025753D02*
X004674Y025753D01*
X004674Y026151D02*
X006825Y026151D01*
X006825Y026550D02*
X004674Y026550D01*
X004674Y026948D02*
X006825Y026948D01*
X006824Y027347D02*
X004674Y027347D01*
X004674Y027745D02*
X006937Y027745D01*
X007466Y028144D02*
X004674Y028144D01*
X004674Y028542D02*
X034604Y028542D01*
X035002Y028144D02*
X026813Y028144D01*
X026364Y028144D02*
X017353Y028144D01*
X016916Y028144D02*
X007903Y028144D01*
X008433Y027745D02*
X016386Y027745D01*
X016274Y027347D02*
X008545Y027347D01*
X008545Y026948D02*
X016274Y026948D01*
X016274Y026550D02*
X008545Y026550D01*
X008545Y026151D02*
X016274Y026151D01*
X016274Y025753D02*
X008545Y025753D01*
X008545Y025354D02*
X016274Y025354D01*
X016274Y024956D02*
X008545Y024956D01*
X008545Y024557D02*
X016274Y024557D01*
X016274Y024159D02*
X008545Y024159D01*
X008545Y023760D02*
X016274Y023760D01*
X017994Y023760D02*
X025723Y023760D01*
X025723Y024159D02*
X017994Y024159D01*
X017994Y024557D02*
X025723Y024557D01*
X025723Y024956D02*
X017994Y024956D01*
X017994Y025354D02*
X025723Y025354D01*
X025723Y025753D02*
X017994Y025753D01*
X017994Y026151D02*
X025723Y026151D01*
X025723Y026550D02*
X017994Y026550D01*
X017994Y026948D02*
X025723Y026948D01*
X025723Y027347D02*
X017994Y027347D01*
X017882Y027745D02*
X025835Y027745D01*
X027342Y027745D02*
X035124Y027745D01*
X035124Y027347D02*
X027454Y027347D01*
X027443Y026948D02*
X035124Y026948D01*
X035124Y026550D02*
X027443Y026550D01*
X027443Y026151D02*
X035124Y026151D01*
X035124Y025753D02*
X027443Y025753D01*
X027443Y025354D02*
X035131Y025354D01*
X035131Y024956D02*
X027443Y024956D01*
X027443Y024557D02*
X035131Y024557D01*
X035131Y024159D02*
X027443Y024159D01*
X027443Y023760D02*
X035131Y023760D01*
X036851Y023760D02*
X044882Y023760D01*
X045280Y024159D02*
X036851Y024159D01*
X036851Y024557D02*
X045565Y024557D01*
X045566Y024956D02*
X036851Y024956D01*
X036851Y025354D02*
X045567Y025354D01*
X045569Y025753D02*
X036854Y025753D01*
X036854Y026151D02*
X045570Y026151D01*
X045571Y026550D02*
X036854Y026550D01*
X036854Y026948D02*
X045573Y026948D01*
X045574Y027347D02*
X036854Y027347D01*
X036854Y027745D02*
X045591Y027745D01*
X045829Y028144D02*
X036586Y028144D01*
X036209Y028521D02*
X036209Y028521D01*
X036187Y028542D02*
X066467Y028542D01*
X066467Y028144D02*
X048606Y028144D01*
X048904Y027745D02*
X066467Y027745D01*
X066467Y027347D02*
X048904Y027347D01*
X048904Y026948D02*
X066467Y026948D01*
X066467Y026550D02*
X048773Y026550D01*
X047375Y026151D02*
X066467Y026151D01*
X066467Y025753D02*
X047289Y025753D01*
X047287Y025354D02*
X066467Y025354D01*
X066467Y024956D02*
X047286Y024956D01*
X047285Y024557D02*
X066467Y024557D01*
X066467Y024159D02*
X047284Y024159D01*
X047219Y023760D02*
X066467Y023760D01*
X066467Y023362D02*
X046916Y023362D01*
X046517Y022963D02*
X066467Y022963D01*
X066467Y022565D02*
X046119Y022565D01*
X045720Y022166D02*
X066467Y022166D01*
X066467Y028941D02*
X035789Y028941D01*
X035390Y029339D02*
X066467Y029339D01*
X066467Y029738D02*
X034992Y029738D01*
X034593Y030136D02*
X066467Y030136D01*
X066467Y030535D02*
X034556Y030535D01*
X034556Y030933D02*
X066467Y030933D01*
X066467Y031332D02*
X048126Y031332D01*
X048057Y031263D02*
X048214Y031420D01*
X048299Y031625D01*
X048299Y031847D01*
X048214Y032052D01*
X048178Y032088D01*
X048178Y032377D01*
X048374Y032573D01*
X048441Y032735D01*
X048441Y035173D01*
X048374Y035335D01*
X048250Y035459D01*
X047900Y035809D01*
X047739Y035876D01*
X047591Y035876D01*
X047557Y035909D01*
X047352Y035994D01*
X047305Y035994D01*
X046997Y036303D01*
X046873Y036426D01*
X046711Y036493D01*
X030467Y036493D01*
X030305Y036426D01*
X030181Y036303D01*
X029623Y035744D01*
X029556Y035582D01*
X029556Y035376D01*
X029496Y035316D01*
X029370Y035442D01*
X029127Y035542D01*
X028864Y035542D01*
X028622Y035442D01*
X028496Y035316D01*
X028370Y035442D01*
X028127Y035542D01*
X027864Y035542D01*
X027622Y035442D01*
X027496Y035316D01*
X027370Y035442D01*
X027127Y035542D01*
X026864Y035542D01*
X026622Y035442D01*
X026436Y035256D01*
X026336Y035014D01*
X026336Y034151D01*
X026436Y033909D01*
X026622Y033723D01*
X004674Y033723D01*
X004674Y034121D02*
X026348Y034121D01*
X026336Y034520D02*
X004674Y034520D01*
X004674Y034918D02*
X026336Y034918D01*
X026497Y035317D02*
X004674Y035317D01*
X004674Y035715D02*
X029611Y035715D01*
X029495Y035317D02*
X029497Y035317D01*
X029993Y036114D02*
X004674Y036114D01*
X004674Y036512D02*
X058916Y036512D01*
X058942Y036451D02*
X059122Y036271D01*
X059357Y036173D01*
X059612Y036173D01*
X059847Y036271D01*
X060027Y036451D01*
X060124Y036686D01*
X060124Y040708D01*
X060287Y040871D01*
X060321Y040837D01*
X060483Y040770D01*
X061445Y040770D01*
X061607Y040837D01*
X061731Y040961D01*
X061798Y041123D01*
X061798Y042085D01*
X061731Y042247D01*
X061607Y042371D01*
X061604Y042372D01*
X061604Y043257D01*
X061607Y043259D01*
X061731Y043382D01*
X061798Y043544D01*
X061798Y044506D01*
X061731Y044668D01*
X061607Y044792D01*
X061445Y044859D01*
X060483Y044859D01*
X060321Y044792D01*
X060198Y044668D01*
X060131Y044506D01*
X060131Y043544D01*
X060198Y043382D01*
X060321Y043259D01*
X060324Y043257D01*
X060324Y042372D01*
X060321Y042371D01*
X060198Y042247D01*
X060196Y042244D01*
X059988Y042244D01*
X059753Y042147D01*
X059122Y041516D01*
X059122Y041516D01*
X058942Y041336D01*
X058844Y041101D01*
X058844Y036686D01*
X058942Y036451D01*
X058844Y036911D02*
X004674Y036911D01*
X004674Y037309D02*
X058844Y037309D01*
X058844Y037708D02*
X004674Y037708D01*
X004674Y038106D02*
X058844Y038106D01*
X058844Y038505D02*
X004674Y038505D01*
X004674Y038903D02*
X058844Y038903D01*
X058844Y039302D02*
X056576Y039302D01*
X056839Y039565D01*
X057025Y039887D01*
X057122Y040247D01*
X057122Y040619D01*
X057088Y040744D01*
X057131Y040761D01*
X057348Y040979D01*
X057466Y041263D01*
X057466Y041571D01*
X057348Y041855D01*
X057131Y042073D01*
X056846Y042190D01*
X056539Y042190D01*
X056254Y042073D01*
X056037Y041855D01*
X056019Y041813D01*
X055894Y041846D01*
X055522Y041846D01*
X055163Y041750D01*
X054840Y041564D01*
X054577Y041301D01*
X054405Y041003D01*
X054513Y041263D01*
X054513Y041571D01*
X054395Y041855D01*
X054178Y042073D01*
X053894Y042190D01*
X053586Y042190D01*
X053302Y042073D01*
X053084Y041855D01*
X052966Y041571D01*
X052966Y041263D01*
X053074Y041003D01*
X052902Y041301D01*
X052639Y041564D01*
X052317Y041750D01*
X051957Y041846D01*
X051585Y041846D01*
X051460Y041813D01*
X051443Y041855D01*
X051225Y042073D01*
X050941Y042190D01*
X050633Y042190D01*
X050349Y042073D01*
X050131Y041855D01*
X050014Y041571D01*
X050014Y041263D01*
X050131Y040979D01*
X050349Y040761D01*
X050391Y040744D01*
X050358Y040619D01*
X050358Y040247D01*
X050454Y039887D01*
X050640Y039565D01*
X050903Y039302D01*
X038675Y039302D01*
X038705Y039331D02*
X038836Y039647D01*
X038836Y039990D01*
X038705Y040306D01*
X038463Y040548D01*
X038147Y040679D01*
X037805Y040679D01*
X037489Y040548D01*
X037247Y040306D01*
X037116Y039990D01*
X037116Y039647D01*
X037247Y039331D01*
X037489Y039089D01*
X037805Y038959D01*
X038147Y038959D01*
X038463Y039089D01*
X038705Y039331D01*
X038836Y039700D02*
X041688Y039700D01*
X041720Y039687D02*
X042028Y039687D01*
X042312Y039805D01*
X042529Y040022D01*
X042647Y040306D01*
X042647Y040614D01*
X042529Y040898D01*
X042312Y041116D01*
X042028Y041234D01*
X041720Y041234D01*
X041622Y041193D01*
X041663Y041291D01*
X041663Y041598D01*
X041545Y041883D01*
X041328Y042100D01*
X041043Y042218D01*
X040736Y042218D01*
X040451Y042100D01*
X040234Y041883D01*
X040116Y041598D01*
X040116Y041291D01*
X040234Y041006D01*
X040451Y040789D01*
X040736Y040671D01*
X041043Y040671D01*
X041141Y040712D01*
X041100Y040614D01*
X041100Y040306D01*
X041218Y040022D01*
X041436Y039805D01*
X041720Y039687D01*
X042060Y039700D02*
X045625Y039700D01*
X045657Y039687D02*
X045965Y039687D01*
X046249Y039805D01*
X046466Y040022D01*
X046584Y040306D01*
X046584Y040614D01*
X046544Y040712D01*
X046641Y040671D01*
X046949Y040671D01*
X047233Y040789D01*
X047451Y041006D01*
X047568Y041291D01*
X047568Y041598D01*
X047451Y041883D01*
X047233Y042100D01*
X046949Y042218D01*
X046641Y042218D01*
X046357Y042100D01*
X046139Y041883D01*
X046022Y041598D01*
X046022Y041291D01*
X046062Y041193D01*
X045965Y041234D01*
X045657Y041234D01*
X045373Y041116D01*
X045155Y040898D01*
X045037Y040614D01*
X045037Y040306D01*
X045155Y040022D01*
X045373Y039805D01*
X045657Y039687D01*
X045997Y039700D02*
X050562Y039700D01*
X050398Y040099D02*
X046498Y040099D01*
X046584Y040497D02*
X050358Y040497D01*
X050215Y040896D02*
X047340Y040896D01*
X047568Y041294D02*
X050014Y041294D01*
X050064Y041693D02*
X047529Y041693D01*
X047242Y042091D02*
X050394Y042091D01*
X051180Y042091D02*
X053347Y042091D01*
X053017Y041693D02*
X052416Y041693D01*
X052906Y041294D02*
X052966Y041294D01*
X053090Y040973D02*
X053302Y040761D01*
X053586Y040644D01*
X053894Y040644D01*
X054178Y040761D01*
X054390Y040973D01*
X054295Y040619D01*
X054295Y040247D01*
X054391Y039887D01*
X054577Y039565D01*
X054840Y039302D01*
X052639Y039302D01*
X052902Y039565D01*
X053088Y039887D01*
X053185Y040247D01*
X053185Y040619D01*
X053090Y040973D01*
X053110Y040896D02*
X053167Y040896D01*
X053185Y040497D02*
X054295Y040497D01*
X054312Y040896D02*
X054369Y040896D01*
X054513Y041294D02*
X054574Y041294D01*
X054463Y041693D02*
X055064Y041693D01*
X054133Y042091D02*
X056300Y042091D01*
X057086Y042091D02*
X059697Y042091D01*
X059299Y041693D02*
X057415Y041693D01*
X057466Y041294D02*
X058925Y041294D01*
X058844Y040896D02*
X057265Y040896D01*
X057122Y040497D02*
X058844Y040497D01*
X058844Y040099D02*
X057082Y040099D01*
X056918Y039700D02*
X058844Y039700D01*
X060124Y039700D02*
X066467Y039700D01*
X066467Y039302D02*
X060124Y039302D01*
X060124Y038903D02*
X066467Y038903D01*
X066467Y038505D02*
X060124Y038505D01*
X060124Y038106D02*
X066467Y038106D01*
X066467Y037708D02*
X060124Y037708D01*
X060124Y037309D02*
X066467Y037309D01*
X066467Y036911D02*
X060124Y036911D01*
X060053Y036512D02*
X066467Y036512D01*
X066467Y036114D02*
X047186Y036114D01*
X047994Y035715D02*
X066467Y035715D01*
X066467Y035317D02*
X048382Y035317D01*
X048441Y034918D02*
X066467Y034918D01*
X066467Y034520D02*
X048441Y034520D01*
X048441Y034121D02*
X066467Y034121D01*
X066467Y033723D02*
X048441Y033723D01*
X048441Y033324D02*
X066467Y033324D01*
X066467Y032926D02*
X048441Y032926D01*
X048328Y032527D02*
X066467Y032527D01*
X066467Y032129D02*
X048178Y032129D01*
X048299Y031730D02*
X066467Y031730D01*
X059484Y036813D02*
X059484Y040973D01*
X060115Y041604D01*
X060964Y041604D01*
X060964Y044025D01*
X060131Y044084D02*
X038449Y044084D01*
X038463Y044089D02*
X038705Y044331D01*
X038836Y044647D01*
X038836Y044990D01*
X038705Y045306D01*
X038463Y045548D01*
X038147Y045679D01*
X037805Y045679D01*
X037489Y045548D01*
X037247Y045306D01*
X037116Y044990D01*
X037116Y044647D01*
X037247Y044331D01*
X037489Y044089D01*
X037805Y043959D01*
X038147Y043959D01*
X038463Y044089D01*
X038767Y044482D02*
X060131Y044482D01*
X060131Y043685D02*
X004674Y043685D01*
X004674Y043287D02*
X060293Y043287D01*
X060324Y042888D02*
X038622Y042888D01*
X038705Y042806D02*
X038463Y043048D01*
X038147Y043179D01*
X037805Y043179D01*
X037489Y043048D01*
X037247Y042806D01*
X037116Y042490D01*
X032368Y042490D01*
X032372Y042475D02*
X032345Y042576D01*
X032305Y042673D01*
X032252Y042764D01*
X032189Y042847D01*
X032114Y042921D01*
X032031Y042985D01*
X031940Y043038D01*
X031844Y043078D01*
X031742Y043105D01*
X031638Y043119D01*
X031586Y043119D01*
X031586Y042319D01*
X031586Y042319D01*
X031586Y043119D01*
X031533Y043119D01*
X031429Y043105D01*
X031328Y043078D01*
X031231Y043038D01*
X031140Y042985D01*
X031057Y042921D01*
X030983Y042847D01*
X030919Y042764D01*
X030867Y042673D01*
X030827Y042576D01*
X030800Y042475D01*
X030786Y042371D01*
X030786Y042319D01*
X031586Y042319D01*
X032386Y042319D01*
X032386Y042371D01*
X032372Y042475D01*
X032386Y042318D02*
X031586Y042318D01*
X031586Y041519D01*
X031638Y041519D01*
X031742Y041532D01*
X031844Y041559D01*
X031940Y041599D01*
X032031Y041652D01*
X032114Y041716D01*
X032189Y041790D01*
X032252Y041873D01*
X032305Y041964D01*
X032345Y042061D01*
X032372Y042162D01*
X032386Y042266D01*
X032386Y042318D01*
X032353Y042091D02*
X037139Y042091D01*
X037116Y042147D02*
X037247Y041831D01*
X037489Y041589D01*
X037805Y041459D01*
X038147Y041459D01*
X038463Y041589D01*
X038705Y041831D01*
X038836Y042147D01*
X038836Y042490D01*
X060324Y042490D01*
X061604Y042490D02*
X062173Y042490D01*
X062156Y042447D02*
X062156Y042060D01*
X062304Y041702D01*
X062578Y041428D01*
X062936Y041280D01*
X063323Y041280D01*
X063681Y041428D01*
X063955Y041702D01*
X064104Y042060D01*
X064104Y042447D01*
X063955Y042805D01*
X063681Y043079D01*
X063485Y043161D01*
X063659Y043233D01*
X063922Y043496D01*
X064064Y043839D01*
X064064Y044211D01*
X063922Y044555D01*
X063659Y044818D01*
X063316Y044960D01*
X062944Y044960D01*
X062600Y044818D01*
X062337Y044555D01*
X062195Y044211D01*
X062195Y043839D01*
X062337Y043496D01*
X062600Y043233D01*
X062774Y043161D01*
X062578Y043079D01*
X062304Y042805D01*
X062156Y042447D01*
X062156Y042091D02*
X061795Y042091D01*
X061798Y041693D02*
X062313Y041693D01*
X061798Y041294D02*
X062900Y041294D01*
X063359Y041294D02*
X064541Y041294D01*
X064541Y041139D02*
X064596Y041006D01*
X064697Y040905D01*
X064830Y040850D01*
X065760Y040850D01*
X065893Y040905D01*
X065994Y041006D01*
X066049Y041139D01*
X066049Y042069D01*
X065994Y042202D01*
X065893Y042303D01*
X065760Y042358D01*
X064830Y042358D01*
X064697Y042303D01*
X064596Y042202D01*
X064541Y042069D01*
X064541Y041139D01*
X064720Y040896D02*
X061666Y040896D01*
X060124Y040497D02*
X066467Y040497D01*
X066467Y040099D02*
X060124Y040099D01*
X061604Y042888D02*
X062387Y042888D01*
X062546Y043287D02*
X061635Y043287D01*
X061798Y043685D02*
X062259Y043685D01*
X062195Y044084D02*
X061798Y044084D01*
X061798Y044482D02*
X062307Y044482D01*
X062753Y044881D02*
X056244Y044881D01*
X056418Y045279D02*
X064449Y045279D01*
X064414Y044881D02*
X063506Y044881D01*
X063952Y044482D02*
X064414Y044482D01*
X064414Y044084D02*
X064064Y044084D01*
X064000Y043685D02*
X064414Y043685D01*
X064414Y043287D02*
X063713Y043287D01*
X063872Y042888D02*
X064494Y042888D01*
X064086Y042490D02*
X064995Y042490D01*
X064550Y042091D02*
X064104Y042091D01*
X063946Y041693D02*
X064541Y041693D01*
X066049Y041693D02*
X066467Y041693D01*
X066467Y042091D02*
X066040Y042091D01*
X065864Y042490D02*
X066467Y042490D01*
X066467Y042888D02*
X066365Y042888D01*
X066454Y043287D02*
X066467Y043287D01*
X066454Y043685D02*
X066467Y043685D01*
X066454Y044084D02*
X066467Y044084D01*
X066454Y044482D02*
X066467Y044482D01*
X066454Y044881D02*
X066467Y044881D01*
X066444Y045279D02*
X066467Y045279D01*
X066467Y045678D02*
X066125Y045678D01*
X064784Y045678D02*
X056345Y045678D01*
X056422Y045354D02*
X055708Y045354D01*
X055708Y045354D01*
X056422Y045354D01*
X055708Y045279D02*
X055708Y045279D01*
X055708Y044881D02*
X055708Y044881D01*
X055173Y044881D02*
X052307Y044881D01*
X052481Y045279D02*
X054999Y045279D01*
X055072Y045678D02*
X052408Y045678D01*
X052485Y045354D02*
X051771Y045354D01*
X051771Y045354D01*
X052485Y045354D01*
X051771Y045279D02*
X051771Y045279D01*
X051771Y044881D02*
X051771Y044881D01*
X051236Y044881D02*
X046404Y044881D01*
X046584Y045279D02*
X051062Y045279D01*
X051135Y045678D02*
X046525Y045678D01*
X045096Y045678D02*
X042588Y045678D01*
X042647Y045279D02*
X045037Y045279D01*
X045218Y044881D02*
X042467Y044881D01*
X041281Y044881D02*
X038836Y044881D01*
X038716Y045279D02*
X041100Y045279D01*
X041159Y045678D02*
X038148Y045678D01*
X037803Y045678D02*
X029487Y045678D01*
X029485Y045679D02*
X029143Y045679D01*
X028827Y045548D01*
X028585Y045306D01*
X028454Y044990D01*
X028454Y044647D01*
X028585Y044331D01*
X028827Y044089D01*
X029143Y043959D01*
X029485Y043959D01*
X029801Y044089D01*
X030043Y044331D01*
X030174Y044647D01*
X030174Y044990D01*
X030043Y045306D01*
X029801Y045548D01*
X029485Y045679D01*
X029142Y045678D02*
X020826Y045678D01*
X020825Y045679D02*
X020483Y045679D01*
X020166Y045548D01*
X019925Y045306D01*
X019794Y044990D01*
X019794Y044647D01*
X019925Y044331D01*
X020166Y044089D01*
X020483Y043959D01*
X020825Y043959D01*
X021141Y044089D01*
X021383Y044331D01*
X021514Y044647D01*
X021514Y044990D01*
X021383Y045306D01*
X021141Y045548D01*
X020825Y045679D01*
X020481Y045678D02*
X012166Y045678D01*
X012164Y045679D02*
X011822Y045679D01*
X011506Y045548D01*
X011264Y045306D01*
X011133Y044990D01*
X011133Y044647D01*
X011264Y044331D01*
X011506Y044089D01*
X011822Y043959D01*
X012164Y043959D01*
X012480Y044089D01*
X012722Y044331D01*
X012853Y044647D01*
X012853Y044990D01*
X012722Y045306D01*
X012480Y045548D01*
X012164Y045679D01*
X011820Y045678D02*
X004674Y045678D01*
X004674Y045279D02*
X004948Y045279D01*
X004937Y045264D02*
X004884Y045173D01*
X004844Y045076D01*
X004817Y044975D01*
X004803Y044871D01*
X004803Y044819D01*
X005603Y044819D01*
X005603Y045619D01*
X005551Y045619D01*
X005447Y045605D01*
X005346Y045578D01*
X005249Y045538D01*
X005158Y045485D01*
X005075Y045421D01*
X005000Y045347D01*
X004937Y045264D01*
X004805Y044881D02*
X004674Y044881D01*
X004803Y044818D02*
X004803Y044766D01*
X004817Y044662D01*
X004844Y044561D01*
X004884Y044464D01*
X004937Y044373D01*
X005000Y044290D01*
X005075Y044216D01*
X005158Y044152D01*
X005249Y044099D01*
X005346Y044059D01*
X005447Y044032D01*
X005551Y044019D01*
X005603Y044019D01*
X005603Y044818D01*
X005603Y044818D01*
X004803Y044818D01*
X004877Y044482D02*
X004674Y044482D01*
X004674Y044084D02*
X005286Y044084D01*
X005603Y044084D02*
X005603Y044084D01*
X005603Y044019D02*
X005656Y044019D01*
X005760Y044032D01*
X005861Y044059D01*
X005958Y044099D01*
X006049Y044152D01*
X006132Y044216D01*
X006206Y044290D01*
X006270Y044373D01*
X006322Y044464D01*
X006362Y044561D01*
X006390Y044662D01*
X006403Y044766D01*
X006403Y044818D01*
X005603Y044818D01*
X005603Y044819D01*
X005603Y044819D01*
X005603Y045619D01*
X005656Y045619D01*
X005760Y045605D01*
X005861Y045578D01*
X005958Y045538D01*
X006049Y045485D01*
X006132Y045421D01*
X006206Y045347D01*
X006270Y045264D01*
X006322Y045173D01*
X006362Y045076D01*
X006390Y044975D01*
X006403Y044871D01*
X006403Y044819D01*
X005603Y044819D01*
X005603Y044818D01*
X005603Y044019D01*
X005920Y044084D02*
X011519Y044084D01*
X011201Y044482D02*
X006330Y044482D01*
X006402Y044881D02*
X011133Y044881D01*
X011253Y045279D02*
X006258Y045279D01*
X005603Y045279D02*
X005603Y045279D01*
X005603Y044881D02*
X005603Y044881D01*
X005603Y044482D02*
X005603Y044482D01*
X005603Y043119D02*
X005551Y043119D01*
X005447Y043105D01*
X005346Y043078D01*
X005249Y043038D01*
X005158Y042985D01*
X005075Y042921D01*
X005000Y042847D01*
X004937Y042764D01*
X004884Y042673D01*
X004844Y042576D01*
X004817Y042475D01*
X004803Y042371D01*
X004803Y042319D01*
X005603Y042319D01*
X005603Y043119D01*
X005603Y042319D01*
X005603Y042319D01*
X005603Y042318D01*
X005603Y042318D01*
X005603Y041519D01*
X005551Y041519D01*
X005447Y041532D01*
X005346Y041559D01*
X005249Y041599D01*
X005158Y041652D01*
X005075Y041716D01*
X005000Y041790D01*
X004937Y041873D01*
X004884Y041964D01*
X004844Y042061D01*
X004817Y042162D01*
X004803Y042266D01*
X004803Y042318D01*
X005603Y042318D01*
X005603Y041519D01*
X005656Y041519D01*
X005760Y041532D01*
X005861Y041559D01*
X005958Y041599D01*
X006049Y041652D01*
X006132Y041716D01*
X006206Y041790D01*
X006270Y041873D01*
X006322Y041964D01*
X006362Y042061D01*
X006390Y042162D01*
X006403Y042266D01*
X006403Y042318D01*
X005603Y042318D01*
X005603Y042319D01*
X006403Y042319D01*
X006403Y042371D01*
X006390Y042475D01*
X006362Y042576D01*
X006322Y042673D01*
X006270Y042764D01*
X006206Y042847D01*
X006132Y042921D01*
X006049Y042985D01*
X005958Y043038D01*
X005861Y043078D01*
X005760Y043105D01*
X005656Y043119D01*
X005603Y043119D01*
X005603Y042888D02*
X005603Y042888D01*
X005603Y042490D02*
X005603Y042490D01*
X005603Y042091D02*
X005603Y042091D01*
X005603Y041693D02*
X005603Y041693D01*
X005104Y041693D02*
X004674Y041693D01*
X004674Y042091D02*
X004836Y042091D01*
X004821Y042490D02*
X004674Y042490D01*
X004674Y042888D02*
X005042Y042888D01*
X006165Y042888D02*
X011347Y042888D01*
X011264Y042806D02*
X011133Y042490D01*
X006386Y042490D01*
X006371Y042091D02*
X011156Y042091D01*
X011133Y042147D02*
X011264Y041831D01*
X011506Y041589D01*
X011822Y041459D01*
X012164Y041459D01*
X012480Y041589D01*
X012722Y041831D01*
X012853Y042147D01*
X012853Y042490D01*
X013482Y042490D01*
X013478Y042475D02*
X013464Y042371D01*
X013464Y042319D01*
X014264Y042319D01*
X014264Y042319D01*
X014264Y043119D01*
X014316Y043119D01*
X014420Y043105D01*
X014522Y043078D01*
X014618Y043038D01*
X014709Y042985D01*
X014792Y042921D01*
X014867Y042847D01*
X014930Y042764D01*
X014983Y042673D01*
X015023Y042576D01*
X015050Y042475D01*
X015064Y042371D01*
X015064Y042319D01*
X014264Y042319D01*
X014264Y043119D01*
X014211Y043119D01*
X014107Y043105D01*
X014006Y043078D01*
X013909Y043038D01*
X013818Y042985D01*
X013735Y042921D01*
X013661Y042847D01*
X013597Y042764D01*
X013545Y042673D01*
X013505Y042576D01*
X013478Y042475D01*
X013464Y042318D02*
X013464Y042266D01*
X013478Y042162D01*
X013505Y042061D01*
X013545Y041964D01*
X013597Y041873D01*
X013661Y041790D01*
X013735Y041716D01*
X013818Y041652D01*
X013909Y041599D01*
X014006Y041559D01*
X014107Y041532D01*
X014211Y041519D01*
X014264Y041519D01*
X014316Y041519D01*
X014420Y041532D01*
X014522Y041559D01*
X014618Y041599D01*
X014709Y041652D01*
X014792Y041716D01*
X014867Y041790D01*
X014930Y041873D01*
X014983Y041964D01*
X015023Y042061D01*
X015050Y042162D01*
X015064Y042266D01*
X015064Y042318D01*
X014264Y042318D01*
X014264Y041519D01*
X014264Y042318D01*
X014264Y042318D01*
X014264Y042319D01*
X014264Y042318D01*
X013464Y042318D01*
X013496Y042091D02*
X012830Y042091D01*
X012853Y042490D02*
X012722Y042806D01*
X012480Y043048D01*
X012164Y043179D01*
X011822Y043179D01*
X011506Y043048D01*
X011264Y042806D01*
X011133Y042490D02*
X011133Y042147D01*
X011402Y041693D02*
X006102Y041693D01*
X005760Y040605D02*
X005656Y040619D01*
X005603Y040619D01*
X005551Y040619D01*
X005447Y040605D01*
X005346Y040578D01*
X005249Y040538D01*
X005158Y040485D01*
X005075Y040421D01*
X005000Y040347D01*
X004937Y040264D01*
X004884Y040173D01*
X004844Y040076D01*
X004817Y039975D01*
X004803Y039871D01*
X004803Y039819D01*
X005603Y039819D01*
X005603Y040619D01*
X005603Y039819D01*
X005603Y039819D01*
X005603Y039818D01*
X005603Y039818D01*
X005603Y039019D01*
X005551Y039019D01*
X005447Y039032D01*
X005346Y039059D01*
X005249Y039099D01*
X005158Y039152D01*
X005075Y039216D01*
X005000Y039290D01*
X004937Y039373D01*
X004884Y039464D01*
X004844Y039561D01*
X004817Y039662D01*
X004803Y039766D01*
X004803Y039818D01*
X005603Y039818D01*
X005603Y039019D01*
X005656Y039019D01*
X005760Y039032D01*
X005861Y039059D01*
X005958Y039099D01*
X006049Y039152D01*
X006132Y039216D01*
X006206Y039290D01*
X006270Y039373D01*
X006322Y039464D01*
X006362Y039561D01*
X006390Y039662D01*
X006403Y039766D01*
X006403Y039818D01*
X005603Y039818D01*
X005603Y039819D01*
X006403Y039819D01*
X006403Y039871D01*
X006390Y039975D01*
X006362Y040076D01*
X006322Y040173D01*
X006270Y040264D01*
X006206Y040347D01*
X006132Y040421D01*
X006049Y040485D01*
X005958Y040538D01*
X005861Y040578D01*
X005760Y040605D01*
X005603Y040497D02*
X005603Y040497D01*
X005603Y040099D02*
X005603Y040099D01*
X005603Y039700D02*
X005603Y039700D01*
X005603Y039302D02*
X005603Y039302D01*
X004991Y039302D02*
X004674Y039302D01*
X004674Y039700D02*
X004812Y039700D01*
X004853Y040099D02*
X004674Y040099D01*
X004674Y040497D02*
X005179Y040497D01*
X004674Y040896D02*
X040344Y040896D01*
X040116Y041294D02*
X004674Y041294D01*
X006027Y040497D02*
X011456Y040497D01*
X011506Y040548D02*
X011264Y040306D01*
X011133Y039990D01*
X011133Y039647D01*
X011264Y039331D01*
X011506Y039089D01*
X011822Y038959D01*
X012164Y038959D01*
X012480Y039089D01*
X012722Y039331D01*
X012853Y039647D01*
X012853Y039990D01*
X012722Y040306D01*
X012480Y040548D01*
X012164Y040679D01*
X011822Y040679D01*
X011506Y040548D01*
X011178Y040099D02*
X006353Y040099D01*
X006395Y039700D02*
X011133Y039700D01*
X011293Y039302D02*
X006215Y039302D01*
X012530Y040497D02*
X013840Y040497D01*
X013818Y040485D02*
X013735Y040421D01*
X013661Y040347D01*
X013597Y040264D01*
X013545Y040173D01*
X013505Y040076D01*
X013478Y039975D01*
X013464Y039871D01*
X013464Y039819D01*
X014264Y039819D01*
X014264Y039819D01*
X014264Y040619D01*
X014316Y040619D01*
X014420Y040605D01*
X014522Y040578D01*
X014618Y040538D01*
X014709Y040485D01*
X014792Y040421D01*
X014867Y040347D01*
X014930Y040264D01*
X014983Y040173D01*
X015023Y040076D01*
X015050Y039975D01*
X015064Y039871D01*
X015064Y039819D01*
X014264Y039819D01*
X014264Y040619D01*
X014211Y040619D01*
X014107Y040605D01*
X014006Y040578D01*
X013909Y040538D01*
X013818Y040485D01*
X014264Y040497D02*
X014264Y040497D01*
X014264Y040099D02*
X014264Y040099D01*
X014264Y039819D02*
X014264Y039818D01*
X014264Y039019D01*
X014316Y039019D01*
X014420Y039032D01*
X014522Y039059D01*
X014618Y039099D01*
X014709Y039152D01*
X014792Y039216D01*
X014867Y039290D01*
X014930Y039373D01*
X014983Y039464D01*
X015023Y039561D01*
X015050Y039662D01*
X015064Y039766D01*
X015064Y039818D01*
X014264Y039818D01*
X014264Y039818D01*
X014264Y039819D01*
X014264Y039818D02*
X013464Y039818D01*
X013464Y039766D01*
X013478Y039662D01*
X013505Y039561D01*
X013545Y039464D01*
X013597Y039373D01*
X013661Y039290D01*
X013735Y039216D01*
X013818Y039152D01*
X013909Y039099D01*
X014006Y039059D01*
X014107Y039032D01*
X014211Y039019D01*
X014264Y039019D01*
X014264Y039818D01*
X014264Y039700D02*
X014264Y039700D01*
X014264Y039302D02*
X014264Y039302D01*
X014876Y039302D02*
X019954Y039302D01*
X019925Y039331D02*
X020166Y039089D01*
X020483Y038959D01*
X020825Y038959D01*
X021141Y039089D01*
X021383Y039331D01*
X021514Y039647D01*
X021514Y039990D01*
X021383Y040306D01*
X021141Y040548D01*
X020825Y040679D01*
X020483Y040679D01*
X020166Y040548D01*
X019925Y040306D01*
X019794Y039990D01*
X019794Y039647D01*
X019925Y039331D01*
X019794Y039700D02*
X015055Y039700D01*
X015014Y040099D02*
X019839Y040099D01*
X020116Y040497D02*
X014688Y040497D01*
X013514Y040099D02*
X012808Y040099D01*
X012853Y039700D02*
X013472Y039700D01*
X013652Y039302D02*
X012693Y039302D01*
X012584Y041693D02*
X013765Y041693D01*
X014264Y041693D02*
X014264Y041693D01*
X014264Y042091D02*
X014264Y042091D01*
X014264Y042490D02*
X014264Y042490D01*
X014264Y042888D02*
X014264Y042888D01*
X014825Y042888D02*
X020007Y042888D01*
X019925Y042806D02*
X019794Y042490D01*
X015046Y042490D01*
X015031Y042091D02*
X019817Y042091D01*
X019794Y042147D02*
X019925Y041831D01*
X020166Y041589D01*
X020483Y041459D01*
X020825Y041459D01*
X021141Y041589D01*
X021383Y041831D01*
X021514Y042147D01*
X021514Y042490D01*
X022142Y042490D01*
X022138Y042475D02*
X022124Y042371D01*
X022124Y042319D01*
X022924Y042319D01*
X022924Y043119D01*
X022872Y043119D01*
X022768Y043105D01*
X022667Y043078D01*
X022570Y043038D01*
X022479Y042985D01*
X022396Y042921D01*
X022322Y042847D01*
X022258Y042764D01*
X022205Y042673D01*
X022165Y042576D01*
X022138Y042475D01*
X022124Y042318D02*
X022124Y042266D01*
X022138Y042162D01*
X022165Y042061D01*
X022205Y041964D01*
X022258Y041873D01*
X022322Y041790D01*
X022396Y041716D01*
X022479Y041652D01*
X022570Y041599D01*
X022667Y041559D01*
X022768Y041532D01*
X022872Y041519D01*
X022924Y041519D01*
X022924Y042318D01*
X022124Y042318D01*
X022157Y042091D02*
X021490Y042091D01*
X021514Y042490D02*
X021383Y042806D01*
X021141Y043048D01*
X020825Y043179D01*
X020483Y043179D01*
X020166Y043048D01*
X019925Y042806D01*
X019794Y042490D02*
X019794Y042147D01*
X020063Y041693D02*
X014763Y041693D01*
X013702Y042888D02*
X012639Y042888D01*
X012467Y044084D02*
X013947Y044084D01*
X013909Y044099D02*
X014006Y044059D01*
X014107Y044032D01*
X014211Y044019D01*
X014264Y044019D01*
X014316Y044019D01*
X014420Y044032D01*
X014522Y044059D01*
X014618Y044099D01*
X014709Y044152D01*
X014792Y044216D01*
X014867Y044290D01*
X014930Y044373D01*
X014983Y044464D01*
X015023Y044561D01*
X015050Y044662D01*
X015064Y044766D01*
X015064Y044818D01*
X014264Y044818D01*
X014264Y044019D01*
X014264Y044818D01*
X014264Y044818D01*
X014264Y044819D01*
X014264Y044819D01*
X014264Y045619D01*
X014316Y045619D01*
X014420Y045605D01*
X014522Y045578D01*
X014618Y045538D01*
X014709Y045485D01*
X014792Y045421D01*
X014867Y045347D01*
X014930Y045264D01*
X014983Y045173D01*
X015023Y045076D01*
X015050Y044975D01*
X015064Y044871D01*
X015064Y044819D01*
X014264Y044819D01*
X014264Y045619D01*
X014211Y045619D01*
X014107Y045605D01*
X014006Y045578D01*
X013909Y045538D01*
X013818Y045485D01*
X013735Y045421D01*
X013661Y045347D01*
X013597Y045264D01*
X013545Y045173D01*
X013505Y045076D01*
X013478Y044975D01*
X013464Y044871D01*
X013464Y044819D01*
X014264Y044819D01*
X014264Y044818D01*
X013464Y044818D01*
X013464Y044766D01*
X013478Y044662D01*
X013505Y044561D01*
X013545Y044464D01*
X013597Y044373D01*
X013661Y044290D01*
X013735Y044216D01*
X013818Y044152D01*
X013909Y044099D01*
X014264Y044084D02*
X014264Y044084D01*
X014581Y044084D02*
X020180Y044084D01*
X019862Y044482D02*
X014991Y044482D01*
X015063Y044881D02*
X019794Y044881D01*
X019914Y045279D02*
X014919Y045279D01*
X014264Y045279D02*
X014264Y045279D01*
X014264Y044881D02*
X014264Y044881D01*
X014264Y044482D02*
X014264Y044482D01*
X013537Y044482D02*
X012785Y044482D01*
X012853Y044881D02*
X013465Y044881D01*
X013609Y045279D02*
X012733Y045279D01*
X021127Y044084D02*
X022608Y044084D01*
X022570Y044099D02*
X022667Y044059D01*
X022768Y044032D01*
X022872Y044019D01*
X022924Y044019D01*
X022924Y044818D01*
X022124Y044818D01*
X022124Y044766D01*
X022138Y044662D01*
X022165Y044561D01*
X022205Y044464D01*
X022258Y044373D01*
X022322Y044290D01*
X022396Y044216D01*
X022479Y044152D01*
X022570Y044099D01*
X022924Y044084D02*
X022924Y044084D01*
X022924Y044019D02*
X022977Y044019D01*
X023081Y044032D01*
X023182Y044059D01*
X023279Y044099D01*
X023370Y044152D01*
X023453Y044216D01*
X023527Y044290D01*
X023591Y044373D01*
X023644Y044464D01*
X023684Y044561D01*
X023711Y044662D01*
X023724Y044766D01*
X023724Y044818D01*
X022924Y044818D01*
X022924Y044819D01*
X022924Y045619D01*
X022872Y045619D01*
X022768Y045605D01*
X022667Y045578D01*
X022570Y045538D01*
X022479Y045485D01*
X022396Y045421D01*
X022322Y045347D01*
X022258Y045264D01*
X022205Y045173D01*
X022165Y045076D01*
X022138Y044975D01*
X022124Y044871D01*
X022124Y044819D01*
X022924Y044819D01*
X022924Y044819D01*
X022924Y045619D01*
X022977Y045619D01*
X023081Y045605D01*
X023182Y045578D01*
X023279Y045538D01*
X023370Y045485D01*
X023453Y045421D01*
X023527Y045347D01*
X023591Y045264D01*
X023644Y045173D01*
X023684Y045076D01*
X023711Y044975D01*
X023724Y044871D01*
X023724Y044819D01*
X022924Y044819D01*
X022924Y044818D02*
X022924Y044818D01*
X022924Y044019D01*
X023241Y044084D02*
X028841Y044084D01*
X028523Y044482D02*
X023651Y044482D01*
X023723Y044881D02*
X028454Y044881D01*
X028574Y045279D02*
X023579Y045279D01*
X022924Y045279D02*
X022924Y045279D01*
X022924Y044881D02*
X022924Y044881D01*
X022924Y044819D02*
X022924Y044818D01*
X022924Y044482D02*
X022924Y044482D01*
X022198Y044482D02*
X021445Y044482D01*
X021514Y044881D02*
X022126Y044881D01*
X022270Y045279D02*
X021394Y045279D01*
X022924Y043119D02*
X022924Y042319D01*
X022924Y042319D01*
X022924Y042318D01*
X022924Y042318D01*
X022924Y041519D01*
X022977Y041519D01*
X023081Y041532D01*
X023182Y041559D01*
X023279Y041599D01*
X023370Y041652D01*
X023453Y041716D01*
X023527Y041790D01*
X023591Y041873D01*
X023644Y041964D01*
X023684Y042061D01*
X023711Y042162D01*
X023724Y042266D01*
X023724Y042318D01*
X022924Y042318D01*
X022924Y042319D01*
X023724Y042319D01*
X023724Y042371D01*
X023711Y042475D01*
X023684Y042576D01*
X023644Y042673D01*
X023591Y042764D01*
X023527Y042847D01*
X023453Y042921D01*
X023370Y042985D01*
X023279Y043038D01*
X023182Y043078D01*
X023081Y043105D01*
X022977Y043119D01*
X022924Y043119D01*
X022924Y042888D02*
X022924Y042888D01*
X022924Y042490D02*
X022924Y042490D01*
X022924Y042091D02*
X022924Y042091D01*
X022924Y041693D02*
X022924Y041693D01*
X022426Y041693D02*
X021244Y041693D01*
X021300Y042888D02*
X022363Y042888D01*
X023486Y042888D02*
X028668Y042888D01*
X028585Y042806D02*
X028454Y042490D01*
X023707Y042490D01*
X023692Y042091D02*
X028477Y042091D01*
X028454Y042147D02*
X028585Y041831D01*
X028827Y041589D01*
X029143Y041459D01*
X029485Y041459D01*
X029801Y041589D01*
X030043Y041831D01*
X030174Y042147D01*
X030174Y042490D01*
X030804Y042490D01*
X030786Y042318D02*
X030786Y042266D01*
X030800Y042162D01*
X030827Y042061D01*
X030867Y041964D01*
X030919Y041873D01*
X030983Y041790D01*
X031057Y041716D01*
X031140Y041652D01*
X031231Y041599D01*
X031328Y041559D01*
X031429Y041532D01*
X031533Y041519D01*
X031586Y041519D01*
X031586Y042318D01*
X031586Y042318D01*
X031586Y042319D01*
X031586Y042318D01*
X030786Y042318D01*
X030819Y042091D02*
X030151Y042091D01*
X030174Y042490D02*
X030043Y042806D01*
X029801Y043048D01*
X029485Y043179D01*
X029143Y043179D01*
X028827Y043048D01*
X028585Y042806D01*
X028454Y042490D02*
X028454Y042147D01*
X028724Y041693D02*
X023423Y041693D01*
X023081Y040605D02*
X022977Y040619D01*
X022924Y040619D01*
X022872Y040619D01*
X022768Y040605D01*
X022667Y040578D01*
X022570Y040538D01*
X022479Y040485D01*
X022396Y040421D01*
X022322Y040347D01*
X022258Y040264D01*
X022205Y040173D01*
X022165Y040076D01*
X022138Y039975D01*
X022124Y039871D01*
X022124Y039819D01*
X022924Y039819D01*
X022924Y040619D01*
X022924Y039819D01*
X022924Y039819D01*
X022924Y039818D01*
X022124Y039818D01*
X022124Y039766D01*
X022138Y039662D01*
X022165Y039561D01*
X022205Y039464D01*
X022258Y039373D01*
X022322Y039290D01*
X022396Y039216D01*
X022479Y039152D01*
X022570Y039099D01*
X022667Y039059D01*
X022768Y039032D01*
X022872Y039019D01*
X022924Y039019D01*
X022924Y039818D01*
X022924Y039818D01*
X022924Y039019D01*
X022977Y039019D01*
X023081Y039032D01*
X023182Y039059D01*
X023279Y039099D01*
X023370Y039152D01*
X023453Y039216D01*
X023527Y039290D01*
X023591Y039373D01*
X023644Y039464D01*
X023684Y039561D01*
X023711Y039662D01*
X023724Y039766D01*
X023724Y039818D01*
X022924Y039818D01*
X022924Y039819D01*
X023724Y039819D01*
X023724Y039871D01*
X023711Y039975D01*
X023684Y040076D01*
X023644Y040173D01*
X023591Y040264D01*
X023527Y040347D01*
X023453Y040421D01*
X023370Y040485D01*
X023279Y040538D01*
X023182Y040578D01*
X023081Y040605D01*
X022924Y040497D02*
X022924Y040497D01*
X022924Y040099D02*
X022924Y040099D01*
X022924Y039700D02*
X022924Y039700D01*
X022924Y039302D02*
X022924Y039302D01*
X022313Y039302D02*
X021353Y039302D01*
X021514Y039700D02*
X022133Y039700D01*
X022175Y040099D02*
X021468Y040099D01*
X021191Y040497D02*
X022500Y040497D01*
X023349Y040497D02*
X028777Y040497D01*
X028827Y040548D02*
X028585Y040306D01*
X028454Y039990D01*
X028454Y039647D01*
X028585Y039331D01*
X028827Y039089D01*
X029143Y038959D01*
X029485Y038959D01*
X029801Y039089D01*
X030043Y039331D01*
X030174Y039647D01*
X030174Y039990D01*
X030043Y040306D01*
X029801Y040548D01*
X029485Y040679D01*
X029143Y040679D01*
X028827Y040548D01*
X028499Y040099D02*
X023674Y040099D01*
X023716Y039700D02*
X028454Y039700D01*
X028615Y039302D02*
X023536Y039302D01*
X027495Y035317D02*
X027497Y035317D01*
X028495Y035317D02*
X028497Y035317D01*
X028496Y033849D02*
X028622Y033723D01*
X028370Y033723D01*
X028496Y033849D01*
X028622Y033723D02*
X028864Y033622D01*
X029127Y033622D01*
X029370Y033723D01*
X029496Y033849D01*
X029622Y033723D01*
X029370Y033723D01*
X029622Y033723D02*
X029864Y033622D01*
X030127Y033622D01*
X030370Y033723D01*
X030496Y033849D01*
X030622Y033723D01*
X030370Y033723D01*
X030622Y033723D02*
X030864Y033622D01*
X031127Y033622D01*
X031370Y033723D01*
X031538Y033891D01*
X031605Y033825D01*
X031681Y033769D01*
X031765Y033726D01*
X031855Y033697D01*
X031949Y033682D01*
X031996Y033682D01*
X032043Y033682D01*
X032136Y033697D01*
X032226Y033726D01*
X032310Y033769D01*
X032387Y033825D01*
X032453Y033891D01*
X032496Y033950D01*
X032538Y033891D01*
X032605Y033825D01*
X032681Y033769D01*
X032765Y033726D01*
X032855Y033697D01*
X032949Y033682D01*
X032996Y033682D01*
X032996Y034582D01*
X032996Y034582D01*
X032596Y034582D01*
X031996Y034582D01*
X031996Y033682D01*
X031996Y034582D01*
X031996Y034582D01*
X031996Y034582D01*
X032996Y034582D01*
X032996Y034582D01*
X032996Y034582D01*
X032996Y035482D01*
X032949Y035482D01*
X032855Y035468D01*
X032765Y035438D01*
X032681Y035396D01*
X032605Y035340D01*
X032538Y035273D01*
X032496Y035215D01*
X032453Y035273D01*
X032387Y035340D01*
X032310Y035396D01*
X032226Y035438D01*
X032136Y035468D01*
X032043Y035482D01*
X031996Y035482D01*
X031996Y034582D01*
X031996Y034582D01*
X031996Y035482D01*
X031949Y035482D01*
X031855Y035468D01*
X031765Y035438D01*
X031681Y035396D01*
X031605Y035340D01*
X031538Y035273D01*
X031370Y035442D01*
X031127Y035542D01*
X030864Y035542D01*
X030622Y035442D01*
X030496Y035316D01*
X030467Y035344D01*
X030737Y035613D01*
X043827Y035613D01*
X043747Y035421D01*
X043747Y035199D01*
X043832Y034994D01*
X043989Y034837D01*
X044194Y034752D01*
X044416Y034752D01*
X044499Y034786D01*
X045589Y034786D01*
X046038Y034336D01*
X046200Y034269D01*
X046906Y034269D01*
X046939Y034236D01*
X047144Y034151D01*
X047366Y034151D01*
X047561Y034232D01*
X047561Y033005D01*
X047489Y032933D01*
X047365Y032809D01*
X047298Y032647D01*
X047298Y032082D01*
X047268Y032052D01*
X047183Y031847D01*
X047183Y031625D01*
X047268Y031420D01*
X047425Y031263D01*
X047630Y031178D01*
X047852Y031178D01*
X048057Y031263D01*
X047356Y031332D02*
X034556Y031332D01*
X034556Y031730D02*
X047183Y031730D01*
X047298Y032129D02*
X034556Y032129D01*
X034556Y032527D02*
X047298Y032527D01*
X047482Y032926D02*
X034556Y032926D01*
X034556Y033324D02*
X047561Y033324D01*
X047561Y033723D02*
X041342Y033723D01*
X041528Y033909D01*
X041628Y034151D01*
X041628Y035014D01*
X041528Y035256D01*
X041342Y035442D01*
X041099Y035542D01*
X040837Y035542D01*
X040594Y035442D01*
X040468Y035316D01*
X040342Y035442D01*
X040099Y035542D01*
X039837Y035542D01*
X039594Y035442D01*
X039468Y035316D01*
X039342Y035442D01*
X039099Y035542D01*
X038837Y035542D01*
X038594Y035442D01*
X038468Y035316D01*
X038342Y035442D01*
X038099Y035542D01*
X037837Y035542D01*
X037594Y035442D01*
X037468Y035316D01*
X037342Y035442D01*
X037099Y035542D01*
X036837Y035542D01*
X036594Y035442D01*
X036468Y035316D01*
X036342Y035442D01*
X036099Y035542D01*
X035837Y035542D01*
X035594Y035442D01*
X035409Y035256D01*
X035308Y035014D01*
X035308Y034151D01*
X035409Y033909D01*
X035594Y033723D01*
X035837Y033622D01*
X036099Y033622D01*
X036342Y033723D01*
X036468Y033849D01*
X036594Y033723D01*
X036837Y033622D01*
X037099Y033622D01*
X037342Y033723D01*
X037468Y033849D01*
X037594Y033723D01*
X037837Y033622D01*
X038099Y033622D01*
X038342Y033723D01*
X038468Y033849D01*
X038594Y033723D01*
X038837Y033622D01*
X039099Y033622D01*
X039342Y033723D01*
X039468Y033849D01*
X039594Y033723D01*
X039837Y033622D01*
X040099Y033622D01*
X040342Y033723D01*
X040468Y033849D01*
X040594Y033723D01*
X040837Y033622D01*
X041099Y033622D01*
X041342Y033723D01*
X041616Y034121D02*
X047561Y034121D01*
X045855Y034520D02*
X041628Y034520D01*
X041628Y034918D02*
X043908Y034918D01*
X043747Y035317D02*
X041467Y035317D01*
X040469Y035317D02*
X040467Y035317D01*
X039469Y035317D02*
X039467Y035317D01*
X038469Y035317D02*
X038467Y035317D01*
X037469Y035317D02*
X037467Y035317D01*
X036469Y035317D02*
X036467Y035317D01*
X035469Y035317D02*
X034495Y035317D01*
X034656Y034918D02*
X035308Y034918D01*
X035308Y034520D02*
X034656Y034520D01*
X034643Y034121D02*
X035320Y034121D01*
X035594Y033723D02*
X034556Y033723D01*
X033996Y034582D02*
X033996Y029942D01*
X035734Y028203D01*
X035734Y027600D01*
X036031Y027303D01*
X036294Y027347D02*
X035684Y027347D01*
X035684Y027745D02*
X036192Y027745D01*
X036294Y027643D02*
X035684Y028253D01*
X035684Y025713D01*
X035804Y025833D01*
X036294Y025833D01*
X036294Y027643D01*
X036294Y026948D02*
X035684Y026948D01*
X035684Y026550D02*
X036294Y026550D01*
X036031Y026719D02*
X035996Y026683D01*
X036294Y026151D02*
X035684Y026151D01*
X035684Y025753D02*
X035724Y025753D01*
X035684Y028144D02*
X035794Y028144D01*
X034205Y028941D02*
X004674Y028941D01*
X004674Y029339D02*
X033807Y029339D01*
X033474Y029738D02*
X004674Y029738D01*
X004674Y030136D02*
X033436Y030136D01*
X033436Y030535D02*
X004674Y030535D01*
X004674Y030933D02*
X033436Y030933D01*
X033436Y031332D02*
X004674Y031332D01*
X004674Y031730D02*
X033436Y031730D01*
X033436Y032129D02*
X004674Y032129D01*
X004674Y032527D02*
X033436Y032527D01*
X033436Y032926D02*
X004674Y032926D01*
X004674Y033324D02*
X033436Y033324D01*
X033436Y033723D02*
X033215Y033723D01*
X032996Y033723D02*
X032996Y033723D01*
X032776Y033723D02*
X032215Y033723D01*
X031996Y033723D02*
X031996Y033723D01*
X031776Y033723D02*
X031370Y033723D01*
X031996Y034121D02*
X031996Y034121D01*
X031996Y034520D02*
X031996Y034520D01*
X031996Y034918D02*
X031996Y034918D01*
X031996Y035317D02*
X031996Y035317D01*
X032410Y035317D02*
X032582Y035317D01*
X032996Y035317D02*
X032996Y035317D01*
X032996Y034918D02*
X032996Y034918D01*
X032996Y034520D02*
X032996Y034520D01*
X032996Y034121D02*
X032996Y034121D01*
X033410Y035317D02*
X033497Y035317D01*
X031582Y035317D02*
X031495Y035317D01*
X030497Y035317D02*
X030495Y035317D01*
X028370Y033723D02*
X028127Y033622D01*
X027864Y033622D01*
X027622Y033723D01*
X027370Y033723D01*
X027496Y033849D01*
X027622Y033723D01*
X027370Y033723D02*
X027127Y033622D01*
X026864Y033622D01*
X026622Y033723D01*
X030014Y039302D02*
X030974Y039302D01*
X030983Y039290D02*
X031057Y039216D01*
X031140Y039152D01*
X031231Y039099D01*
X031328Y039059D01*
X031429Y039032D01*
X031533Y039019D01*
X031586Y039019D01*
X031638Y039019D01*
X031742Y039032D01*
X031844Y039059D01*
X031940Y039099D01*
X032031Y039152D01*
X032114Y039216D01*
X032189Y039290D01*
X032252Y039373D01*
X032305Y039464D01*
X032345Y039561D01*
X032372Y039662D01*
X032386Y039766D01*
X032386Y039818D01*
X031586Y039818D01*
X031586Y039019D01*
X031586Y039818D01*
X031586Y039818D01*
X031586Y039819D01*
X031586Y039819D01*
X031586Y040619D01*
X031638Y040619D01*
X031742Y040605D01*
X031844Y040578D01*
X031940Y040538D01*
X032031Y040485D01*
X032114Y040421D01*
X032189Y040347D01*
X032252Y040264D01*
X032305Y040173D01*
X032345Y040076D01*
X032372Y039975D01*
X032386Y039871D01*
X032386Y039819D01*
X031586Y039819D01*
X031586Y040619D01*
X031533Y040619D01*
X031429Y040605D01*
X031328Y040578D01*
X031231Y040538D01*
X031140Y040485D01*
X031057Y040421D01*
X030983Y040347D01*
X030919Y040264D01*
X030867Y040173D01*
X030827Y040076D01*
X030800Y039975D01*
X030786Y039871D01*
X030786Y039819D01*
X031586Y039819D01*
X031586Y039818D01*
X030786Y039818D01*
X030786Y039766D01*
X030800Y039662D01*
X030827Y039561D01*
X030867Y039464D01*
X030919Y039373D01*
X030983Y039290D01*
X030795Y039700D02*
X030174Y039700D01*
X030129Y040099D02*
X030836Y040099D01*
X031162Y040497D02*
X029852Y040497D01*
X029905Y041693D02*
X031087Y041693D01*
X031586Y041693D02*
X031586Y041693D01*
X031586Y042091D02*
X031586Y042091D01*
X031586Y042490D02*
X031586Y042490D01*
X031586Y042888D02*
X031586Y042888D01*
X032147Y042888D02*
X037329Y042888D01*
X037116Y042490D02*
X037116Y042147D01*
X037385Y041693D02*
X032085Y041693D01*
X032010Y040497D02*
X037438Y040497D01*
X037161Y040099D02*
X032336Y040099D01*
X032377Y039700D02*
X037116Y039700D01*
X037276Y039302D02*
X032198Y039302D01*
X031586Y039302D02*
X031586Y039302D01*
X031586Y039700D02*
X031586Y039700D01*
X031586Y040099D02*
X031586Y040099D01*
X031586Y040497D02*
X031586Y040497D01*
X031024Y042888D02*
X029961Y042888D01*
X029788Y044084D02*
X031269Y044084D01*
X031231Y044099D02*
X031328Y044059D01*
X031429Y044032D01*
X031533Y044019D01*
X031586Y044019D01*
X031638Y044019D01*
X031742Y044032D01*
X031844Y044059D01*
X031940Y044099D01*
X032031Y044152D01*
X032114Y044216D01*
X032189Y044290D01*
X032252Y044373D01*
X032305Y044464D01*
X032345Y044561D01*
X032372Y044662D01*
X032386Y044766D01*
X032386Y044818D01*
X031586Y044818D01*
X031586Y044019D01*
X031586Y044818D01*
X031586Y044818D01*
X031586Y044819D01*
X031586Y044819D01*
X031586Y045619D01*
X031638Y045619D01*
X031742Y045605D01*
X031844Y045578D01*
X031940Y045538D01*
X032031Y045485D01*
X032114Y045421D01*
X032189Y045347D01*
X032252Y045264D01*
X032305Y045173D01*
X032345Y045076D01*
X032372Y044975D01*
X032386Y044871D01*
X032386Y044819D01*
X031586Y044819D01*
X031586Y045619D01*
X031533Y045619D01*
X031429Y045605D01*
X031328Y045578D01*
X031231Y045538D01*
X031140Y045485D01*
X031057Y045421D01*
X030983Y045347D01*
X030919Y045264D01*
X030867Y045173D01*
X030827Y045076D01*
X030800Y044975D01*
X030786Y044871D01*
X030786Y044819D01*
X031586Y044819D01*
X031586Y044818D01*
X030786Y044818D01*
X030786Y044766D01*
X030800Y044662D01*
X030827Y044561D01*
X030867Y044464D01*
X030919Y044373D01*
X030983Y044290D01*
X031057Y044216D01*
X031140Y044152D01*
X031231Y044099D01*
X031586Y044084D02*
X031586Y044084D01*
X031903Y044084D02*
X037502Y044084D01*
X037184Y044482D02*
X032313Y044482D01*
X032385Y044881D02*
X037116Y044881D01*
X037236Y045279D02*
X032241Y045279D01*
X031586Y045279D02*
X031586Y045279D01*
X031586Y044881D02*
X031586Y044881D01*
X031586Y044482D02*
X031586Y044482D01*
X030859Y044482D02*
X030106Y044482D01*
X030174Y044881D02*
X030787Y044881D01*
X030931Y045279D02*
X030054Y045279D01*
X038705Y042806D02*
X038836Y042490D01*
X038812Y042091D02*
X040442Y042091D01*
X040155Y041693D02*
X038566Y041693D01*
X038513Y040497D02*
X041100Y040497D01*
X041186Y040099D02*
X038790Y040099D01*
X041663Y041294D02*
X043069Y041294D01*
X043069Y041291D02*
X043187Y041006D01*
X043404Y040789D01*
X043688Y040671D01*
X043996Y040671D01*
X044280Y040789D01*
X044498Y041006D01*
X044616Y041291D01*
X044616Y041598D01*
X044498Y041883D01*
X044280Y042100D01*
X043996Y042218D01*
X043688Y042218D01*
X043404Y042100D01*
X043187Y041883D01*
X043069Y041598D01*
X043069Y041291D01*
X043108Y041693D02*
X041624Y041693D01*
X041336Y042091D02*
X043395Y042091D01*
X044289Y042091D02*
X046348Y042091D01*
X046061Y041693D02*
X044576Y041693D01*
X044616Y041294D02*
X046022Y041294D01*
X045154Y040896D02*
X044387Y040896D01*
X045037Y040497D02*
X042647Y040497D01*
X042561Y040099D02*
X045123Y040099D01*
X043297Y040896D02*
X042530Y040896D01*
X050903Y039302D02*
X051226Y039116D01*
X051585Y039019D01*
X051957Y039019D01*
X052317Y039116D01*
X052639Y039302D01*
X052980Y039700D02*
X054499Y039700D01*
X054335Y040099D02*
X053145Y040099D01*
X054840Y039302D02*
X055163Y039116D01*
X055522Y039019D01*
X055894Y039019D01*
X056254Y039116D01*
X056576Y039302D01*
X065870Y040896D02*
X066467Y040896D01*
X066467Y041294D02*
X066049Y041294D01*
X040594Y033723D02*
X040342Y033723D01*
X039594Y033723D02*
X039342Y033723D01*
X038594Y033723D02*
X038342Y033723D01*
X037594Y033723D02*
X037342Y033723D01*
X036594Y033723D02*
X036342Y033723D01*
X022879Y018181D02*
X004674Y018181D01*
X004674Y017783D02*
X022839Y017783D01*
X016644Y018512D02*
X016644Y018512D01*
X028935Y014993D02*
X028936Y014993D01*
X029393Y014993D02*
X029393Y014993D01*
X029393Y015392D02*
X029393Y015392D01*
X029393Y015685D02*
X029393Y015685D01*
X029393Y015790D02*
X029393Y015790D01*
X029393Y016189D02*
X029393Y016189D01*
X029850Y014993D02*
X029851Y014993D01*
X004674Y011008D02*
X056505Y011008D01*
X056505Y010610D02*
X004674Y010610D01*
X004674Y010211D02*
X056505Y010211D01*
X056506Y009813D02*
X004674Y009813D01*
D17*
X055256Y025449D03*
X055649Y025763D03*
X056043Y025449D03*
X056043Y026078D03*
X055649Y026315D03*
X055256Y026551D03*
X055256Y026078D03*
X056043Y026551D03*
X055649Y026826D03*
X055256Y027063D03*
X055649Y027338D03*
X055256Y027574D03*
X055649Y027811D03*
X056043Y027574D03*
X056043Y027063D03*
X056043Y028086D03*
X055649Y028362D03*
X055256Y028637D03*
X055256Y028086D03*
X056043Y028637D03*
D18*
X048464Y027663D02*
X048464Y026863D01*
X048194Y026593D01*
X047194Y026593D01*
X046854Y026253D01*
X046334Y026253D01*
X046134Y026453D01*
X046134Y027653D01*
X046224Y027743D01*
X046044Y027573D01*
X046424Y027953D01*
X048174Y027953D01*
X048464Y027663D01*
X048464Y027628D02*
X046134Y027628D01*
X046103Y027628D02*
X046100Y027628D01*
X046134Y027470D02*
X048464Y027470D01*
X048464Y027311D02*
X046134Y027311D01*
X046134Y027153D02*
X048464Y027153D01*
X048464Y026994D02*
X046134Y026994D01*
X046134Y026836D02*
X048437Y026836D01*
X048279Y026677D02*
X046134Y026677D01*
X046134Y026519D02*
X047120Y026519D01*
X046962Y026360D02*
X046227Y026360D01*
X046258Y027787D02*
X048341Y027787D01*
X048182Y027945D02*
X046417Y027945D01*
X047741Y031736D02*
X047738Y031739D01*
X047738Y032560D01*
X048001Y032823D01*
X048001Y035086D01*
X047651Y035436D01*
X047241Y035436D01*
X046624Y036053D01*
X030554Y036053D01*
X029996Y035495D01*
X029996Y034582D01*
X044305Y035310D02*
X044390Y035226D01*
X045771Y035226D01*
X046288Y034709D01*
X047255Y034709D01*
X064934Y043183D02*
X065114Y043003D01*
X065744Y043003D01*
X065934Y043193D01*
X065934Y045143D01*
X065794Y045273D01*
X065114Y045273D01*
X064934Y045093D01*
X064934Y044599D01*
X065215Y044599D01*
X065215Y044105D01*
X065375Y044105D01*
X065869Y044105D01*
X065869Y044443D01*
X065856Y044488D01*
X065833Y044529D01*
X065799Y044563D01*
X065758Y044587D01*
X065712Y044599D01*
X065375Y044599D01*
X065375Y044105D01*
X065375Y043945D01*
X065375Y043452D01*
X065712Y043452D01*
X065758Y043464D01*
X065799Y043488D01*
X065833Y043521D01*
X065856Y043562D01*
X065869Y043608D01*
X065869Y043945D01*
X065375Y043945D01*
X065215Y043945D01*
X065215Y043452D01*
X064934Y043452D01*
X064934Y043183D01*
X064956Y043161D02*
X065903Y043161D01*
X065934Y043320D02*
X064934Y043320D01*
X065215Y043478D02*
X065375Y043478D01*
X065375Y043637D02*
X065215Y043637D01*
X065215Y043795D02*
X065375Y043795D01*
X065375Y043954D02*
X065934Y043954D01*
X065934Y044112D02*
X065869Y044112D01*
X065869Y044271D02*
X065934Y044271D01*
X065934Y044429D02*
X065869Y044429D01*
X065934Y044588D02*
X065754Y044588D01*
X065934Y044746D02*
X064934Y044746D01*
X064934Y044905D02*
X065934Y044905D01*
X065934Y045063D02*
X064934Y045063D01*
X065063Y045222D02*
X065850Y045222D01*
X065375Y044588D02*
X065215Y044588D01*
X065215Y044429D02*
X065375Y044429D01*
X065375Y044271D02*
X065215Y044271D01*
X065215Y044112D02*
X065375Y044112D01*
X065869Y043795D02*
X065934Y043795D01*
X065934Y043637D02*
X065869Y043637D01*
X065934Y043478D02*
X065783Y043478D01*
X036020Y019823D02*
X036020Y019250D01*
X036014Y019823D02*
X036020Y019823D01*
X033971Y017113D02*
X033151Y017933D01*
X023381Y017933D01*
X026583Y019238D02*
X026583Y019823D01*
X026594Y019823D01*
X033971Y017113D02*
X033971Y015687D01*
X033968Y015685D01*
X017134Y019238D02*
X017134Y019823D01*
X017134Y019823D01*
X007705Y019823D02*
X007705Y019258D01*
X007684Y019823D02*
X007705Y019823D01*
D19*
X007705Y019258D02*
X007685Y019258D01*
X007685Y022583D01*
X007684Y022583D01*
X007694Y022573D01*
X007685Y022583D02*
X007685Y022683D01*
X007685Y026719D01*
X007685Y027303D01*
X007684Y027303D01*
X007685Y022683D02*
X017131Y022683D01*
X017134Y022686D01*
X017134Y026719D01*
X017134Y027303D01*
X017134Y027303D01*
X017131Y022683D02*
X017131Y019241D01*
X017134Y019238D01*
X017131Y022683D02*
X026581Y022683D01*
X026583Y022685D01*
X026583Y026719D01*
X026583Y027303D01*
X026594Y027303D01*
X026581Y022683D02*
X026581Y019240D01*
X026583Y019238D01*
X026581Y022683D02*
X035991Y022683D01*
X035991Y025927D01*
X035984Y025933D01*
X035991Y022683D02*
X035991Y019279D01*
X036020Y019250D01*
X036031Y019250D01*
X035991Y022683D02*
X045021Y022683D01*
X046423Y024086D01*
X046434Y027533D01*
M02*
