G75*
%MOIN*%
%OFA0B0*%
%FSLAX24Y24*%
%IPPOS*%
%LPD*%
%AMOC8*
5,1,8,0,0,1.08239X$1,22.5*
%
%ADD10C,0.0907*%
%ADD11C,0.0680*%
%ADD12R,0.0867X0.0867*%
%ADD13C,0.0749*%
%ADD14C,0.0828*%
%ADD15C,0.1080*%
%ADD16C,0.0476*%
%ADD17C,0.0397*%
D10*
X041874Y040460D03*
X040889Y041445D03*
X043842Y041445D03*
X045811Y040460D03*
X046795Y041445D03*
X050787Y041417D03*
X051771Y040433D03*
X053740Y041417D03*
X055708Y040433D03*
X056693Y041417D03*
X055708Y045354D03*
X051771Y045354D03*
X045811Y045382D03*
X041874Y045382D03*
D11*
X040968Y034882D02*
X040968Y034282D01*
X039968Y034282D02*
X039968Y034882D01*
X038968Y034882D02*
X038968Y034282D01*
X037968Y034282D02*
X037968Y034882D01*
X036968Y034882D02*
X036968Y034282D01*
X035968Y034282D02*
X035968Y034882D01*
X033996Y034882D02*
X033996Y034282D01*
X032996Y034282D02*
X032996Y034882D01*
X031996Y034882D02*
X031996Y034282D01*
X030996Y034282D02*
X030996Y034882D01*
X029996Y034882D02*
X029996Y034282D01*
X028996Y034282D02*
X028996Y034882D01*
X027996Y034882D02*
X027996Y034282D01*
X026996Y034282D02*
X026996Y034882D01*
X027393Y015985D02*
X027393Y015385D01*
X026393Y015385D02*
X026393Y015985D01*
X025393Y015985D02*
X025393Y015385D01*
X024393Y015385D02*
X024393Y015985D01*
X023393Y015985D02*
X023393Y015385D01*
X028393Y015385D02*
X028393Y015985D01*
X029393Y015985D02*
X029393Y015385D01*
X030393Y015385D02*
X030393Y015985D01*
X031393Y015985D02*
X031393Y015385D01*
X032393Y015385D02*
X032393Y015985D01*
X033968Y015985D02*
X033968Y015385D01*
X034968Y015385D02*
X034968Y015985D01*
X035968Y015985D02*
X035968Y015385D01*
X036968Y015385D02*
X036968Y015985D01*
X037968Y015985D02*
X037968Y015385D01*
X038968Y015385D02*
X038968Y015985D01*
X039968Y015985D02*
X039968Y015385D01*
X040968Y015385D02*
X040968Y015985D01*
D12*
X060964Y041604D03*
X060964Y044025D03*
X065295Y044025D03*
X065295Y041604D03*
D13*
X063130Y044025D03*
D14*
X063130Y042254D03*
D15*
X037976Y042319D03*
X037976Y044819D03*
X037976Y039819D03*
X031586Y039819D03*
X029314Y039819D03*
X029314Y042319D03*
X031586Y042319D03*
X031586Y044819D03*
X029314Y044819D03*
X022924Y044819D03*
X020654Y044819D03*
X020654Y042319D03*
X022924Y042319D03*
X022924Y039819D03*
X020654Y039819D03*
X014264Y039819D03*
X011993Y039819D03*
X011993Y042319D03*
X014264Y042319D03*
X014264Y044819D03*
X011993Y044819D03*
X005603Y044819D03*
X005603Y042319D03*
X005603Y039819D03*
D16*
X007705Y019258D03*
X007684Y019823D03*
X007685Y026719D03*
X007684Y027303D03*
X010563Y032409D03*
X008071Y033023D03*
X008071Y036013D03*
X016074Y036023D03*
X016074Y034023D03*
X020004Y032015D03*
X023074Y034023D03*
X023054Y036023D03*
X026081Y031023D03*
X026594Y027303D03*
X026583Y026719D03*
X031074Y033023D03*
X033074Y033023D03*
X036071Y033013D03*
X036071Y031033D03*
X036031Y027303D03*
X036031Y026719D03*
X043074Y030033D03*
X043064Y032023D03*
X043901Y034316D03*
X044305Y035310D03*
X047241Y035436D03*
X047255Y034709D03*
X047741Y031736D03*
X047514Y027523D03*
X047504Y027013D03*
X046974Y027023D03*
X046974Y027533D03*
X046434Y027533D03*
X046434Y027023D03*
X048044Y027013D03*
X048044Y027523D03*
X052649Y028379D03*
X053426Y028369D03*
X054271Y029133D03*
X054823Y029133D03*
X055374Y029133D03*
X055925Y029133D03*
X056476Y029133D03*
X057027Y029133D03*
X058278Y027721D03*
X058898Y027721D03*
X059498Y027721D03*
X060098Y027721D03*
X062314Y030793D03*
X063194Y030793D03*
X063194Y031451D03*
X063194Y032223D03*
X059484Y036813D03*
X059484Y037383D03*
X059484Y038013D03*
X065214Y043183D03*
X065714Y043183D03*
X065724Y044983D03*
X065184Y044993D03*
X057027Y024960D03*
X056476Y024960D03*
X055925Y024960D03*
X055374Y024960D03*
X054823Y024960D03*
X054271Y024960D03*
X059113Y021674D03*
X060333Y021674D03*
X061554Y021674D03*
X060255Y019863D03*
X039744Y018183D03*
X036020Y019250D03*
X036014Y019823D03*
X026594Y019823D03*
X026583Y019238D03*
X023381Y017933D03*
X017134Y019238D03*
X017134Y019823D03*
X017134Y026719D03*
X017134Y027303D03*
D17*
X055256Y027063D03*
X055649Y026826D03*
X056043Y027063D03*
X055649Y027338D03*
X055256Y027574D03*
X055649Y027811D03*
X056043Y027574D03*
X056043Y028086D03*
X055649Y028362D03*
X055256Y028637D03*
X055256Y028086D03*
X056043Y028637D03*
X056043Y026551D03*
X055649Y026315D03*
X055256Y026551D03*
X055256Y026078D03*
X055649Y025763D03*
X055256Y025449D03*
X056043Y025449D03*
X056043Y026078D03*
M02*
