%
M48
M72
T01C0.0157
T02C0.0236
T03C0.0400
T04C0.0551
T05C0.0591
T06C0.0669
T07C0.0748
%
T01
X55256Y25449
X55649Y25763
X56043Y25449
X56043Y26078
X55649Y26315
X55256Y26551
X55256Y26078
X56043Y26551
X55649Y26826
X55256Y27063
X55649Y27338
X55256Y27574
X55649Y27811
X56043Y27574
X56043Y27063
X56043Y28086
X55649Y28362
X55256Y28637
X55256Y28086
X56043Y28637
T02
X7705Y19258
X7684Y19823
X7685Y26719
X7684Y27303
X10563Y32409
X8071Y33023
X8071Y36013
X16074Y36023
X16074Y34023
X20004Y32015
X23074Y34023
X23054Y36023
X26081Y31023
X26594Y27303
X26583Y26719
X31074Y33023
X33074Y33023
X36071Y33013
X36071Y31033
X36031Y27303
X36031Y26719
X43074Y30033
X43064Y32023
X43901Y34316
X44305Y35310
X47241Y35436
X47255Y34709
X47741Y31736
X47514Y27523
X47504Y27013
X46974Y27023
X46974Y27533
X46434Y27533
X46434Y27023
X48044Y27013
X48044Y27523
X52649Y28379
X53426Y28369
X54271Y29133
X54823Y29133
X55374Y29133
X55925Y29133
X56476Y29133
X57027Y29133
X58278Y27721
X58898Y27721
X59498Y27721
X60098Y27721
X62314Y30793
X63194Y30793
X63194Y31451
X63194Y32223
X59484Y36813
X59484Y37383
X59484Y38013
X65214Y43183
X65714Y43183
X65724Y44983
X65184Y44993
X57027Y24960
X56476Y24960
X55925Y24960
X55374Y24960
X54823Y24960
X54271Y24960
X59113Y21674
X60333Y21674
X61554Y21674
X60255Y19863
X39744Y18183
X36020Y19250
X36014Y19823
X26594Y19823
X26583Y19238
X23381Y17933
X17134Y19238
X17134Y19823
X17134Y26719
X17134Y27303
T03
X26996Y34582
X27996Y34582
X28996Y34582
X29996Y34582
X30996Y34582
X31996Y34582
X32996Y34582
X33996Y34582
X35968Y34582
X36968Y34582
X37968Y34582
X38968Y34582
X39968Y34582
X40968Y34582
X40968Y15685
X39968Y15685
X38968Y15685
X37968Y15685
X36968Y15685
X35968Y15685
X34968Y15685
X33968Y15685
X32393Y15685
X31393Y15685
X30393Y15685
X29393Y15685
X28393Y15685
X27393Y15685
X26393Y15685
X25393Y15685
X24393Y15685
X23393Y15685
T04
X41874Y40460
X40889Y41445
X43842Y41445
X45811Y40460
X46795Y41445
X50787Y41417
X51771Y40433
X53740Y41417
X55708Y40433
X56693Y41417
X55708Y45354
X51771Y45354
X45811Y45382
X41874Y45382
T05
X37976Y44819
X37976Y42319
X37976Y39819
X31586Y39819
X29314Y39819
X29314Y42319
X31586Y42319
X31586Y44819
X29314Y44819
X22924Y44819
X20654Y44819
X20654Y42319
X22924Y42319
X22924Y39819
X20654Y39819
X14264Y39819
X11993Y39819
X11993Y42319
X14264Y42319
X14264Y44819
X11993Y44819
X5603Y44819
X5603Y42319
X5603Y39819
T06
X63130Y44025
T07
X63130Y42254
M30
