G75*
%MOIN*%
%OFA0B0*%
%FSLAX24Y24*%
%IPPOS*%
%LPD*%
%AMOC8*
5,1,8,0,0,1.08239X$1,22.5*
%
%ADD10C,0.0000*%
%ADD11C,0.0050*%
%ADD12C,0.0039*%
%ADD13C,0.0079*%
%ADD14C,0.0040*%
D10*
X004074Y007023D02*
X004074Y046393D01*
X067067Y046393D01*
X067067Y007023D01*
X004074Y007023D01*
X062756Y042254D02*
X062758Y042292D01*
X062764Y042331D01*
X062774Y042368D01*
X062787Y042404D01*
X062805Y042438D01*
X062825Y042471D01*
X062849Y042501D01*
X062876Y042528D01*
X062906Y042553D01*
X062937Y042575D01*
X062971Y042593D01*
X063007Y042607D01*
X063044Y042618D01*
X063082Y042625D01*
X063120Y042628D01*
X063159Y042627D01*
X063197Y042622D01*
X063235Y042613D01*
X063271Y042600D01*
X063306Y042584D01*
X063339Y042564D01*
X063370Y042541D01*
X063398Y042515D01*
X063423Y042486D01*
X063446Y042455D01*
X063465Y042421D01*
X063480Y042386D01*
X063492Y042349D01*
X063500Y042312D01*
X063504Y042273D01*
X063504Y042235D01*
X063500Y042196D01*
X063492Y042159D01*
X063480Y042122D01*
X063465Y042087D01*
X063446Y042053D01*
X063423Y042022D01*
X063398Y041993D01*
X063370Y041967D01*
X063339Y041944D01*
X063306Y041924D01*
X063271Y041908D01*
X063235Y041895D01*
X063197Y041886D01*
X063159Y041881D01*
X063120Y041880D01*
X063082Y041883D01*
X063044Y041890D01*
X063007Y041901D01*
X062971Y041915D01*
X062937Y041933D01*
X062906Y041955D01*
X062876Y041980D01*
X062849Y042007D01*
X062825Y042037D01*
X062805Y042070D01*
X062787Y042104D01*
X062774Y042140D01*
X062764Y042177D01*
X062758Y042216D01*
X062756Y042254D01*
X062795Y044025D02*
X062797Y044061D01*
X062803Y044097D01*
X062813Y044132D01*
X062826Y044166D01*
X062843Y044198D01*
X062863Y044228D01*
X062887Y044255D01*
X062913Y044280D01*
X062942Y044302D01*
X062973Y044321D01*
X063006Y044336D01*
X063040Y044348D01*
X063076Y044356D01*
X063112Y044360D01*
X063148Y044360D01*
X063184Y044356D01*
X063220Y044348D01*
X063254Y044336D01*
X063287Y044321D01*
X063318Y044302D01*
X063347Y044280D01*
X063373Y044255D01*
X063397Y044228D01*
X063417Y044198D01*
X063434Y044166D01*
X063447Y044132D01*
X063457Y044097D01*
X063463Y044061D01*
X063465Y044025D01*
X063463Y043989D01*
X063457Y043953D01*
X063447Y043918D01*
X063434Y043884D01*
X063417Y043852D01*
X063397Y043822D01*
X063373Y043795D01*
X063347Y043770D01*
X063318Y043748D01*
X063287Y043729D01*
X063254Y043714D01*
X063220Y043702D01*
X063184Y043694D01*
X063148Y043690D01*
X063112Y043690D01*
X063076Y043694D01*
X063040Y043702D01*
X063006Y043714D01*
X062973Y043729D01*
X062942Y043748D01*
X062913Y043770D01*
X062887Y043795D01*
X062863Y043822D01*
X062843Y043852D01*
X062826Y043884D01*
X062813Y043918D01*
X062803Y043953D01*
X062797Y043989D01*
X062795Y044025D01*
D11*
X057913Y046338D02*
X049567Y046338D01*
X049567Y038858D01*
X057913Y038858D01*
X057913Y046338D01*
X048015Y046366D02*
X048015Y038886D01*
X039669Y038886D01*
X039669Y046366D01*
X048015Y046366D01*
D12*
X061358Y045994D02*
X061358Y044576D01*
X061358Y045994D02*
X064862Y045994D01*
X064901Y045994D01*
X064901Y044576D01*
X064901Y041053D02*
X064901Y040206D01*
X061358Y040206D01*
X061358Y041053D01*
D13*
X060374Y043996D02*
X060374Y043996D01*
X060385Y043998D01*
X060395Y044002D01*
X060403Y044009D01*
X060409Y044019D01*
X060413Y044029D01*
X060413Y044041D01*
X060409Y044051D01*
X060403Y044061D01*
X060395Y044068D01*
X060385Y044072D01*
X060374Y044074D01*
X060374Y044074D01*
X060363Y044072D01*
X060353Y044068D01*
X060345Y044061D01*
X060339Y044051D01*
X060335Y044041D01*
X060335Y044029D01*
X060339Y044019D01*
X060345Y044009D01*
X060353Y044002D01*
X060363Y043998D01*
X060374Y043996D01*
X038363Y046393D02*
X036946Y046393D01*
X036946Y047543D01*
X032615Y047543D01*
X032615Y046393D01*
X031198Y046393D01*
X029702Y046393D02*
X028285Y046393D01*
X028285Y047543D01*
X023954Y047543D01*
X023954Y046393D01*
X022537Y046393D01*
X021041Y046393D02*
X019624Y046393D01*
X019624Y047543D01*
X015293Y047543D01*
X015293Y046393D01*
X013876Y046393D01*
X012381Y046393D02*
X010963Y046393D01*
X010963Y047543D01*
X006633Y047543D01*
X006633Y046393D01*
X005215Y046393D01*
X004834Y039794D02*
X004836Y039802D01*
X004841Y039808D01*
X004848Y039812D01*
X004856Y039812D01*
X004863Y039808D01*
X004868Y039802D01*
X004870Y039794D01*
X004868Y039786D01*
X004863Y039780D01*
X004856Y039776D01*
X004848Y039776D01*
X004841Y039780D01*
X004836Y039786D01*
X004834Y039794D01*
X005215Y039431D02*
X005215Y037098D01*
X012381Y037098D01*
X012381Y039431D01*
X013495Y039794D02*
X013497Y039802D01*
X013502Y039808D01*
X013509Y039812D01*
X013517Y039812D01*
X013524Y039808D01*
X013529Y039802D01*
X013531Y039794D01*
X013529Y039786D01*
X013524Y039780D01*
X013517Y039776D01*
X013509Y039776D01*
X013502Y039780D01*
X013497Y039786D01*
X013495Y039794D01*
X013876Y039431D02*
X013876Y037098D01*
X021041Y037098D01*
X021041Y039431D01*
X022156Y039794D02*
X022158Y039802D01*
X022163Y039808D01*
X022170Y039812D01*
X022178Y039812D01*
X022185Y039808D01*
X022190Y039802D01*
X022192Y039794D01*
X022190Y039786D01*
X022185Y039780D01*
X022178Y039776D01*
X022170Y039776D01*
X022163Y039780D01*
X022158Y039786D01*
X022156Y039794D01*
X022537Y039431D02*
X022537Y037098D01*
X029702Y037098D01*
X029702Y039431D01*
X030817Y039794D02*
X030819Y039802D01*
X030824Y039808D01*
X030831Y039812D01*
X030839Y039812D01*
X030846Y039808D01*
X030851Y039802D01*
X030853Y039794D01*
X030851Y039786D01*
X030846Y039780D01*
X030839Y039776D01*
X030831Y039776D01*
X030824Y039780D01*
X030819Y039786D01*
X030817Y039794D01*
X031198Y039431D02*
X031198Y037098D01*
X038363Y037098D01*
X038363Y039431D01*
D14*
X034099Y040631D02*
X034099Y040785D01*
X034099Y040708D02*
X033715Y040708D01*
X033639Y040631D01*
X033639Y040554D01*
X033715Y040478D01*
X033312Y040285D02*
X033312Y040131D01*
X033312Y040208D02*
X032928Y040208D01*
X032851Y040131D01*
X032851Y040055D01*
X032928Y039978D01*
X032851Y039824D02*
X033312Y039824D01*
X033158Y039671D01*
X033312Y039518D01*
X032851Y039518D01*
X032851Y039364D02*
X033312Y039364D01*
X033312Y039057D02*
X032851Y039364D01*
X032851Y039057D02*
X033312Y039057D01*
X033081Y040438D02*
X032928Y040438D01*
X032851Y040515D01*
X032851Y040669D01*
X032928Y040745D01*
X033005Y040745D01*
X033081Y040669D01*
X033081Y040438D01*
X033235Y040592D01*
X033312Y040745D01*
X033312Y040899D02*
X032851Y040899D01*
X033081Y040899D02*
X033081Y041206D01*
X032928Y041359D02*
X032851Y041436D01*
X032851Y041589D01*
X032928Y041666D01*
X032851Y041820D02*
X032851Y042050D01*
X032928Y042126D01*
X033235Y042126D01*
X033312Y042050D01*
X033312Y041820D01*
X032851Y041820D01*
X033235Y041666D02*
X033312Y041589D01*
X033312Y041436D01*
X033235Y041359D01*
X032928Y041359D01*
X032851Y041206D02*
X033312Y041206D01*
X033639Y041245D02*
X033639Y040938D01*
X033945Y041245D01*
X034022Y041245D01*
X034099Y041168D01*
X034099Y041015D01*
X034022Y040938D01*
X033235Y042280D02*
X033312Y042357D01*
X033312Y042510D01*
X033235Y042587D01*
X033158Y042587D01*
X032851Y042280D01*
X032851Y042587D01*
X025438Y041168D02*
X025361Y041245D01*
X025284Y041245D01*
X025207Y041168D01*
X025131Y041245D01*
X025054Y041245D01*
X024977Y041168D01*
X024977Y041015D01*
X025054Y040938D01*
X025207Y041092D02*
X025207Y041168D01*
X025438Y041168D02*
X025438Y041015D01*
X025361Y040938D01*
X025438Y040785D02*
X025438Y040631D01*
X025438Y040708D02*
X025054Y040708D01*
X024977Y040631D01*
X024977Y040554D01*
X025054Y040478D01*
X024690Y040667D02*
X024613Y040513D01*
X024459Y040360D01*
X024459Y040590D01*
X024383Y040667D01*
X024306Y040667D01*
X024229Y040590D01*
X024229Y040436D01*
X024306Y040360D01*
X024459Y040360D01*
X024306Y040129D02*
X024690Y040129D01*
X024690Y040053D02*
X024690Y040206D01*
X024306Y040129D02*
X024229Y040053D01*
X024229Y039976D01*
X024306Y039899D01*
X024229Y039746D02*
X024690Y039746D01*
X024536Y039592D01*
X024690Y039439D01*
X024229Y039439D01*
X024229Y039285D02*
X024690Y039285D01*
X024690Y038978D02*
X024229Y039285D01*
X024229Y038978D02*
X024690Y038978D01*
X024690Y040820D02*
X024229Y040820D01*
X024459Y040820D02*
X024459Y041127D01*
X024306Y041280D02*
X024229Y041357D01*
X024229Y041511D01*
X024306Y041587D01*
X024229Y041741D02*
X024229Y041971D01*
X024306Y042048D01*
X024613Y042048D01*
X024690Y041971D01*
X024690Y041741D01*
X024229Y041741D01*
X024613Y041587D02*
X024690Y041511D01*
X024690Y041357D01*
X024613Y041280D01*
X024306Y041280D01*
X024229Y041127D02*
X024690Y041127D01*
X024613Y042201D02*
X024690Y042278D01*
X024690Y042431D01*
X024613Y042508D01*
X024536Y042508D01*
X024229Y042201D01*
X024229Y042508D01*
X016777Y041168D02*
X016547Y040938D01*
X016547Y041245D01*
X016317Y041168D02*
X016777Y041168D01*
X016777Y040785D02*
X016777Y040631D01*
X016777Y040708D02*
X016393Y040708D01*
X016317Y040631D01*
X016317Y040554D01*
X016393Y040478D01*
X015990Y040667D02*
X015913Y040513D01*
X015759Y040360D01*
X015759Y040590D01*
X015683Y040667D01*
X015606Y040667D01*
X015529Y040590D01*
X015529Y040436D01*
X015606Y040360D01*
X015759Y040360D01*
X015606Y040129D02*
X015990Y040129D01*
X015990Y040053D02*
X015990Y040206D01*
X015606Y040129D02*
X015529Y040053D01*
X015529Y039976D01*
X015606Y039899D01*
X015529Y039746D02*
X015990Y039746D01*
X015836Y039592D01*
X015990Y039439D01*
X015529Y039439D01*
X015529Y039285D02*
X015990Y039285D01*
X015990Y038978D02*
X015529Y039285D01*
X015529Y038978D02*
X015990Y038978D01*
X015990Y040820D02*
X015529Y040820D01*
X015759Y040820D02*
X015759Y041127D01*
X015606Y041280D02*
X015529Y041357D01*
X015529Y041511D01*
X015606Y041587D01*
X015529Y041741D02*
X015529Y041971D01*
X015606Y042048D01*
X015913Y042048D01*
X015990Y041971D01*
X015990Y041741D01*
X015529Y041741D01*
X015913Y041587D02*
X015990Y041511D01*
X015990Y041357D01*
X015913Y041280D01*
X015606Y041280D01*
X015529Y041127D02*
X015990Y041127D01*
X015913Y042201D02*
X015990Y042278D01*
X015990Y042431D01*
X015913Y042508D01*
X015836Y042508D01*
X015529Y042201D01*
X015529Y042508D01*
X008116Y041245D02*
X008116Y040938D01*
X007886Y040938D01*
X007963Y041092D01*
X007963Y041168D01*
X007886Y041245D01*
X007733Y041245D01*
X007656Y041168D01*
X007656Y041015D01*
X007733Y040938D01*
X007733Y040708D02*
X008116Y040708D01*
X008116Y040631D02*
X008116Y040785D01*
X007733Y040708D02*
X007656Y040631D01*
X007656Y040554D01*
X007733Y040478D01*
X007447Y040324D02*
X007447Y040171D01*
X007447Y040248D02*
X007063Y040248D01*
X006987Y040171D01*
X006987Y040094D01*
X007063Y040017D01*
X006987Y039864D02*
X007447Y039864D01*
X007294Y039710D01*
X007447Y039557D01*
X006987Y039557D01*
X006987Y039403D02*
X007447Y039403D01*
X007447Y039097D02*
X006987Y039403D01*
X006987Y039097D02*
X007447Y039097D01*
X007217Y040478D02*
X007217Y040708D01*
X007140Y040785D01*
X007063Y040785D01*
X006987Y040708D01*
X006987Y040554D01*
X007063Y040478D01*
X007217Y040478D01*
X007370Y040631D01*
X007447Y040785D01*
X007447Y040938D02*
X006987Y040938D01*
X007217Y040938D02*
X007217Y041245D01*
X007370Y041398D02*
X007063Y041398D01*
X006987Y041475D01*
X006987Y041629D01*
X007063Y041705D01*
X006987Y041859D02*
X006987Y042089D01*
X007063Y042166D01*
X007370Y042166D01*
X007447Y042089D01*
X007447Y041859D01*
X006987Y041859D01*
X007370Y041705D02*
X007447Y041629D01*
X007447Y041475D01*
X007370Y041398D01*
X007447Y041245D02*
X006987Y041245D01*
X006987Y042319D02*
X007294Y042626D01*
X007370Y042626D01*
X007447Y042549D01*
X007447Y042396D01*
X007370Y042319D01*
X006987Y042319D02*
X006987Y042626D01*
X061758Y042536D02*
X061758Y042382D01*
X061835Y042305D01*
X061911Y042305D01*
X061988Y042382D01*
X061988Y042536D01*
X061911Y042612D01*
X061835Y042612D01*
X061758Y042536D01*
X061758Y042766D02*
X061758Y043073D01*
X061758Y042919D02*
X062218Y042919D01*
X062065Y042766D01*
X062065Y042612D02*
X061988Y042536D01*
X062065Y042612D02*
X062142Y042612D01*
X062218Y042536D01*
X062218Y042382D01*
X062142Y042305D01*
X062065Y042305D01*
X061988Y042382D01*
X061835Y042152D02*
X061758Y042075D01*
X061758Y041922D01*
X061835Y041845D01*
X062142Y042152D01*
X061835Y042152D01*
X062142Y042152D02*
X062218Y042075D01*
X062218Y041922D01*
X062142Y041845D01*
X061835Y041845D01*
X061758Y041691D02*
X061758Y041385D01*
X061758Y041538D02*
X062218Y041538D01*
X062065Y041385D01*
X061988Y041231D02*
X061988Y040924D01*
X062218Y041154D01*
X061758Y041154D01*
X061835Y040771D02*
X062142Y040771D01*
X062218Y040694D01*
X062218Y040541D01*
X062142Y040464D01*
X062065Y040464D01*
X061988Y040541D01*
X061988Y040771D01*
X061835Y040771D02*
X061758Y040694D01*
X061758Y040541D01*
X061835Y040464D01*
X061835Y040310D02*
X061911Y040310D01*
X061988Y040234D01*
X061988Y040003D01*
X061835Y040003D01*
X061758Y040080D01*
X061758Y040234D01*
X061835Y040310D01*
X062142Y040157D02*
X061988Y040003D01*
X062142Y040157D02*
X062218Y040310D01*
X063921Y042738D02*
X063844Y042815D01*
X063844Y042892D01*
X063921Y042969D01*
X064305Y042969D01*
X064305Y043045D02*
X064305Y042892D01*
X064151Y043199D02*
X064305Y043352D01*
X063844Y043352D01*
X063844Y043199D02*
X063844Y043506D01*
X062218Y043456D02*
X062142Y043533D01*
X061835Y043226D01*
X061758Y043303D01*
X061758Y043456D01*
X061835Y043533D01*
X062142Y043533D01*
X062218Y043456D02*
X062218Y043303D01*
X062142Y043226D01*
X061835Y043226D01*
X061835Y043687D02*
X061758Y043763D01*
X061758Y043917D01*
X061835Y043993D01*
X061911Y043993D01*
X061988Y043917D01*
X061988Y043687D01*
X061835Y043687D01*
X061988Y043687D02*
X062142Y043840D01*
X062218Y043993D01*
X062065Y044147D02*
X062218Y044300D01*
X061758Y044300D01*
X061758Y044147D02*
X061758Y044454D01*
X061835Y044607D02*
X062142Y044914D01*
X061835Y044914D01*
X061758Y044838D01*
X061758Y044684D01*
X061835Y044607D01*
X062142Y044607D01*
X062218Y044684D01*
X062218Y044838D01*
X062142Y044914D01*
X062142Y045068D02*
X062218Y045144D01*
X062218Y045298D01*
X062142Y045375D01*
X062065Y045375D01*
X061758Y045068D01*
X061758Y045375D01*
M02*
