G75*
%MOIN*%
%OFA0B0*%
%FSLAX24Y24*%
%IPPOS*%
%LPD*%
%AMOC8*
5,1,8,0,0,1.08239X$1,22.5*
%
%ADD10C,0.0000*%
%ADD11C,0.0060*%
%ADD12C,0.0050*%
%ADD13C,0.0040*%
%ADD14C,0.0080*%
%ADD15R,0.0266X0.0965*%
%ADD16C,0.0079*%
%ADD17C,0.0030*%
%ADD18C,0.0039*%
%ADD19R,0.1614X0.0118*%
D10*
X004074Y007023D02*
X004074Y046393D01*
X067067Y046393D01*
X067067Y007023D01*
X004074Y007023D01*
X062756Y042254D02*
X062758Y042292D01*
X062764Y042331D01*
X062774Y042368D01*
X062787Y042404D01*
X062805Y042438D01*
X062825Y042471D01*
X062849Y042501D01*
X062876Y042528D01*
X062906Y042553D01*
X062937Y042575D01*
X062971Y042593D01*
X063007Y042607D01*
X063044Y042618D01*
X063082Y042625D01*
X063120Y042628D01*
X063159Y042627D01*
X063197Y042622D01*
X063235Y042613D01*
X063271Y042600D01*
X063306Y042584D01*
X063339Y042564D01*
X063370Y042541D01*
X063398Y042515D01*
X063423Y042486D01*
X063446Y042455D01*
X063465Y042421D01*
X063480Y042386D01*
X063492Y042349D01*
X063500Y042312D01*
X063504Y042273D01*
X063504Y042235D01*
X063500Y042196D01*
X063492Y042159D01*
X063480Y042122D01*
X063465Y042087D01*
X063446Y042053D01*
X063423Y042022D01*
X063398Y041993D01*
X063370Y041967D01*
X063339Y041944D01*
X063306Y041924D01*
X063271Y041908D01*
X063235Y041895D01*
X063197Y041886D01*
X063159Y041881D01*
X063120Y041880D01*
X063082Y041883D01*
X063044Y041890D01*
X063007Y041901D01*
X062971Y041915D01*
X062937Y041933D01*
X062906Y041955D01*
X062876Y041980D01*
X062849Y042007D01*
X062825Y042037D01*
X062805Y042070D01*
X062787Y042104D01*
X062774Y042140D01*
X062764Y042177D01*
X062758Y042216D01*
X062756Y042254D01*
X062795Y044025D02*
X062797Y044061D01*
X062803Y044097D01*
X062813Y044132D01*
X062826Y044166D01*
X062843Y044198D01*
X062863Y044228D01*
X062887Y044255D01*
X062913Y044280D01*
X062942Y044302D01*
X062973Y044321D01*
X063006Y044336D01*
X063040Y044348D01*
X063076Y044356D01*
X063112Y044360D01*
X063148Y044360D01*
X063184Y044356D01*
X063220Y044348D01*
X063254Y044336D01*
X063287Y044321D01*
X063318Y044302D01*
X063347Y044280D01*
X063373Y044255D01*
X063397Y044228D01*
X063417Y044198D01*
X063434Y044166D01*
X063447Y044132D01*
X063457Y044097D01*
X063463Y044061D01*
X063465Y044025D01*
X063463Y043989D01*
X063457Y043953D01*
X063447Y043918D01*
X063434Y043884D01*
X063417Y043852D01*
X063397Y043822D01*
X063373Y043795D01*
X063347Y043770D01*
X063318Y043748D01*
X063287Y043729D01*
X063254Y043714D01*
X063220Y043702D01*
X063184Y043694D01*
X063148Y043690D01*
X063112Y043690D01*
X063076Y043694D01*
X063040Y043702D01*
X063006Y043714D01*
X062973Y043729D01*
X062942Y043748D01*
X062913Y043770D01*
X062887Y043795D01*
X062863Y043822D01*
X062843Y043852D01*
X062826Y043884D01*
X062813Y043918D01*
X062803Y043953D01*
X062797Y043989D01*
X062795Y044025D01*
D11*
X062193Y036260D02*
X061973Y036260D01*
X062193Y036260D02*
X062193Y035940D01*
X061293Y036260D02*
X061073Y036260D01*
X061073Y035940D01*
X055453Y034070D02*
X055453Y033750D01*
X055233Y033750D01*
X054553Y033750D02*
X054333Y033750D01*
X054333Y034070D01*
X052314Y035963D02*
X052314Y032140D01*
X049810Y032140D01*
X049810Y035963D01*
X051914Y035963D01*
X051914Y032140D01*
X051914Y035963D02*
X052314Y035963D01*
X041468Y034832D02*
X041468Y034332D01*
X041218Y034082D01*
X040718Y034082D01*
X040468Y034332D01*
X040218Y034082D01*
X039718Y034082D01*
X039468Y034332D01*
X039218Y034082D01*
X038718Y034082D01*
X038468Y034332D01*
X038218Y034082D01*
X037718Y034082D01*
X037468Y034332D01*
X037218Y034082D01*
X036718Y034082D01*
X036468Y034332D01*
X036218Y034082D01*
X035718Y034082D01*
X035468Y034332D01*
X035468Y034832D01*
X035718Y035082D01*
X036218Y035082D01*
X036468Y034832D01*
X036718Y035082D01*
X037218Y035082D01*
X037468Y034832D01*
X037468Y034332D01*
X037468Y034832D02*
X037718Y035082D01*
X038218Y035082D01*
X038468Y034832D01*
X038718Y035082D01*
X039218Y035082D01*
X039468Y034832D01*
X039718Y035082D01*
X040218Y035082D01*
X040468Y034832D01*
X040718Y035082D01*
X041218Y035082D01*
X041468Y034832D01*
X040468Y034832D02*
X040468Y034332D01*
X039468Y034332D02*
X039468Y034832D01*
X038468Y034832D02*
X038468Y034332D01*
X036468Y034332D02*
X036468Y034832D01*
X034496Y034832D02*
X034496Y034332D01*
X034246Y034082D01*
X033746Y034082D01*
X033496Y034332D01*
X033246Y034082D01*
X032746Y034082D01*
X032496Y034332D01*
X032246Y034082D01*
X031746Y034082D01*
X031496Y034332D01*
X031246Y034082D01*
X030746Y034082D01*
X030496Y034332D01*
X030246Y034082D01*
X029746Y034082D01*
X029496Y034332D01*
X029246Y034082D01*
X028746Y034082D01*
X028496Y034332D01*
X028246Y034082D01*
X027746Y034082D01*
X027496Y034332D01*
X027246Y034082D01*
X026746Y034082D01*
X026496Y034332D01*
X026496Y034832D01*
X026746Y035082D01*
X027246Y035082D01*
X027496Y034832D01*
X027746Y035082D01*
X028246Y035082D01*
X028496Y034832D01*
X028496Y034332D01*
X028496Y034832D02*
X028746Y035082D01*
X029246Y035082D01*
X029496Y034832D01*
X029746Y035082D01*
X030246Y035082D01*
X030496Y034832D01*
X030746Y035082D01*
X031246Y035082D01*
X031496Y034832D01*
X031496Y034332D01*
X031496Y034832D02*
X031746Y035082D01*
X032246Y035082D01*
X032496Y034832D01*
X032746Y035082D01*
X033246Y035082D01*
X033496Y034832D01*
X033746Y035082D01*
X034246Y035082D01*
X034496Y034832D01*
X033496Y034832D02*
X033496Y034332D01*
X032496Y034332D02*
X032496Y034832D01*
X030496Y034832D02*
X030496Y034332D01*
X029496Y034332D02*
X029496Y034832D01*
X027496Y034832D02*
X027496Y034332D01*
X027643Y016185D02*
X027893Y015935D01*
X027893Y015435D01*
X027643Y015185D01*
X027143Y015185D01*
X026893Y015435D01*
X026643Y015185D01*
X026143Y015185D01*
X025893Y015435D01*
X025643Y015185D01*
X025143Y015185D01*
X024893Y015435D01*
X024643Y015185D01*
X024143Y015185D01*
X023893Y015435D01*
X023643Y015185D01*
X023143Y015185D01*
X022893Y015435D01*
X022893Y015935D01*
X023143Y016185D01*
X023643Y016185D01*
X023893Y015935D01*
X024143Y016185D01*
X024643Y016185D01*
X024893Y015935D01*
X024893Y015435D01*
X024893Y015935D02*
X025143Y016185D01*
X025643Y016185D01*
X025893Y015935D01*
X026143Y016185D01*
X026643Y016185D01*
X026893Y015935D01*
X027143Y016185D01*
X027643Y016185D01*
X027893Y015935D02*
X028143Y016185D01*
X028643Y016185D01*
X028893Y015935D01*
X029143Y016185D01*
X029643Y016185D01*
X029893Y015935D01*
X030143Y016185D01*
X030643Y016185D01*
X030893Y015935D01*
X030893Y015435D01*
X030643Y015185D01*
X030143Y015185D01*
X029893Y015435D01*
X029643Y015185D01*
X029143Y015185D01*
X028893Y015435D01*
X028643Y015185D01*
X028143Y015185D01*
X027893Y015435D01*
X028893Y015435D02*
X028893Y015935D01*
X029893Y015935D02*
X029893Y015435D01*
X030893Y015435D02*
X031143Y015185D01*
X031643Y015185D01*
X031893Y015435D01*
X032143Y015185D01*
X032643Y015185D01*
X032893Y015435D01*
X032893Y015935D01*
X032643Y016185D01*
X032143Y016185D01*
X031893Y015935D01*
X031893Y015435D01*
X031893Y015935D02*
X031643Y016185D01*
X031143Y016185D01*
X030893Y015935D01*
X033468Y015935D02*
X033468Y015435D01*
X033718Y015185D01*
X034218Y015185D01*
X034468Y015435D01*
X034718Y015185D01*
X035218Y015185D01*
X035468Y015435D01*
X035468Y015935D01*
X035218Y016185D01*
X034718Y016185D01*
X034468Y015935D01*
X034468Y015435D01*
X034468Y015935D02*
X034218Y016185D01*
X033718Y016185D01*
X033468Y015935D01*
X035468Y015935D02*
X035718Y016185D01*
X036218Y016185D01*
X036468Y015935D01*
X036718Y016185D01*
X037218Y016185D01*
X037468Y015935D01*
X037718Y016185D01*
X038218Y016185D01*
X038468Y015935D01*
X038468Y015435D01*
X038218Y015185D01*
X037718Y015185D01*
X037468Y015435D01*
X037218Y015185D01*
X036718Y015185D01*
X036468Y015435D01*
X036218Y015185D01*
X035718Y015185D01*
X035468Y015435D01*
X036468Y015435D02*
X036468Y015935D01*
X037468Y015935D02*
X037468Y015435D01*
X038468Y015435D02*
X038718Y015185D01*
X039218Y015185D01*
X039468Y015435D01*
X039718Y015185D01*
X040218Y015185D01*
X040468Y015435D01*
X040718Y015185D01*
X041218Y015185D01*
X041468Y015435D01*
X041468Y015935D01*
X041218Y016185D01*
X040718Y016185D01*
X040468Y015935D01*
X040468Y015435D01*
X040468Y015935D02*
X040218Y016185D01*
X039718Y016185D01*
X039468Y015935D01*
X039468Y015435D01*
X039468Y015935D02*
X039218Y016185D01*
X038718Y016185D01*
X038468Y015935D01*
X026893Y015935D02*
X026893Y015435D01*
X025893Y015435D02*
X025893Y015935D01*
X023893Y015935D02*
X023893Y015435D01*
D12*
X023849Y014793D02*
X023849Y014568D01*
X023999Y014643D01*
X024074Y014643D01*
X024149Y014568D01*
X024149Y014418D01*
X024074Y014343D01*
X023924Y014343D01*
X023849Y014418D01*
X023688Y014343D02*
X023688Y014793D01*
X023849Y014793D02*
X024149Y014793D01*
X023688Y014343D02*
X023388Y014793D01*
X023388Y014343D01*
X023228Y014418D02*
X023153Y014343D01*
X023003Y014343D01*
X022928Y014418D01*
X022928Y014718D01*
X023003Y014793D01*
X023153Y014793D01*
X023228Y014718D01*
X033621Y014758D02*
X033621Y014458D01*
X033696Y014382D01*
X033846Y014382D01*
X033921Y014458D01*
X034081Y014382D02*
X034081Y014833D01*
X034381Y014382D01*
X034381Y014833D01*
X034541Y014833D02*
X034842Y014833D01*
X034842Y014758D01*
X034541Y014458D01*
X034541Y014382D01*
X033921Y014758D02*
X033846Y014833D01*
X033696Y014833D01*
X033621Y014758D01*
X035538Y035327D02*
X035688Y035327D01*
X035763Y035402D01*
X035924Y035327D02*
X035924Y035778D01*
X036224Y035327D01*
X036224Y035778D01*
X036384Y035703D02*
X036384Y035628D01*
X036459Y035553D01*
X036609Y035553D01*
X036684Y035477D01*
X036684Y035402D01*
X036609Y035327D01*
X036459Y035327D01*
X036384Y035402D01*
X036384Y035477D01*
X036459Y035553D01*
X036609Y035553D02*
X036684Y035628D01*
X036684Y035703D01*
X036609Y035778D01*
X036459Y035778D01*
X036384Y035703D01*
X035763Y035703D02*
X035688Y035778D01*
X035538Y035778D01*
X035463Y035703D01*
X035463Y035402D01*
X035538Y035327D01*
X027712Y035402D02*
X027712Y035477D01*
X027637Y035553D01*
X027412Y035553D01*
X027412Y035402D01*
X027487Y035327D01*
X027637Y035327D01*
X027712Y035402D01*
X027412Y035553D02*
X027562Y035703D01*
X027712Y035778D01*
X027251Y035778D02*
X027251Y035327D01*
X026951Y035778D01*
X026951Y035327D01*
X026791Y035402D02*
X026716Y035327D01*
X026566Y035327D01*
X026491Y035402D01*
X026491Y035703D01*
X026566Y035778D01*
X026716Y035778D01*
X026791Y035703D01*
X049575Y036152D02*
X049650Y036076D01*
X049800Y036076D01*
X049875Y036152D01*
X049875Y036227D01*
X049800Y036302D01*
X049575Y036302D01*
X049575Y036152D01*
X049575Y036302D02*
X049725Y036452D01*
X049875Y036527D01*
X050035Y036527D02*
X050335Y036076D01*
X050335Y036527D01*
X050496Y036377D02*
X050646Y036527D01*
X050646Y036076D01*
X050496Y036076D02*
X050796Y036076D01*
X050956Y036152D02*
X051031Y036076D01*
X051181Y036076D01*
X051256Y036152D01*
X051256Y036227D01*
X051181Y036302D01*
X051106Y036302D01*
X051181Y036302D02*
X051256Y036377D01*
X051256Y036452D01*
X051181Y036527D01*
X051031Y036527D01*
X050956Y036452D01*
X051416Y036452D02*
X051416Y036377D01*
X051491Y036302D01*
X051642Y036302D01*
X051717Y036227D01*
X051717Y036152D01*
X051642Y036076D01*
X051491Y036076D01*
X051416Y036152D01*
X051416Y036227D01*
X051491Y036302D01*
X051642Y036302D02*
X051717Y036377D01*
X051717Y036452D01*
X051642Y036527D01*
X051491Y036527D01*
X051416Y036452D01*
X051877Y036452D02*
X051877Y036377D01*
X051952Y036302D01*
X052102Y036302D01*
X052177Y036227D01*
X052177Y036152D01*
X052102Y036076D01*
X051952Y036076D01*
X051877Y036152D01*
X051877Y036452D02*
X051952Y036527D01*
X052102Y036527D01*
X052177Y036452D01*
X050035Y036527D02*
X050035Y036076D01*
D13*
X048137Y036223D02*
X048137Y035763D01*
X047983Y035916D01*
X047830Y035763D01*
X047830Y036223D01*
X047676Y036146D02*
X047600Y036223D01*
X047446Y036223D01*
X047369Y036146D01*
X047369Y035839D01*
X047446Y035763D01*
X047600Y035763D01*
X047676Y035839D01*
X047676Y035993D01*
X047523Y035993D01*
X047216Y035993D02*
X046909Y035993D01*
X047139Y036223D01*
X047139Y035763D01*
X046756Y035839D02*
X046679Y035763D01*
X046525Y035763D01*
X046449Y035839D01*
X046756Y036146D01*
X046756Y035839D01*
X046756Y036146D02*
X046679Y036223D01*
X046525Y036223D01*
X046449Y036146D01*
X046449Y035839D01*
X046295Y035839D02*
X046295Y035993D01*
X046142Y035993D01*
X046295Y036146D02*
X046218Y036223D01*
X046065Y036223D01*
X045988Y036146D01*
X045988Y035839D01*
X046065Y035763D01*
X046218Y035763D01*
X046295Y035839D01*
X045835Y035763D02*
X045528Y035763D01*
X045835Y036070D01*
X045835Y036146D01*
X045758Y036223D01*
X045605Y036223D01*
X045528Y036146D01*
X045374Y036146D02*
X045298Y036223D01*
X045144Y036223D01*
X045068Y036146D01*
X045068Y035839D01*
X045144Y035763D01*
X045298Y035763D01*
X045374Y035839D01*
X044914Y035916D02*
X044761Y035763D01*
X044607Y035916D01*
X044607Y036223D01*
X044914Y036223D02*
X044914Y035916D01*
X044454Y035763D02*
X044147Y035763D01*
X044147Y036223D01*
X043917Y036223D02*
X043686Y035993D01*
X043993Y035993D01*
X043917Y035763D02*
X043917Y036223D01*
X043533Y036223D02*
X043533Y036146D01*
X043226Y035839D01*
X043226Y035763D01*
X043226Y036223D02*
X043533Y036223D01*
X043476Y034024D02*
X043706Y034024D01*
X043783Y033947D01*
X043783Y033794D01*
X043706Y033717D01*
X043476Y033717D01*
X043629Y033717D02*
X043783Y033564D01*
X043936Y033564D02*
X044243Y033870D01*
X044243Y033947D01*
X044166Y034024D01*
X044013Y034024D01*
X043936Y033947D01*
X043936Y033564D02*
X044243Y033564D01*
X043476Y033564D02*
X043476Y034024D01*
X045932Y034030D02*
X046085Y034030D01*
X046008Y034030D02*
X046008Y034491D01*
X045932Y034491D02*
X046085Y034491D01*
X046239Y034414D02*
X046239Y034107D01*
X046315Y034030D01*
X046469Y034030D01*
X046545Y034107D01*
X046699Y034107D02*
X046776Y034030D01*
X046929Y034030D01*
X047006Y034107D01*
X047006Y034184D01*
X046929Y034261D01*
X046852Y034261D01*
X046929Y034261D02*
X047006Y034337D01*
X047006Y034414D01*
X046929Y034491D01*
X046776Y034491D01*
X046699Y034414D01*
X046545Y034414D02*
X046469Y034491D01*
X046315Y034491D01*
X046239Y034414D01*
X046809Y032381D02*
X047116Y032074D01*
X047193Y032151D01*
X047193Y032304D01*
X047116Y032381D01*
X046809Y032381D01*
X046732Y032304D01*
X046732Y032151D01*
X046809Y032074D01*
X047116Y032074D01*
X047193Y031920D02*
X047193Y031613D01*
X046886Y031920D01*
X046809Y031920D01*
X046732Y031844D01*
X046732Y031690D01*
X046809Y031613D01*
X046809Y031460D02*
X046732Y031383D01*
X046732Y031230D01*
X046809Y031153D01*
X046539Y031299D02*
X046079Y031299D01*
X046079Y031529D01*
X046155Y031605D01*
X046309Y031605D01*
X046385Y031529D01*
X046385Y031299D01*
X046385Y031452D02*
X046539Y031605D01*
X046462Y031759D02*
X046539Y031836D01*
X046539Y031989D01*
X046462Y032066D01*
X046309Y032066D01*
X046232Y031989D01*
X046232Y031912D01*
X046309Y031759D01*
X046079Y031759D01*
X046079Y032066D01*
X046809Y031460D02*
X046886Y031460D01*
X047193Y031153D01*
X047193Y031460D01*
X047583Y031157D02*
X047660Y031233D01*
X047737Y031233D01*
X047813Y031157D01*
X047890Y031233D01*
X047967Y031233D01*
X048044Y031157D01*
X048044Y031003D01*
X047967Y030926D01*
X048044Y030773D02*
X047890Y030620D01*
X047890Y030696D02*
X047890Y030466D01*
X048044Y030466D02*
X047583Y030466D01*
X047583Y030696D01*
X047660Y030773D01*
X047813Y030773D01*
X047890Y030696D01*
X047660Y030926D02*
X047583Y031003D01*
X047583Y031157D01*
X047813Y031157D02*
X047813Y031080D01*
X048268Y031005D02*
X048268Y031312D01*
X048345Y031312D01*
X048652Y031005D01*
X048729Y031005D01*
X048729Y030775D02*
X048268Y030775D01*
X048498Y030545D01*
X048498Y030852D01*
X048345Y031466D02*
X048268Y031542D01*
X048268Y031696D01*
X048345Y031773D01*
X048422Y031773D01*
X048729Y031466D01*
X048729Y031773D01*
X048732Y029612D02*
X048809Y029535D01*
X048809Y029381D01*
X048732Y029305D01*
X048502Y029305D01*
X048655Y029305D02*
X048809Y029151D01*
X048962Y029151D02*
X049269Y029151D01*
X049423Y029228D02*
X049499Y029151D01*
X049653Y029151D01*
X049730Y029228D01*
X049730Y029381D01*
X049576Y029381D01*
X049437Y029425D02*
X049744Y029425D01*
X049730Y029535D02*
X049653Y029612D01*
X049499Y029612D01*
X049423Y029535D01*
X049423Y029228D01*
X049437Y029425D02*
X049668Y029655D01*
X049668Y029195D01*
X049898Y029195D02*
X049975Y029195D01*
X049975Y029271D01*
X049898Y029271D01*
X049898Y029195D01*
X050128Y029195D02*
X050128Y029271D01*
X050435Y029578D01*
X050435Y029655D01*
X050128Y029655D01*
X049269Y029612D02*
X048962Y029612D01*
X048962Y029151D01*
X048962Y029381D02*
X049116Y029381D01*
X048732Y029612D02*
X048502Y029612D01*
X048502Y029151D01*
X048348Y029075D02*
X048041Y029075D01*
X047888Y029228D02*
X047811Y029151D01*
X047658Y029151D01*
X047581Y029228D01*
X047581Y029535D01*
X047658Y029612D01*
X047811Y029612D01*
X047888Y029535D01*
X049174Y028625D02*
X049174Y028165D01*
X049174Y028318D02*
X049404Y028318D01*
X049481Y028395D01*
X049481Y028548D01*
X049404Y028625D01*
X049174Y028625D01*
X049328Y028318D02*
X049481Y028165D01*
X049635Y028165D02*
X049941Y028165D01*
X049788Y028165D02*
X049788Y028625D01*
X049635Y028471D01*
X050095Y028395D02*
X050325Y028395D01*
X050402Y028318D01*
X050402Y028241D01*
X050325Y028165D01*
X050172Y028165D01*
X050095Y028241D01*
X050095Y028395D01*
X050248Y028548D01*
X050402Y028625D01*
X051049Y029041D02*
X051126Y029118D01*
X051126Y029271D01*
X051202Y029195D01*
X051279Y029195D01*
X051356Y029271D01*
X051356Y029425D01*
X051509Y029425D02*
X051663Y029425D01*
X051509Y029655D02*
X051816Y029655D01*
X051509Y029655D02*
X051509Y029195D01*
X051126Y029271D02*
X051126Y029425D01*
X051258Y027421D02*
X051258Y027114D01*
X051489Y027114D01*
X051412Y027268D01*
X051412Y027345D01*
X051489Y027421D01*
X051642Y027421D01*
X051719Y027345D01*
X051719Y027191D01*
X051642Y027114D01*
X051719Y026961D02*
X051719Y026654D01*
X051719Y026501D02*
X051565Y026347D01*
X051565Y026424D02*
X051565Y026194D01*
X051719Y026194D02*
X051258Y026194D01*
X051258Y026424D01*
X051335Y026501D01*
X051489Y026501D01*
X051565Y026424D01*
X051412Y026654D02*
X051258Y026808D01*
X051719Y026808D01*
X052390Y027058D02*
X052390Y027288D01*
X052467Y027365D01*
X052620Y027365D01*
X052697Y027288D01*
X052697Y027058D01*
X052851Y027058D02*
X052390Y027058D01*
X052467Y027518D02*
X052774Y027518D01*
X052851Y027595D01*
X052851Y027748D01*
X052774Y027825D01*
X052620Y027825D01*
X052620Y027672D01*
X052467Y027825D02*
X052390Y027748D01*
X052390Y027595D01*
X052467Y027518D01*
X052927Y026904D02*
X052927Y026597D01*
X052851Y026444D02*
X052697Y026290D01*
X052697Y026367D02*
X052697Y026137D01*
X052851Y026137D02*
X052390Y026137D01*
X052390Y026367D01*
X052467Y026444D01*
X052620Y026444D01*
X052697Y026367D01*
X050317Y026314D02*
X050317Y026237D01*
X050240Y026160D01*
X050087Y026160D01*
X050010Y026237D01*
X049856Y026160D02*
X049856Y026621D01*
X050010Y026544D02*
X050010Y026467D01*
X050087Y026391D01*
X050240Y026391D01*
X050317Y026314D01*
X050317Y026544D02*
X050240Y026621D01*
X050087Y026621D01*
X050010Y026544D01*
X049856Y026160D02*
X049549Y026621D01*
X049549Y026160D01*
X049396Y026160D02*
X049089Y026160D01*
X049089Y026621D01*
X049396Y026621D01*
X049243Y026391D02*
X049089Y026391D01*
X048936Y026314D02*
X048936Y026237D01*
X048859Y026160D01*
X048705Y026160D01*
X048629Y026237D01*
X048705Y026391D02*
X048859Y026391D01*
X048936Y026314D01*
X048936Y026544D02*
X048859Y026621D01*
X048705Y026621D01*
X048629Y026544D01*
X048629Y026467D01*
X048705Y026391D01*
X048475Y026084D02*
X048168Y026084D01*
X048015Y026237D02*
X047938Y026160D01*
X047785Y026160D01*
X047708Y026237D01*
X047708Y026544D01*
X047785Y026621D01*
X047938Y026621D01*
X048015Y026544D01*
X049121Y023808D02*
X049582Y023808D01*
X049582Y023655D02*
X049582Y023962D01*
X049275Y023655D02*
X049121Y023808D01*
X049198Y023501D02*
X049121Y023425D01*
X049121Y023271D01*
X049198Y023194D01*
X049505Y023194D01*
X049582Y023271D01*
X049582Y023425D01*
X049505Y023501D01*
X051782Y023430D02*
X051782Y023124D01*
X051782Y023277D02*
X052243Y023277D01*
X052243Y023584D02*
X051936Y023891D01*
X051859Y023891D01*
X051782Y023814D01*
X051782Y023661D01*
X051859Y023584D01*
X052243Y023584D02*
X052243Y023891D01*
X052166Y022970D02*
X052243Y022893D01*
X052243Y022740D01*
X052166Y022663D01*
X052166Y022510D02*
X052243Y022433D01*
X052243Y022203D01*
X051782Y022203D01*
X051782Y022433D01*
X051859Y022510D01*
X051936Y022510D01*
X052013Y022433D01*
X052013Y022203D01*
X052013Y022433D02*
X052089Y022510D01*
X052166Y022510D01*
X052013Y022740D02*
X052013Y022893D01*
X052089Y022970D01*
X052166Y022970D01*
X052013Y022740D02*
X051936Y022663D01*
X051859Y022663D01*
X051782Y022740D01*
X051782Y022893D01*
X051859Y022970D01*
X052320Y022049D02*
X052320Y021742D01*
X052166Y021589D02*
X052243Y021512D01*
X052243Y021359D01*
X052166Y021282D01*
X051859Y021282D01*
X051782Y021359D01*
X051782Y021512D01*
X051859Y021589D01*
X054385Y020306D02*
X054385Y019846D01*
X054692Y019846D01*
X054845Y019846D02*
X055152Y019846D01*
X054999Y019846D02*
X054999Y020306D01*
X054845Y020153D01*
X055384Y020076D02*
X055691Y020076D01*
X055845Y019922D02*
X055921Y019922D01*
X055921Y019846D01*
X055845Y019846D01*
X055845Y019922D01*
X056075Y019922D02*
X056075Y019846D01*
X056075Y019922D02*
X056382Y020229D01*
X056382Y020306D01*
X056075Y020306D01*
X055615Y020306D02*
X055384Y020076D01*
X055615Y019846D02*
X055615Y020306D01*
X056612Y020076D02*
X056612Y019922D01*
X056612Y019769D01*
X056535Y019692D01*
X056689Y019846D02*
X056766Y019846D01*
X056842Y019922D01*
X056842Y020076D01*
X056996Y020076D02*
X057303Y020076D01*
X057303Y020306D02*
X057303Y019846D01*
X056996Y019846D02*
X056996Y020306D01*
X056612Y019922D02*
X056689Y019846D01*
X055949Y023989D02*
X055642Y023989D01*
X055488Y024143D02*
X055412Y024066D01*
X055258Y024066D01*
X055181Y024143D01*
X055181Y024450D01*
X055258Y024526D01*
X055412Y024526D01*
X055488Y024450D01*
X056102Y024526D02*
X056102Y024066D01*
X056332Y024066D01*
X056409Y024143D01*
X056409Y024219D01*
X056332Y024296D01*
X056102Y024296D01*
X056102Y024526D02*
X056332Y024526D01*
X056409Y024450D01*
X056409Y024373D01*
X056332Y024296D01*
X056563Y024373D02*
X056639Y024296D01*
X056793Y024296D01*
X056869Y024219D01*
X056869Y024143D01*
X056793Y024066D01*
X056639Y024066D01*
X056563Y024143D01*
X056563Y024373D02*
X056563Y024450D01*
X056639Y024526D01*
X056793Y024526D01*
X056869Y024450D01*
X057023Y024526D02*
X057330Y024526D01*
X057176Y024526D02*
X057176Y024066D01*
X057483Y024066D02*
X057790Y024066D01*
X057637Y024066D02*
X057637Y024526D01*
X057483Y024373D01*
X061865Y024449D02*
X062325Y024756D01*
X061865Y024756D01*
X061865Y024449D02*
X062325Y024449D01*
X062325Y024296D02*
X062325Y024142D01*
X062325Y024219D02*
X061865Y024219D01*
X061865Y024142D02*
X061865Y024296D01*
X062402Y023989D02*
X062402Y023682D01*
X062248Y023529D02*
X062325Y023452D01*
X062325Y023298D01*
X062248Y023222D01*
X061941Y023222D01*
X061865Y023298D01*
X061865Y023452D01*
X061941Y023529D01*
X062776Y023401D02*
X063237Y023401D01*
X063237Y023554D02*
X063237Y023247D01*
X062930Y023247D02*
X062776Y023401D01*
X062853Y023708D02*
X062776Y023784D01*
X062776Y023938D01*
X062853Y024015D01*
X063160Y023708D01*
X063237Y023784D01*
X063237Y023938D01*
X063160Y024015D01*
X062853Y024015D01*
X063006Y024245D02*
X063160Y024245D01*
X063313Y024245D01*
X063390Y024168D01*
X063237Y024321D02*
X063160Y024245D01*
X063237Y024321D02*
X063237Y024398D01*
X063160Y024475D01*
X063006Y024475D01*
X063006Y024628D02*
X063006Y024782D01*
X062776Y024628D02*
X062776Y024935D01*
X062776Y024628D02*
X063237Y024628D01*
X063160Y023708D02*
X062853Y023708D01*
X063006Y025549D02*
X063006Y025856D01*
X062853Y026010D02*
X062776Y026086D01*
X062776Y026240D01*
X062853Y026317D01*
X063160Y026010D01*
X063237Y026086D01*
X063237Y026240D01*
X063160Y026317D01*
X062853Y026317D01*
X062776Y026470D02*
X063083Y026470D01*
X063237Y026623D01*
X063083Y026777D01*
X062776Y026777D01*
X062853Y026010D02*
X063160Y026010D01*
X063237Y025779D02*
X062776Y025779D01*
X063006Y025549D01*
X059898Y029717D02*
X059438Y029717D01*
X059438Y029947D01*
X059514Y030024D01*
X059668Y030024D01*
X059745Y029947D01*
X059745Y029717D01*
X059745Y029871D02*
X059898Y030024D01*
X059975Y030177D02*
X059975Y030484D01*
X059898Y030638D02*
X059438Y030638D01*
X059438Y030868D01*
X059514Y030945D01*
X059668Y030945D01*
X059745Y030868D01*
X059745Y030638D01*
X059898Y031098D02*
X059745Y031252D01*
X059898Y031405D01*
X059438Y031405D01*
X059438Y031559D02*
X059438Y031789D01*
X059514Y031866D01*
X059668Y031866D01*
X059745Y031789D01*
X059745Y031559D01*
X059898Y031559D02*
X059438Y031559D01*
X059745Y031712D02*
X059898Y031866D01*
X059898Y032019D02*
X059898Y032326D01*
X059975Y032479D02*
X059975Y032786D01*
X059821Y032940D02*
X059898Y033017D01*
X059898Y033170D01*
X059821Y033247D01*
X059438Y033247D01*
X059438Y033400D02*
X059438Y033630D01*
X059514Y033707D01*
X059668Y033707D01*
X059745Y033630D01*
X059745Y033400D01*
X059898Y033400D02*
X059438Y033400D01*
X059438Y032940D02*
X059821Y032940D01*
X060294Y033090D02*
X060371Y033013D01*
X060448Y033013D01*
X060524Y033090D01*
X060524Y033243D01*
X060601Y033320D01*
X060678Y033320D01*
X060754Y033243D01*
X060754Y033090D01*
X060678Y033013D01*
X060754Y032859D02*
X060754Y032553D01*
X060754Y032706D02*
X060294Y032706D01*
X060448Y032553D01*
X060448Y032399D02*
X060524Y032322D01*
X060524Y032092D01*
X060294Y032092D02*
X060294Y032322D01*
X060371Y032399D01*
X060448Y032399D01*
X060524Y032322D02*
X060601Y032399D01*
X060678Y032399D01*
X060754Y032322D01*
X060754Y032092D01*
X060294Y032092D01*
X060294Y031939D02*
X060754Y031939D01*
X060754Y031632D02*
X060294Y031632D01*
X060448Y031785D01*
X060294Y031939D01*
X059898Y032019D02*
X059438Y032019D01*
X058882Y032037D02*
X058882Y032344D01*
X058959Y032498D02*
X058959Y032805D01*
X058882Y032958D02*
X058882Y033188D01*
X058805Y033265D01*
X058499Y033265D01*
X058422Y033188D01*
X058422Y032958D01*
X058882Y032958D01*
X058805Y033419D02*
X058499Y033419D01*
X058422Y033495D01*
X058422Y033649D01*
X058499Y033726D01*
X058805Y033726D01*
X058882Y033649D01*
X058882Y033495D01*
X058805Y033419D01*
X058882Y033879D02*
X058729Y034032D01*
X058882Y034186D01*
X058422Y034186D01*
X058422Y034339D02*
X058882Y034646D01*
X058422Y034646D01*
X058422Y034339D02*
X058882Y034339D01*
X058882Y033879D02*
X058422Y033879D01*
X058382Y035623D02*
X058382Y036083D01*
X058228Y035930D01*
X058228Y035623D02*
X058535Y035623D01*
X058689Y035623D02*
X058689Y035930D01*
X058842Y036083D01*
X058996Y035930D01*
X058996Y035623D01*
X058996Y035853D02*
X058689Y035853D01*
X057972Y035639D02*
X057665Y035639D01*
X057819Y035639D02*
X057819Y036099D01*
X057665Y035946D01*
X057512Y036099D02*
X057205Y036099D01*
X057205Y035639D01*
X057205Y035869D02*
X057358Y035869D01*
X055669Y033075D02*
X055515Y033075D01*
X055439Y032998D01*
X055439Y032691D01*
X055746Y032998D01*
X055746Y032691D01*
X055669Y032614D01*
X055515Y032614D01*
X055439Y032691D01*
X055285Y032998D02*
X054978Y032691D01*
X054978Y032614D01*
X054825Y032691D02*
X054748Y032614D01*
X054595Y032614D01*
X054518Y032691D01*
X054364Y032614D02*
X054364Y032921D01*
X054211Y033075D01*
X054057Y032921D01*
X054057Y032614D01*
X053904Y032691D02*
X053827Y032614D01*
X053597Y032614D01*
X053597Y033075D01*
X053827Y033075D01*
X053904Y032998D01*
X053904Y032921D01*
X053827Y032845D01*
X053597Y032845D01*
X053827Y032845D02*
X053904Y032768D01*
X053904Y032691D01*
X054057Y032845D02*
X054364Y032845D01*
X054518Y032921D02*
X054595Y032845D01*
X054748Y032845D01*
X054825Y032768D01*
X054825Y032691D01*
X054825Y032998D02*
X054748Y033075D01*
X054595Y033075D01*
X054518Y032998D01*
X054518Y032921D01*
X054978Y033075D02*
X055285Y033075D01*
X055285Y032998D01*
X055669Y033075D02*
X055746Y032998D01*
X054332Y032453D02*
X054332Y031992D01*
X054179Y031992D02*
X054486Y031992D01*
X054179Y032299D02*
X054332Y032453D01*
X054025Y032376D02*
X054025Y032069D01*
X053949Y031992D01*
X053718Y031992D01*
X053718Y032453D01*
X053949Y032453D01*
X054025Y032376D01*
X053953Y030086D02*
X053953Y029625D01*
X054260Y029625D02*
X054260Y030086D01*
X054490Y030086D01*
X054566Y030009D01*
X054566Y029855D01*
X054490Y029779D01*
X054260Y029779D01*
X054106Y030086D02*
X053799Y030086D01*
X054720Y030009D02*
X054720Y029932D01*
X054797Y029855D01*
X054950Y029855D01*
X055027Y029779D01*
X055027Y029702D01*
X054950Y029625D01*
X054797Y029625D01*
X054720Y029702D01*
X054720Y030009D02*
X054797Y030086D01*
X054950Y030086D01*
X055027Y030009D01*
X055180Y030086D02*
X055180Y029855D01*
X055334Y029932D01*
X055410Y029932D01*
X055487Y029855D01*
X055487Y029702D01*
X055410Y029625D01*
X055257Y029625D01*
X055180Y029702D01*
X055180Y030086D02*
X055487Y030086D01*
X055641Y030086D02*
X055641Y029855D01*
X055794Y029932D01*
X055871Y029932D01*
X055948Y029855D01*
X055948Y029702D01*
X055871Y029625D01*
X055717Y029625D01*
X055641Y029702D01*
X055641Y030086D02*
X055948Y030086D01*
X056101Y029932D02*
X056255Y030086D01*
X056255Y029625D01*
X056408Y029625D02*
X056101Y029625D01*
X056561Y029702D02*
X056561Y029855D01*
X056792Y029855D01*
X056868Y029779D01*
X056868Y029702D01*
X056792Y029625D01*
X056638Y029625D01*
X056561Y029702D01*
X056561Y029855D02*
X056715Y030009D01*
X056868Y030086D01*
X057022Y030009D02*
X057099Y030086D01*
X057252Y030086D01*
X057329Y030009D01*
X057022Y029702D01*
X057099Y029625D01*
X057252Y029625D01*
X057329Y029702D01*
X057329Y030009D01*
X057512Y029983D02*
X057589Y030060D01*
X057742Y030060D01*
X057819Y029983D01*
X057819Y029753D01*
X057819Y029906D02*
X057973Y030060D01*
X058049Y030213D02*
X058049Y030520D01*
X057973Y030674D02*
X057973Y030904D01*
X057896Y030981D01*
X057589Y030981D01*
X057512Y030904D01*
X057512Y030674D01*
X057973Y030674D01*
X058422Y030656D02*
X058422Y030886D01*
X058499Y030963D01*
X058652Y030963D01*
X058729Y030886D01*
X058729Y030656D01*
X058882Y030656D02*
X058422Y030656D01*
X058422Y031117D02*
X058882Y031117D01*
X058729Y031270D01*
X058882Y031424D01*
X058422Y031424D01*
X058422Y031577D02*
X058422Y031807D01*
X058499Y031884D01*
X058652Y031884D01*
X058729Y031807D01*
X058729Y031577D01*
X058882Y031577D02*
X058422Y031577D01*
X058729Y031730D02*
X058882Y031884D01*
X058882Y032037D02*
X058422Y032037D01*
X057973Y031748D02*
X057742Y031748D01*
X057589Y031901D01*
X057512Y031901D01*
X057742Y031748D02*
X057589Y031594D01*
X057512Y031594D01*
X057512Y031134D02*
X057973Y031134D01*
X057973Y031441D01*
X058959Y030503D02*
X058959Y030196D01*
X058882Y030042D02*
X058729Y029889D01*
X058729Y029966D02*
X058729Y029735D01*
X058882Y029735D02*
X058422Y029735D01*
X058422Y029966D01*
X058499Y030042D01*
X058652Y030042D01*
X058729Y029966D01*
X057973Y029753D02*
X057512Y029753D01*
X057512Y029983D01*
X057022Y030009D02*
X057022Y029702D01*
X059438Y031098D02*
X059898Y031098D01*
X061148Y032331D02*
X061398Y032331D01*
X061274Y032453D02*
X061274Y032203D01*
X061154Y033206D02*
X061142Y033217D01*
X061128Y033226D01*
X061112Y033231D01*
X061095Y033233D01*
X061078Y033231D01*
X061062Y033226D01*
X061048Y033217D01*
X061036Y033206D01*
X061154Y033205D02*
X061166Y033194D01*
X061180Y033185D01*
X061196Y033180D01*
X061213Y033178D01*
X061230Y033180D01*
X061246Y033185D01*
X061260Y033194D01*
X061272Y033205D01*
X060371Y033320D02*
X060294Y033243D01*
X060294Y033090D01*
X062274Y032321D02*
X062524Y032321D01*
X062794Y032553D02*
X062794Y032783D01*
X062871Y032859D01*
X062948Y032859D01*
X063024Y032783D01*
X063024Y032553D01*
X063024Y032783D02*
X063101Y032859D01*
X063178Y032859D01*
X063254Y032783D01*
X063254Y032553D01*
X062794Y032553D01*
X062948Y033013D02*
X062794Y033166D01*
X063254Y033166D01*
X063254Y033013D02*
X063254Y033320D01*
X062522Y033205D02*
X062510Y033194D01*
X062496Y033185D01*
X062480Y033180D01*
X062463Y033178D01*
X062446Y033180D01*
X062430Y033185D01*
X062416Y033194D01*
X062404Y033205D01*
X062404Y033206D02*
X062392Y033217D01*
X062378Y033226D01*
X062362Y033231D01*
X062345Y033233D01*
X062328Y033231D01*
X062312Y033226D01*
X062298Y033217D01*
X062286Y033206D01*
X062294Y037050D02*
X062141Y037050D01*
X062064Y037127D01*
X062371Y037434D01*
X062371Y037127D01*
X062294Y037050D01*
X062064Y037127D02*
X062064Y037434D01*
X062141Y037510D01*
X062294Y037510D01*
X062371Y037434D01*
X062284Y037670D02*
X062131Y037670D01*
X062054Y037747D01*
X062131Y037900D02*
X062284Y037900D01*
X062361Y037823D01*
X062361Y037747D01*
X062284Y037670D01*
X062514Y037670D02*
X062514Y037747D01*
X062821Y038054D01*
X062821Y038130D01*
X062514Y038130D01*
X062361Y038054D02*
X062284Y038130D01*
X062131Y038130D01*
X062054Y038054D01*
X062054Y037977D01*
X062131Y037900D01*
X061900Y037900D02*
X061594Y037900D01*
X061594Y037977D02*
X061747Y038130D01*
X061900Y037977D01*
X061900Y037670D01*
X061757Y037510D02*
X061757Y037050D01*
X061604Y037050D02*
X061910Y037050D01*
X061604Y037357D02*
X061757Y037510D01*
X061594Y037670D02*
X061594Y037977D01*
X061440Y037977D02*
X061363Y037900D01*
X061133Y037900D01*
X061133Y037670D02*
X061363Y037670D01*
X061440Y037747D01*
X061440Y037823D01*
X061363Y037900D01*
X061440Y037977D02*
X061440Y038054D01*
X061363Y038130D01*
X061133Y038130D01*
X061133Y037670D01*
X061143Y037510D02*
X061373Y037510D01*
X061450Y037434D01*
X061450Y037127D01*
X061373Y037050D01*
X061143Y037050D01*
X061143Y037510D01*
X062975Y037747D02*
X063282Y038054D01*
X063282Y037747D01*
X063205Y037670D01*
X063051Y037670D01*
X062975Y037747D01*
X062975Y038054D01*
X063051Y038130D01*
X063205Y038130D01*
X063282Y038054D01*
X063435Y037900D02*
X063742Y037900D01*
X063895Y037747D02*
X064202Y038054D01*
X064202Y037747D01*
X064126Y037670D01*
X063972Y037670D01*
X063895Y037747D01*
X063895Y038054D01*
X063972Y038130D01*
X064126Y038130D01*
X064202Y038054D01*
X064356Y037900D02*
X064586Y037900D01*
X064663Y037823D01*
X064663Y037747D01*
X064586Y037670D01*
X064433Y037670D01*
X064356Y037747D01*
X064356Y037900D01*
X064509Y038054D01*
X064663Y038130D01*
X053553Y038052D02*
X053553Y037898D01*
X053477Y037822D01*
X053170Y038129D01*
X053477Y038129D01*
X053553Y038052D01*
X053477Y037822D02*
X053170Y037822D01*
X053093Y037898D01*
X053093Y038052D01*
X053170Y038129D01*
X052860Y037814D02*
X052860Y037507D01*
X052860Y037660D02*
X052400Y037660D01*
X052554Y037507D01*
X052630Y037353D02*
X052707Y037276D01*
X052707Y037046D01*
X052860Y037046D02*
X052400Y037046D01*
X052400Y037276D01*
X052477Y037353D01*
X052630Y037353D01*
X052707Y037200D02*
X052860Y037353D01*
X053093Y037438D02*
X053170Y037361D01*
X053093Y037438D02*
X053093Y037591D01*
X053170Y037668D01*
X053246Y037668D01*
X053553Y037361D01*
X053553Y037668D01*
X053553Y037208D02*
X053553Y036901D01*
X053246Y037208D01*
X053170Y037208D01*
X053093Y037131D01*
X053093Y036978D01*
X053170Y036901D01*
X047783Y036991D02*
X047783Y036684D01*
X047477Y036991D01*
X047400Y036991D01*
X047323Y036914D01*
X047323Y036761D01*
X047400Y036684D01*
X047059Y036684D02*
X046599Y036684D01*
X046599Y036914D01*
X046675Y036991D01*
X046829Y036991D01*
X046906Y036914D01*
X046906Y036684D01*
X046906Y036837D02*
X047059Y036991D01*
X046829Y037144D02*
X046829Y037451D01*
X047059Y037375D02*
X046599Y037375D01*
X046829Y037144D01*
X047323Y037221D02*
X047400Y037144D01*
X047323Y037221D02*
X047323Y037375D01*
X047400Y037451D01*
X047477Y037451D01*
X047783Y037144D01*
X047783Y037451D01*
X047707Y037605D02*
X047400Y037912D01*
X047707Y037912D01*
X047783Y037835D01*
X047783Y037681D01*
X047707Y037605D01*
X047400Y037605D01*
X047323Y037681D01*
X047323Y037835D01*
X047400Y037912D01*
X041221Y031338D02*
X041298Y031262D01*
X041298Y031185D01*
X041221Y031338D02*
X040838Y031338D01*
X041145Y031338D02*
X041145Y031108D01*
X041068Y031031D01*
X040838Y031031D01*
X040914Y030878D02*
X041145Y030878D01*
X041145Y030648D01*
X041068Y030571D01*
X040991Y030648D01*
X040991Y030878D01*
X040914Y030878D02*
X040838Y030801D01*
X040838Y030648D01*
X040684Y030341D02*
X041145Y030341D01*
X041145Y030417D02*
X041145Y030264D01*
X040991Y030111D02*
X040991Y029804D01*
X040914Y029804D02*
X040838Y029880D01*
X040838Y030034D01*
X040914Y030111D01*
X040991Y030111D01*
X041145Y030034D02*
X041145Y029880D01*
X041068Y029804D01*
X040914Y029804D01*
X040914Y029650D02*
X040991Y029573D01*
X040991Y029343D01*
X041145Y029343D02*
X040684Y029343D01*
X040684Y029573D01*
X040761Y029650D01*
X040914Y029650D01*
X040991Y029497D02*
X041145Y029650D01*
X040684Y030264D02*
X040684Y030341D01*
X040965Y027943D02*
X041195Y027943D01*
X041272Y027866D01*
X041272Y027789D01*
X041195Y027712D01*
X040965Y027712D01*
X040965Y027482D02*
X041195Y027482D01*
X041272Y027559D01*
X041272Y027636D01*
X041195Y027712D01*
X041425Y027789D02*
X041502Y027712D01*
X041656Y027712D01*
X041732Y027636D01*
X041732Y027559D01*
X041656Y027482D01*
X041502Y027482D01*
X041425Y027559D01*
X041425Y027789D02*
X041425Y027866D01*
X041502Y027943D01*
X041656Y027943D01*
X041732Y027866D01*
X041886Y027866D02*
X041886Y027789D01*
X041963Y027712D01*
X042116Y027712D01*
X042193Y027636D01*
X042193Y027559D01*
X042116Y027482D01*
X041963Y027482D01*
X041886Y027559D01*
X041933Y027305D02*
X041933Y026844D01*
X041780Y026844D02*
X042087Y026844D01*
X041780Y027151D02*
X041933Y027305D01*
X041626Y027228D02*
X041626Y026921D01*
X041550Y026844D01*
X041396Y026844D01*
X041319Y026921D01*
X041319Y027228D01*
X041396Y027305D01*
X041550Y027305D01*
X041626Y027228D01*
X041473Y026998D02*
X041626Y026844D01*
X040965Y027482D02*
X040965Y027943D01*
X041886Y027866D02*
X041963Y027943D01*
X042116Y027943D01*
X042193Y027866D01*
X042346Y027789D02*
X042500Y027943D01*
X042500Y027482D01*
X042653Y027482D02*
X042346Y027482D01*
X042807Y027482D02*
X043114Y027789D01*
X043114Y027866D01*
X043037Y027943D01*
X042883Y027943D01*
X042807Y027866D01*
X042807Y027482D02*
X043114Y027482D01*
X043267Y027559D02*
X043344Y027482D01*
X043497Y027482D01*
X043574Y027559D01*
X043574Y027636D01*
X043497Y027712D01*
X043420Y027712D01*
X043497Y027712D02*
X043574Y027789D01*
X043574Y027866D01*
X043497Y027943D01*
X043344Y027943D01*
X043267Y027866D01*
X041825Y025859D02*
X041672Y025782D01*
X041518Y025628D01*
X041748Y025628D01*
X041825Y025552D01*
X041825Y025475D01*
X041748Y025398D01*
X041595Y025398D01*
X041518Y025475D01*
X041518Y025628D01*
X041365Y025628D02*
X041288Y025552D01*
X041058Y025552D01*
X041211Y025552D02*
X041365Y025398D01*
X041365Y025628D02*
X041365Y025782D01*
X041288Y025859D01*
X041058Y025859D01*
X041058Y025398D01*
X041103Y025166D02*
X040950Y025166D01*
X040873Y025089D01*
X041103Y025166D02*
X041180Y025089D01*
X041180Y025012D01*
X040873Y024705D01*
X041180Y024705D01*
X041333Y024705D02*
X041640Y025012D01*
X041640Y025089D01*
X041563Y025166D01*
X041410Y025166D01*
X041333Y025089D01*
X041333Y024705D02*
X041640Y024705D01*
X041794Y024782D02*
X042101Y025089D01*
X042101Y024782D01*
X042024Y024705D01*
X041870Y024705D01*
X041794Y024782D01*
X041794Y025089D01*
X041870Y025166D01*
X042024Y025166D01*
X042101Y025089D01*
X041182Y023858D02*
X041259Y023781D01*
X041259Y023704D01*
X041105Y023628D02*
X041105Y023858D01*
X041182Y023858D02*
X040798Y023858D01*
X040798Y023551D02*
X041028Y023551D01*
X041105Y023628D01*
X041105Y023398D02*
X041105Y023167D01*
X041028Y023091D01*
X040952Y023167D01*
X040952Y023398D01*
X040875Y023398D02*
X041105Y023398D01*
X040875Y023398D02*
X040798Y023321D01*
X040798Y023167D01*
X040645Y022860D02*
X041105Y022860D01*
X041105Y022784D02*
X041105Y022937D01*
X040952Y022630D02*
X040952Y022323D01*
X041028Y022323D02*
X040875Y022323D01*
X040798Y022400D01*
X040798Y022554D01*
X040875Y022630D01*
X040952Y022630D01*
X041105Y022554D02*
X041105Y022400D01*
X041028Y022323D01*
X041105Y022170D02*
X040952Y022016D01*
X040952Y022093D02*
X040952Y021863D01*
X041105Y021863D02*
X040645Y021863D01*
X040645Y022093D01*
X040722Y022170D01*
X040875Y022170D01*
X040952Y022093D01*
X040645Y022784D02*
X040645Y022860D01*
X041213Y020565D02*
X041443Y020565D01*
X041520Y020488D01*
X041520Y020411D01*
X041443Y020334D01*
X041213Y020334D01*
X041213Y020104D02*
X041443Y020104D01*
X041520Y020181D01*
X041520Y020258D01*
X041443Y020334D01*
X041673Y020411D02*
X041750Y020334D01*
X041904Y020334D01*
X041980Y020258D01*
X041980Y020181D01*
X041904Y020104D01*
X041750Y020104D01*
X041673Y020181D01*
X041752Y020006D02*
X041752Y019775D01*
X041906Y019852D01*
X041982Y019852D01*
X042059Y019775D01*
X042059Y019622D01*
X041982Y019545D01*
X041829Y019545D01*
X041752Y019622D01*
X041599Y019622D02*
X041522Y019545D01*
X041369Y019545D01*
X041292Y019622D01*
X041292Y019929D01*
X041369Y020006D01*
X041522Y020006D01*
X041599Y019929D01*
X041599Y019622D01*
X041599Y019545D02*
X041445Y019699D01*
X041752Y020006D02*
X042059Y020006D01*
X042211Y020104D02*
X042134Y020181D01*
X042211Y020104D02*
X042364Y020104D01*
X042441Y020181D01*
X042441Y020258D01*
X042364Y020334D01*
X042211Y020334D01*
X042134Y020411D01*
X042134Y020488D01*
X042211Y020565D01*
X042364Y020565D01*
X042441Y020488D01*
X042594Y020411D02*
X042748Y020565D01*
X042748Y020104D01*
X042901Y020104D02*
X042594Y020104D01*
X043055Y020104D02*
X043362Y020411D01*
X043362Y020488D01*
X043285Y020565D01*
X043131Y020565D01*
X043055Y020488D01*
X043055Y020104D02*
X043362Y020104D01*
X043515Y020181D02*
X043592Y020104D01*
X043745Y020104D01*
X043822Y020181D01*
X043822Y020258D01*
X043745Y020334D01*
X043668Y020334D01*
X043745Y020334D02*
X043822Y020411D01*
X043822Y020488D01*
X043745Y020565D01*
X043592Y020565D01*
X043515Y020488D01*
X041980Y020488D02*
X041904Y020565D01*
X041750Y020565D01*
X041673Y020488D01*
X041673Y020411D01*
X041213Y020565D02*
X041213Y020104D01*
X039319Y020144D02*
X039319Y020221D01*
X039242Y020298D01*
X039012Y020298D01*
X039012Y020144D01*
X039088Y020067D01*
X039242Y020067D01*
X039319Y020144D01*
X039165Y020451D02*
X039012Y020298D01*
X039165Y020451D02*
X039319Y020528D01*
X038858Y020451D02*
X038782Y020528D01*
X038551Y020528D01*
X038551Y020067D01*
X038782Y020067D01*
X038858Y020144D01*
X038858Y020451D01*
X037146Y020348D02*
X036839Y020348D01*
X036993Y020348D02*
X036993Y020809D01*
X036839Y020655D01*
X036686Y020502D02*
X036609Y020578D01*
X036379Y020578D01*
X036379Y020425D01*
X036456Y020348D01*
X036609Y020348D01*
X036686Y020425D01*
X036686Y020502D01*
X036532Y020732D02*
X036379Y020578D01*
X036532Y020732D02*
X036686Y020809D01*
X036692Y021758D02*
X036999Y022065D01*
X036999Y022142D01*
X036922Y022218D01*
X036769Y022218D01*
X036692Y022142D01*
X036538Y022142D02*
X036462Y022218D01*
X036308Y022218D01*
X036232Y022142D01*
X036078Y022142D02*
X036078Y021988D01*
X036001Y021911D01*
X035771Y021911D01*
X035771Y021758D02*
X035771Y022218D01*
X036001Y022218D01*
X036078Y022142D01*
X035925Y021911D02*
X036078Y021758D01*
X036232Y021758D02*
X036538Y022065D01*
X036538Y022142D01*
X036538Y021758D02*
X036232Y021758D01*
X036692Y021758D02*
X036999Y021758D01*
X034448Y020385D02*
X034448Y020309D01*
X034371Y020232D01*
X034448Y020155D01*
X034448Y020079D01*
X034371Y020002D01*
X034218Y020002D01*
X034141Y020079D01*
X033988Y020002D02*
X033681Y020002D01*
X033988Y020309D01*
X033988Y020385D01*
X033911Y020462D01*
X033757Y020462D01*
X033681Y020385D01*
X033374Y020462D02*
X033374Y020002D01*
X033527Y020002D02*
X033220Y020002D01*
X033067Y020079D02*
X032990Y020002D01*
X032837Y020002D01*
X032760Y020079D01*
X032606Y020079D02*
X032530Y020002D01*
X032376Y020002D01*
X032299Y020079D01*
X032146Y020079D02*
X032069Y020002D01*
X031839Y020002D01*
X031839Y020462D01*
X032069Y020462D01*
X032146Y020385D01*
X032146Y020309D01*
X032069Y020232D01*
X031839Y020232D01*
X032069Y020232D02*
X032146Y020155D01*
X032146Y020079D01*
X032069Y019903D02*
X032146Y019826D01*
X032146Y019519D01*
X032069Y019443D01*
X031916Y019443D01*
X031839Y019519D01*
X031839Y019826D01*
X031916Y019903D01*
X032069Y019903D01*
X032299Y019826D02*
X032376Y019903D01*
X032530Y019903D01*
X032606Y019826D01*
X032606Y019750D01*
X032530Y019673D01*
X032606Y019596D01*
X032606Y019519D01*
X032530Y019443D01*
X032376Y019443D01*
X032299Y019519D01*
X032146Y019443D02*
X031993Y019596D01*
X032453Y019673D02*
X032530Y019673D01*
X032606Y020079D02*
X032606Y020155D01*
X032530Y020232D01*
X032376Y020232D01*
X032299Y020309D01*
X032299Y020385D01*
X032376Y020462D01*
X032530Y020462D01*
X032606Y020385D01*
X032760Y020385D02*
X032760Y020309D01*
X032837Y020232D01*
X032990Y020232D01*
X033067Y020155D01*
X033067Y020079D01*
X033220Y020309D02*
X033374Y020462D01*
X033067Y020385D02*
X032990Y020462D01*
X032837Y020462D01*
X032760Y020385D01*
X034141Y020385D02*
X034218Y020462D01*
X034371Y020462D01*
X034448Y020385D01*
X034371Y020232D02*
X034294Y020232D01*
X032321Y018341D02*
X032244Y018418D01*
X032091Y018418D01*
X032014Y018341D01*
X032014Y018264D01*
X032091Y018187D01*
X032244Y018187D01*
X032321Y018111D01*
X032321Y018034D01*
X032244Y017957D01*
X032091Y017957D01*
X032014Y018034D01*
X032014Y018111D01*
X032091Y018187D01*
X032244Y018187D02*
X032321Y018264D01*
X032321Y018341D01*
X031861Y018341D02*
X031861Y018187D01*
X031784Y018111D01*
X031554Y018111D01*
X031707Y018111D02*
X031861Y017957D01*
X031906Y017803D02*
X031829Y017727D01*
X031906Y017803D02*
X032060Y017803D01*
X032136Y017727D01*
X032136Y017650D01*
X031829Y017343D01*
X032136Y017343D01*
X032290Y017420D02*
X032597Y017727D01*
X032597Y017420D01*
X032520Y017343D01*
X032366Y017343D01*
X032290Y017420D01*
X032290Y017727D01*
X032366Y017803D01*
X032520Y017803D01*
X032597Y017727D01*
X031676Y017727D02*
X031599Y017803D01*
X031446Y017803D01*
X031369Y017727D01*
X031554Y017957D02*
X031554Y018418D01*
X031784Y018418D01*
X031861Y018341D01*
X031676Y017727D02*
X031676Y017650D01*
X031369Y017343D01*
X031676Y017343D01*
X029675Y020107D02*
X029675Y020567D01*
X029445Y020337D01*
X029752Y020337D01*
X029291Y020490D02*
X029215Y020567D01*
X028984Y020567D01*
X028984Y020107D01*
X029215Y020107D01*
X029291Y020184D01*
X029291Y020490D01*
X027838Y020384D02*
X027531Y020384D01*
X027684Y020384D02*
X027684Y020844D01*
X027531Y020691D01*
X027377Y020844D02*
X027224Y020768D01*
X027070Y020614D01*
X027301Y020614D01*
X027377Y020537D01*
X027377Y020461D01*
X027301Y020384D01*
X027147Y020384D01*
X027070Y020461D01*
X027070Y020614D01*
X027019Y021660D02*
X027326Y021967D01*
X027326Y022043D01*
X027249Y022120D01*
X027096Y022120D01*
X027019Y022043D01*
X026865Y022043D02*
X026865Y021890D01*
X026789Y021813D01*
X026559Y021813D01*
X026712Y021813D02*
X026865Y021660D01*
X027019Y021660D02*
X027326Y021660D01*
X027479Y021736D02*
X027556Y021660D01*
X027710Y021660D01*
X027786Y021736D01*
X027786Y021813D01*
X027710Y021890D01*
X027633Y021890D01*
X027710Y021890D02*
X027786Y021967D01*
X027786Y022043D01*
X027710Y022120D01*
X027556Y022120D01*
X027479Y022043D01*
X026865Y022043D02*
X026789Y022120D01*
X026559Y022120D01*
X026559Y021660D01*
X025007Y020409D02*
X025007Y020332D01*
X024930Y020256D01*
X025007Y020179D01*
X025007Y020102D01*
X024930Y020025D01*
X024777Y020025D01*
X024700Y020102D01*
X024547Y020025D02*
X024240Y020025D01*
X024547Y020332D01*
X024547Y020409D01*
X024470Y020486D01*
X024316Y020486D01*
X024240Y020409D01*
X023933Y020486D02*
X023933Y020025D01*
X024086Y020025D02*
X023779Y020025D01*
X023626Y020102D02*
X023549Y020025D01*
X023396Y020025D01*
X023319Y020102D01*
X023165Y020102D02*
X023089Y020025D01*
X022935Y020025D01*
X022858Y020102D01*
X022705Y020102D02*
X022628Y020025D01*
X022398Y020025D01*
X022398Y020486D01*
X022628Y020486D01*
X022705Y020409D01*
X022705Y020332D01*
X022628Y020256D01*
X022398Y020256D01*
X022628Y020256D02*
X022705Y020179D01*
X022705Y020102D01*
X022628Y019848D02*
X022475Y019848D01*
X022398Y019771D01*
X022398Y019464D01*
X022475Y019388D01*
X022628Y019388D01*
X022705Y019464D01*
X022705Y019771D01*
X022628Y019848D01*
X022552Y019541D02*
X022705Y019388D01*
X022858Y019464D02*
X022935Y019388D01*
X023089Y019388D01*
X023165Y019464D01*
X023165Y019541D01*
X023089Y019618D01*
X022858Y019618D01*
X022858Y019464D01*
X022858Y019618D02*
X023012Y019771D01*
X023165Y019848D01*
X023165Y020102D02*
X023165Y020179D01*
X023089Y020256D01*
X022935Y020256D01*
X022858Y020332D01*
X022858Y020409D01*
X022935Y020486D01*
X023089Y020486D01*
X023165Y020409D01*
X023319Y020409D02*
X023319Y020332D01*
X023396Y020256D01*
X023549Y020256D01*
X023626Y020179D01*
X023626Y020102D01*
X023779Y020332D02*
X023933Y020486D01*
X023626Y020409D02*
X023549Y020486D01*
X023396Y020486D01*
X023319Y020409D01*
X024700Y020409D02*
X024777Y020486D01*
X024930Y020486D01*
X025007Y020409D01*
X024930Y020256D02*
X024854Y020256D01*
X022695Y018299D02*
X022695Y017839D01*
X022542Y017839D02*
X022849Y017839D01*
X022772Y017646D02*
X022849Y017569D01*
X022542Y017262D01*
X022618Y017186D01*
X022772Y017186D01*
X022849Y017262D01*
X022849Y017569D01*
X022772Y017646D02*
X022618Y017646D01*
X022542Y017569D01*
X022542Y017262D01*
X022388Y017186D02*
X022081Y017186D01*
X022388Y017492D01*
X022388Y017569D01*
X022312Y017646D01*
X022158Y017646D01*
X022081Y017569D01*
X021928Y017569D02*
X021851Y017646D01*
X021698Y017646D01*
X021621Y017569D01*
X021621Y017839D02*
X021621Y018299D01*
X021851Y018299D01*
X021928Y018223D01*
X021928Y018069D01*
X021851Y017993D01*
X021621Y017993D01*
X021774Y017993D02*
X021928Y017839D01*
X022081Y017839D02*
X022388Y017839D01*
X022235Y017839D02*
X022235Y018299D01*
X022081Y018146D01*
X022542Y018146D02*
X022695Y018299D01*
X021928Y017569D02*
X021928Y017492D01*
X021621Y017186D01*
X021928Y017186D01*
X020016Y020107D02*
X020016Y020184D01*
X020323Y020490D01*
X020323Y020567D01*
X020016Y020567D01*
X019862Y020490D02*
X019785Y020567D01*
X019555Y020567D01*
X019555Y020107D01*
X019785Y020107D01*
X019862Y020184D01*
X019862Y020490D01*
X018468Y020345D02*
X018161Y020345D01*
X018314Y020345D02*
X018314Y020805D01*
X018161Y020652D01*
X018007Y020805D02*
X017854Y020728D01*
X017700Y020575D01*
X017930Y020575D01*
X018007Y020498D01*
X018007Y020421D01*
X017930Y020345D01*
X017777Y020345D01*
X017700Y020421D01*
X017700Y020575D01*
X017649Y021699D02*
X017956Y022006D01*
X017956Y022083D01*
X017879Y022159D01*
X017726Y022159D01*
X017649Y022083D01*
X017495Y022083D02*
X017495Y021929D01*
X017419Y021852D01*
X017188Y021852D01*
X017188Y021699D02*
X017188Y022159D01*
X017419Y022159D01*
X017495Y022083D01*
X017342Y021852D02*
X017495Y021699D01*
X017649Y021699D02*
X017956Y021699D01*
X018109Y021776D02*
X018186Y021699D01*
X018339Y021699D01*
X018416Y021776D01*
X018416Y021929D01*
X018339Y022006D01*
X018263Y022006D01*
X018109Y021929D01*
X018109Y022159D01*
X018416Y022159D01*
X021747Y022014D02*
X021747Y021784D01*
X022208Y021784D01*
X022054Y021784D02*
X022054Y022014D01*
X021977Y022091D01*
X021824Y022091D01*
X021747Y022014D01*
X022054Y021938D02*
X022208Y022091D01*
X022131Y022245D02*
X021977Y022245D01*
X021901Y022321D01*
X021901Y022475D01*
X021977Y022551D01*
X022054Y022551D01*
X022054Y022245D01*
X022131Y022245D02*
X022208Y022321D01*
X022208Y022475D01*
X022208Y022705D02*
X022208Y022858D01*
X022208Y022782D02*
X021747Y022782D01*
X021747Y022705D01*
X021901Y023089D02*
X021901Y023242D01*
X021977Y023319D01*
X022208Y023319D01*
X022208Y023089D01*
X022131Y023012D01*
X022054Y023089D01*
X022054Y023319D01*
X022131Y023472D02*
X022208Y023549D01*
X022208Y023779D01*
X022284Y023779D02*
X022361Y023702D01*
X022361Y023626D01*
X022284Y023779D02*
X021901Y023779D01*
X021901Y023472D02*
X022131Y023472D01*
X022096Y024320D02*
X022173Y024397D01*
X022173Y024704D01*
X022096Y024780D01*
X021942Y024780D01*
X021866Y024704D01*
X021866Y024627D01*
X021942Y024550D01*
X022173Y024550D01*
X022096Y024320D02*
X021942Y024320D01*
X021866Y024397D01*
X021712Y024320D02*
X021559Y024473D01*
X021635Y024473D02*
X021405Y024473D01*
X021405Y024320D02*
X021405Y024780D01*
X021635Y024780D01*
X021712Y024704D01*
X021712Y024550D01*
X021635Y024473D01*
X022441Y024296D02*
X022748Y024603D01*
X022748Y024680D01*
X022671Y024757D01*
X022518Y024757D01*
X022441Y024680D01*
X022441Y024296D02*
X022748Y024296D01*
X022901Y024296D02*
X023208Y024603D01*
X023208Y024680D01*
X023131Y024757D01*
X022978Y024757D01*
X022901Y024680D01*
X022901Y024296D02*
X023208Y024296D01*
X023362Y024373D02*
X023669Y024680D01*
X023669Y024373D01*
X023592Y024296D01*
X023438Y024296D01*
X023362Y024373D01*
X023362Y024680D01*
X023438Y024757D01*
X023592Y024757D01*
X023669Y024680D01*
X023081Y026907D02*
X023081Y027368D01*
X022851Y027138D01*
X023158Y027138D01*
X023081Y027545D02*
X022927Y027545D01*
X022851Y027622D01*
X022697Y027622D02*
X022620Y027545D01*
X022390Y027545D01*
X022390Y028006D01*
X022620Y028006D01*
X022697Y027929D01*
X022697Y027852D01*
X022620Y027775D01*
X022390Y027775D01*
X022620Y027775D02*
X022697Y027699D01*
X022697Y027622D01*
X022620Y027368D02*
X022697Y027291D01*
X022697Y026984D01*
X022620Y026907D01*
X022467Y026907D01*
X022390Y026984D01*
X022390Y027291D01*
X022467Y027368D01*
X022620Y027368D01*
X022544Y027061D02*
X022697Y026907D01*
X023081Y027545D02*
X023158Y027622D01*
X023158Y027699D01*
X023081Y027775D01*
X022927Y027775D01*
X022851Y027852D01*
X022851Y027929D01*
X022927Y028006D01*
X023081Y028006D01*
X023158Y027929D01*
X023311Y027929D02*
X023311Y027852D01*
X023388Y027775D01*
X023541Y027775D01*
X023618Y027699D01*
X023618Y027622D01*
X023541Y027545D01*
X023388Y027545D01*
X023311Y027622D01*
X023311Y027929D02*
X023388Y028006D01*
X023541Y028006D01*
X023618Y027929D01*
X023771Y027852D02*
X023925Y028006D01*
X023925Y027545D01*
X024078Y027545D02*
X023771Y027545D01*
X024232Y027545D02*
X024539Y027852D01*
X024539Y027929D01*
X024462Y028006D01*
X024309Y028006D01*
X024232Y027929D01*
X024232Y027545D02*
X024539Y027545D01*
X024692Y027622D02*
X024769Y027545D01*
X024922Y027545D01*
X024999Y027622D01*
X024999Y027699D01*
X024922Y027775D01*
X024846Y027775D01*
X024922Y027775D02*
X024999Y027852D01*
X024999Y027929D01*
X024922Y028006D01*
X024769Y028006D01*
X024692Y027929D01*
X026401Y029258D02*
X026401Y029718D01*
X026631Y029718D01*
X026708Y029642D01*
X026708Y029488D01*
X026631Y029411D01*
X026401Y029411D01*
X026555Y029411D02*
X026708Y029258D01*
X026861Y029258D02*
X027168Y029565D01*
X027168Y029642D01*
X027092Y029718D01*
X026938Y029718D01*
X026861Y029642D01*
X026861Y029258D02*
X027168Y029258D01*
X027322Y029258D02*
X027629Y029258D01*
X027475Y029258D02*
X027475Y029718D01*
X027322Y029565D01*
X027338Y028364D02*
X027184Y028287D01*
X027031Y028134D01*
X027261Y028134D01*
X027338Y028057D01*
X027338Y027980D01*
X027261Y027904D01*
X027108Y027904D01*
X027031Y027980D01*
X027031Y028134D01*
X027491Y028211D02*
X027645Y028364D01*
X027645Y027904D01*
X027798Y027904D02*
X027491Y027904D01*
X028965Y027969D02*
X028965Y027508D01*
X029195Y027508D01*
X029272Y027585D01*
X029272Y027892D01*
X029195Y027969D01*
X028965Y027969D01*
X029425Y027892D02*
X029502Y027969D01*
X029655Y027969D01*
X029732Y027892D01*
X029732Y027815D01*
X029655Y027739D01*
X029732Y027662D01*
X029732Y027585D01*
X029655Y027508D01*
X029502Y027508D01*
X029425Y027585D01*
X029579Y027739D02*
X029655Y027739D01*
X031678Y027712D02*
X031908Y027712D01*
X031985Y027636D01*
X031985Y027559D01*
X031908Y027482D01*
X031678Y027482D01*
X031678Y027943D01*
X031908Y027943D01*
X031985Y027866D01*
X031985Y027789D01*
X031908Y027712D01*
X032138Y027789D02*
X032215Y027712D01*
X032368Y027712D01*
X032445Y027636D01*
X032445Y027559D01*
X032368Y027482D01*
X032215Y027482D01*
X032138Y027559D01*
X032144Y027344D02*
X032221Y027267D01*
X032221Y026960D01*
X032144Y026884D01*
X031991Y026884D01*
X031914Y026960D01*
X031914Y027267D01*
X031991Y027344D01*
X032144Y027344D01*
X032374Y027267D02*
X032451Y027344D01*
X032604Y027344D01*
X032681Y027267D01*
X032681Y027191D01*
X032374Y026884D01*
X032681Y026884D01*
X032221Y026884D02*
X032067Y027037D01*
X032598Y027559D02*
X032675Y027482D01*
X032829Y027482D01*
X032905Y027559D01*
X032905Y027636D01*
X032829Y027712D01*
X032675Y027712D01*
X032598Y027789D01*
X032598Y027866D01*
X032675Y027943D01*
X032829Y027943D01*
X032905Y027866D01*
X033059Y027789D02*
X033212Y027943D01*
X033212Y027482D01*
X033059Y027482D02*
X033366Y027482D01*
X033519Y027482D02*
X033826Y027789D01*
X033826Y027866D01*
X033749Y027943D01*
X033596Y027943D01*
X033519Y027866D01*
X033519Y027482D02*
X033826Y027482D01*
X033980Y027559D02*
X034056Y027482D01*
X034210Y027482D01*
X034287Y027559D01*
X034287Y027636D01*
X034210Y027712D01*
X034133Y027712D01*
X034210Y027712D02*
X034287Y027789D01*
X034287Y027866D01*
X034210Y027943D01*
X034056Y027943D01*
X033980Y027866D01*
X032445Y027866D02*
X032368Y027943D01*
X032215Y027943D01*
X032138Y027866D01*
X032138Y027789D01*
X031578Y029383D02*
X031117Y029383D01*
X031117Y029613D01*
X031194Y029690D01*
X031347Y029690D01*
X031424Y029613D01*
X031424Y029383D01*
X031424Y029536D02*
X031578Y029690D01*
X031501Y029843D02*
X031347Y029843D01*
X031271Y029920D01*
X031271Y030073D01*
X031347Y030150D01*
X031424Y030150D01*
X031424Y029843D01*
X031501Y029843D02*
X031578Y029920D01*
X031578Y030073D01*
X031578Y030303D02*
X031578Y030457D01*
X031578Y030380D02*
X031117Y030380D01*
X031117Y030303D01*
X031271Y030687D02*
X031271Y030841D01*
X031347Y030917D01*
X031578Y030917D01*
X031578Y030687D01*
X031501Y030610D01*
X031424Y030687D01*
X031424Y030917D01*
X031501Y031071D02*
X031578Y031147D01*
X031578Y031378D01*
X031654Y031378D02*
X031731Y031301D01*
X031731Y031224D01*
X031654Y031378D02*
X031271Y031378D01*
X031271Y031071D02*
X031501Y031071D01*
X035643Y029376D02*
X035643Y028915D01*
X035643Y029069D02*
X035873Y029069D01*
X035950Y029145D01*
X035950Y029299D01*
X035873Y029376D01*
X035643Y029376D01*
X035796Y029069D02*
X035950Y028915D01*
X036103Y028915D02*
X036410Y029222D01*
X036410Y029299D01*
X036333Y029376D01*
X036180Y029376D01*
X036103Y029299D01*
X036103Y028915D02*
X036410Y028915D01*
X036564Y028992D02*
X036871Y029299D01*
X036871Y028992D01*
X036794Y028915D01*
X036640Y028915D01*
X036564Y028992D01*
X036564Y029299D01*
X036640Y029376D01*
X036794Y029376D01*
X036871Y029299D01*
X036984Y028226D02*
X036830Y028150D01*
X036677Y027996D01*
X036907Y027996D01*
X036984Y027919D01*
X036984Y027843D01*
X036907Y027766D01*
X036753Y027766D01*
X036677Y027843D01*
X036677Y027996D01*
X037137Y028073D02*
X037291Y028226D01*
X037291Y027766D01*
X037444Y027766D02*
X037137Y027766D01*
X038354Y027548D02*
X038585Y027548D01*
X038661Y027624D01*
X038661Y027931D01*
X038585Y028008D01*
X038354Y028008D01*
X038354Y027548D01*
X038815Y027548D02*
X039122Y027855D01*
X039122Y027931D01*
X039045Y028008D01*
X038892Y028008D01*
X038815Y027931D01*
X038815Y027548D02*
X039122Y027548D01*
X032150Y024337D02*
X031843Y024030D01*
X031920Y023953D01*
X032073Y023953D01*
X032150Y024030D01*
X032150Y024337D01*
X032073Y024414D01*
X031920Y024414D01*
X031843Y024337D01*
X031843Y024030D01*
X031690Y023953D02*
X031383Y023953D01*
X031690Y024260D01*
X031690Y024337D01*
X031613Y024414D01*
X031460Y024414D01*
X031383Y024337D01*
X031229Y024337D02*
X031153Y024414D01*
X030999Y024414D01*
X030922Y024337D01*
X031107Y024528D02*
X031107Y024989D01*
X031337Y024989D01*
X031414Y024912D01*
X031414Y024758D01*
X031337Y024682D01*
X031107Y024682D01*
X031261Y024682D02*
X031414Y024528D01*
X031568Y024528D02*
X031568Y024605D01*
X031875Y024912D01*
X031875Y024989D01*
X031568Y024989D01*
X031229Y024337D02*
X031229Y024260D01*
X030922Y023953D01*
X031229Y023953D01*
X031310Y023858D02*
X031694Y023858D01*
X031770Y023781D01*
X031770Y023704D01*
X031617Y023628D02*
X031617Y023858D01*
X031617Y023628D02*
X031540Y023551D01*
X031310Y023551D01*
X031387Y023398D02*
X031617Y023398D01*
X031617Y023167D01*
X031540Y023091D01*
X031464Y023167D01*
X031464Y023398D01*
X031387Y023398D02*
X031310Y023321D01*
X031310Y023167D01*
X031157Y022860D02*
X031617Y022860D01*
X031617Y022784D02*
X031617Y022937D01*
X031464Y022630D02*
X031464Y022323D01*
X031540Y022323D02*
X031387Y022323D01*
X031310Y022400D01*
X031310Y022554D01*
X031387Y022630D01*
X031464Y022630D01*
X031617Y022554D02*
X031617Y022400D01*
X031540Y022323D01*
X031617Y022170D02*
X031464Y022016D01*
X031464Y022093D02*
X031464Y021863D01*
X031617Y021863D02*
X031157Y021863D01*
X031157Y022093D01*
X031233Y022170D01*
X031387Y022170D01*
X031464Y022093D01*
X031157Y022784D02*
X031157Y022860D01*
X040448Y018339D02*
X040448Y017878D01*
X040448Y018032D02*
X040678Y018032D01*
X040755Y018109D01*
X040755Y018262D01*
X040678Y018339D01*
X040448Y018339D01*
X040601Y018032D02*
X040755Y017878D01*
X040908Y017878D02*
X041215Y017878D01*
X041062Y017878D02*
X041062Y018339D01*
X040908Y018185D01*
X040867Y017725D02*
X040790Y017648D01*
X040867Y017725D02*
X041020Y017725D01*
X041097Y017648D01*
X041097Y017571D01*
X040790Y017264D01*
X041097Y017264D01*
X041250Y017341D02*
X041557Y017648D01*
X041557Y017341D01*
X041481Y017264D01*
X041327Y017264D01*
X041250Y017341D01*
X041250Y017648D01*
X041327Y017725D01*
X041481Y017725D01*
X041557Y017648D01*
X041599Y017878D02*
X041445Y017878D01*
X041368Y017955D01*
X041675Y018262D01*
X041675Y017955D01*
X041599Y017878D01*
X041368Y017955D02*
X041368Y018262D01*
X041445Y018339D01*
X041599Y018339D01*
X041675Y018262D01*
X040637Y017648D02*
X040560Y017725D01*
X040406Y017725D01*
X040330Y017648D01*
X040637Y017648D02*
X040637Y017571D01*
X040330Y017264D01*
X040637Y017264D01*
X047645Y020832D02*
X047722Y020756D01*
X047875Y020756D01*
X047952Y020832D01*
X048105Y020756D02*
X048412Y021063D01*
X048412Y021139D01*
X048336Y021216D01*
X048182Y021216D01*
X048105Y021139D01*
X047952Y021139D02*
X047875Y021216D01*
X047722Y021216D01*
X047645Y021139D01*
X047645Y020832D01*
X048105Y020756D02*
X048412Y020756D01*
X022168Y029304D02*
X021708Y029304D01*
X021708Y029534D01*
X021785Y029611D01*
X021938Y029611D01*
X022015Y029534D01*
X022015Y029304D01*
X022015Y029457D02*
X022168Y029611D01*
X022091Y029764D02*
X021938Y029764D01*
X021861Y029841D01*
X021861Y029994D01*
X021938Y030071D01*
X022015Y030071D01*
X022015Y029764D01*
X022091Y029764D02*
X022168Y029841D01*
X022168Y029994D01*
X022168Y030225D02*
X022168Y030378D01*
X022168Y030301D02*
X021708Y030301D01*
X021708Y030225D01*
X021861Y030608D02*
X021861Y030762D01*
X021938Y030838D01*
X022168Y030838D01*
X022168Y030608D01*
X022091Y030532D01*
X022015Y030608D01*
X022015Y030838D01*
X022091Y030992D02*
X022168Y031069D01*
X022168Y031299D01*
X022245Y031299D02*
X022322Y031222D01*
X022322Y031145D01*
X022245Y031299D02*
X021861Y031299D01*
X021861Y030992D02*
X022091Y030992D01*
X020519Y028087D02*
X020213Y028087D01*
X020213Y027857D01*
X020366Y027933D01*
X020443Y027933D01*
X020519Y027857D01*
X020519Y027703D01*
X020443Y027626D01*
X020289Y027626D01*
X020213Y027703D01*
X020059Y027703D02*
X020059Y028010D01*
X019982Y028087D01*
X019752Y028087D01*
X019752Y027626D01*
X019982Y027626D01*
X020059Y027703D01*
X018428Y027805D02*
X018121Y027805D01*
X018275Y027805D02*
X018275Y028266D01*
X018121Y028112D01*
X017968Y027959D02*
X017968Y027882D01*
X017891Y027805D01*
X017738Y027805D01*
X017661Y027882D01*
X017661Y028035D01*
X017891Y028035D01*
X017968Y027959D01*
X017814Y028189D02*
X017661Y028035D01*
X017814Y028189D02*
X017968Y028266D01*
X017877Y029238D02*
X017570Y029238D01*
X017877Y029545D01*
X017877Y029622D01*
X017800Y029699D01*
X017647Y029699D01*
X017570Y029622D01*
X017417Y029622D02*
X017417Y029469D01*
X017340Y029392D01*
X017110Y029392D01*
X017263Y029392D02*
X017417Y029238D01*
X017110Y029238D02*
X017110Y029699D01*
X017340Y029699D01*
X017417Y029622D01*
X018031Y029469D02*
X018337Y029469D01*
X018261Y029699D02*
X018031Y029469D01*
X018261Y029238D02*
X018261Y029699D01*
X015523Y027889D02*
X015523Y027813D01*
X015446Y027736D01*
X015523Y027659D01*
X015523Y027582D01*
X015446Y027506D01*
X015293Y027506D01*
X015216Y027582D01*
X015062Y027506D02*
X014755Y027506D01*
X015062Y027813D01*
X015062Y027889D01*
X014986Y027966D01*
X014832Y027966D01*
X014755Y027889D01*
X014448Y027966D02*
X014448Y027506D01*
X014295Y027506D02*
X014602Y027506D01*
X014295Y027813D02*
X014448Y027966D01*
X014142Y027889D02*
X014065Y027966D01*
X013911Y027966D01*
X013835Y027889D01*
X013835Y027813D01*
X013911Y027736D01*
X014065Y027736D01*
X014142Y027659D01*
X014142Y027582D01*
X014065Y027506D01*
X013911Y027506D01*
X013835Y027582D01*
X013681Y027582D02*
X013604Y027506D01*
X013451Y027506D01*
X013374Y027582D01*
X013221Y027582D02*
X013144Y027506D01*
X012914Y027506D01*
X012914Y027966D01*
X013144Y027966D01*
X013221Y027889D01*
X013221Y027813D01*
X013144Y027736D01*
X012914Y027736D01*
X013144Y027736D02*
X013221Y027659D01*
X013221Y027582D01*
X013183Y027328D02*
X013260Y027252D01*
X013260Y026945D01*
X013183Y026868D01*
X013030Y026868D01*
X012953Y026945D01*
X012953Y027252D01*
X013030Y027328D01*
X013183Y027328D01*
X013414Y027328D02*
X013721Y027328D01*
X013721Y027252D01*
X013414Y026945D01*
X013414Y026868D01*
X013260Y026868D02*
X013107Y027021D01*
X013451Y027736D02*
X013604Y027736D01*
X013681Y027659D01*
X013681Y027582D01*
X013451Y027736D02*
X013374Y027813D01*
X013374Y027889D01*
X013451Y027966D01*
X013604Y027966D01*
X013681Y027889D01*
X015216Y027889D02*
X015293Y027966D01*
X015446Y027966D01*
X015523Y027889D01*
X015446Y027736D02*
X015369Y027736D01*
X014501Y024946D02*
X014578Y024869D01*
X014271Y024562D01*
X014348Y024485D01*
X014501Y024485D01*
X014578Y024562D01*
X014578Y024869D01*
X014501Y024946D02*
X014348Y024946D01*
X014271Y024869D01*
X014271Y024562D01*
X014117Y024485D02*
X013810Y024485D01*
X014117Y024792D01*
X014117Y024869D01*
X014041Y024946D01*
X013887Y024946D01*
X013810Y024869D01*
X013657Y024869D02*
X013580Y024946D01*
X013427Y024946D01*
X013350Y024869D01*
X013160Y024853D02*
X013084Y024930D01*
X012930Y024930D01*
X012853Y024853D01*
X013160Y024853D02*
X013160Y024776D01*
X012853Y024469D01*
X013160Y024469D01*
X013350Y024485D02*
X013657Y024792D01*
X013657Y024869D01*
X013657Y024485D02*
X013350Y024485D01*
X012700Y024469D02*
X012393Y024469D01*
X012240Y024469D02*
X012086Y024623D01*
X012163Y024623D02*
X011933Y024623D01*
X011933Y024469D02*
X011933Y024930D01*
X012163Y024930D01*
X012240Y024853D01*
X012240Y024700D01*
X012163Y024623D01*
X012393Y024776D02*
X012547Y024930D01*
X012547Y024469D01*
X012412Y023700D02*
X012796Y023700D01*
X012873Y023624D01*
X012873Y023547D01*
X012719Y023470D02*
X012719Y023700D01*
X012719Y023470D02*
X012643Y023394D01*
X012412Y023394D01*
X012489Y023240D02*
X012719Y023240D01*
X012719Y023010D01*
X012643Y022933D01*
X012566Y023010D01*
X012566Y023240D01*
X012489Y023240D02*
X012412Y023163D01*
X012412Y023010D01*
X012259Y022703D02*
X012719Y022703D01*
X012719Y022626D02*
X012719Y022780D01*
X012566Y022473D02*
X012566Y022166D01*
X012643Y022166D02*
X012489Y022166D01*
X012412Y022243D01*
X012412Y022396D01*
X012489Y022473D01*
X012566Y022473D01*
X012719Y022396D02*
X012719Y022243D01*
X012643Y022166D01*
X012719Y022012D02*
X012566Y021859D01*
X012566Y021936D02*
X012566Y021705D01*
X012719Y021705D02*
X012259Y021705D01*
X012259Y021936D01*
X012336Y022012D01*
X012489Y022012D01*
X012566Y021936D01*
X012259Y022626D02*
X012259Y022703D01*
X010994Y020646D02*
X010840Y020646D01*
X010764Y020569D01*
X010764Y020492D01*
X010840Y020416D01*
X011071Y020416D01*
X011071Y020569D02*
X010994Y020646D01*
X011071Y020569D02*
X011071Y020262D01*
X010994Y020186D01*
X010840Y020186D01*
X010764Y020262D01*
X010610Y020262D02*
X010610Y020569D01*
X010533Y020646D01*
X010303Y020646D01*
X010303Y020186D01*
X010533Y020186D01*
X010610Y020262D01*
X009019Y020345D02*
X008712Y020345D01*
X008865Y020345D02*
X008865Y020805D01*
X008712Y020652D01*
X008558Y020805D02*
X008405Y020728D01*
X008251Y020575D01*
X008482Y020575D01*
X008558Y020498D01*
X008558Y020421D01*
X008482Y020345D01*
X008328Y020345D01*
X008251Y020421D01*
X008251Y020575D01*
X008121Y021738D02*
X008428Y022045D01*
X008428Y022122D01*
X008352Y022199D01*
X008198Y022199D01*
X008121Y022122D01*
X007968Y022122D02*
X007968Y021969D01*
X007891Y021892D01*
X007661Y021892D01*
X007814Y021892D02*
X007968Y021738D01*
X008121Y021738D02*
X008428Y021738D01*
X008582Y021738D02*
X008582Y021815D01*
X008889Y022122D01*
X008889Y022199D01*
X008582Y022199D01*
X007968Y022122D02*
X007891Y022199D01*
X007661Y022199D01*
X007661Y021738D01*
X012125Y018142D02*
X012355Y018142D01*
X012432Y018065D01*
X012432Y017912D01*
X012355Y017835D01*
X012125Y017835D01*
X012278Y017835D02*
X012432Y017682D01*
X012585Y017682D02*
X012892Y017682D01*
X012739Y017682D02*
X012739Y018142D01*
X012585Y017989D01*
X013046Y018065D02*
X013122Y018142D01*
X013276Y018142D01*
X013353Y018065D01*
X013353Y017989D01*
X013276Y017912D01*
X013353Y017835D01*
X013353Y017758D01*
X013276Y017682D01*
X013122Y017682D01*
X013046Y017758D01*
X013199Y017912D02*
X013276Y017912D01*
X013197Y017488D02*
X013274Y017412D01*
X012967Y017105D01*
X013044Y017028D01*
X013197Y017028D01*
X013274Y017105D01*
X013274Y017412D01*
X013197Y017488D02*
X013044Y017488D01*
X012967Y017412D01*
X012967Y017105D01*
X012813Y017028D02*
X012507Y017028D01*
X012813Y017335D01*
X012813Y017412D01*
X012737Y017488D01*
X012583Y017488D01*
X012507Y017412D01*
X012353Y017412D02*
X012276Y017488D01*
X012123Y017488D01*
X012046Y017412D01*
X012125Y017682D02*
X012125Y018142D01*
X012353Y017412D02*
X012353Y017335D01*
X012046Y017028D01*
X012353Y017028D01*
X012995Y019427D02*
X012918Y019504D01*
X012918Y019811D01*
X012995Y019887D01*
X013148Y019887D01*
X013225Y019811D01*
X013225Y019504D01*
X013148Y019427D01*
X012995Y019427D01*
X013071Y019580D02*
X013225Y019427D01*
X013378Y019504D02*
X013378Y019580D01*
X013455Y019657D01*
X013608Y019657D01*
X013685Y019580D01*
X013685Y019504D01*
X013608Y019427D01*
X013455Y019427D01*
X013378Y019504D01*
X013455Y019657D02*
X013378Y019734D01*
X013378Y019811D01*
X013455Y019887D01*
X013608Y019887D01*
X013685Y019811D01*
X013685Y019734D01*
X013608Y019657D01*
X013608Y020065D02*
X013455Y020065D01*
X013378Y020142D01*
X013225Y020142D02*
X013148Y020065D01*
X012918Y020065D01*
X012918Y020525D01*
X013148Y020525D01*
X013225Y020448D01*
X013225Y020372D01*
X013148Y020295D01*
X012918Y020295D01*
X013148Y020295D02*
X013225Y020218D01*
X013225Y020142D01*
X013378Y020372D02*
X013455Y020295D01*
X013608Y020295D01*
X013685Y020218D01*
X013685Y020142D01*
X013608Y020065D01*
X013839Y020142D02*
X013915Y020065D01*
X014069Y020065D01*
X014145Y020142D01*
X014145Y020218D01*
X014069Y020295D01*
X013915Y020295D01*
X013839Y020372D01*
X013839Y020448D01*
X013915Y020525D01*
X014069Y020525D01*
X014145Y020448D01*
X014299Y020372D02*
X014452Y020525D01*
X014452Y020065D01*
X014299Y020065D02*
X014606Y020065D01*
X014759Y020065D02*
X015066Y020372D01*
X015066Y020448D01*
X014990Y020525D01*
X014836Y020525D01*
X014759Y020448D01*
X014759Y020065D02*
X015066Y020065D01*
X015220Y020142D02*
X015296Y020065D01*
X015450Y020065D01*
X015527Y020142D01*
X015527Y020218D01*
X015450Y020295D01*
X015373Y020295D01*
X015450Y020295D02*
X015527Y020372D01*
X015527Y020448D01*
X015450Y020525D01*
X015296Y020525D01*
X015220Y020448D01*
X013685Y020448D02*
X013608Y020525D01*
X013455Y020525D01*
X013378Y020448D01*
X013378Y020372D01*
X011014Y027626D02*
X010860Y027626D01*
X010783Y027703D01*
X010783Y027780D01*
X010860Y027857D01*
X011014Y027857D01*
X011090Y027780D01*
X011090Y027703D01*
X011014Y027626D01*
X011014Y027857D02*
X011090Y027933D01*
X011090Y028010D01*
X011014Y028087D01*
X010860Y028087D01*
X010783Y028010D01*
X010783Y027933D01*
X010860Y027857D01*
X010630Y027703D02*
X010630Y028010D01*
X010553Y028087D01*
X010323Y028087D01*
X010323Y027626D01*
X010553Y027626D01*
X010630Y027703D01*
X009019Y027766D02*
X008712Y027766D01*
X008865Y027766D02*
X008865Y028226D01*
X008712Y028073D01*
X008558Y028226D02*
X008405Y028150D01*
X008251Y027996D01*
X008482Y027996D01*
X008558Y027919D01*
X008558Y027843D01*
X008482Y027766D01*
X008328Y027766D01*
X008251Y027843D01*
X008251Y027996D01*
X008389Y029160D02*
X008082Y029160D01*
X008389Y029467D01*
X008389Y029543D01*
X008312Y029620D01*
X008159Y029620D01*
X008082Y029543D01*
X007928Y029543D02*
X007928Y029390D01*
X007852Y029313D01*
X007622Y029313D01*
X007775Y029313D02*
X007928Y029160D01*
X007622Y029160D02*
X007622Y029620D01*
X007852Y029620D01*
X007928Y029543D01*
X008542Y029390D02*
X008773Y029390D01*
X008849Y029313D01*
X008849Y029236D01*
X008773Y029160D01*
X008619Y029160D01*
X008542Y029236D01*
X008542Y029390D01*
X008696Y029543D01*
X008849Y029620D01*
X012259Y029534D02*
X012336Y029611D01*
X012489Y029611D01*
X012566Y029534D01*
X012566Y029304D01*
X012566Y029457D02*
X012719Y029611D01*
X012643Y029764D02*
X012489Y029764D01*
X012412Y029841D01*
X012412Y029994D01*
X012489Y030071D01*
X012566Y030071D01*
X012566Y029764D01*
X012643Y029764D02*
X012719Y029841D01*
X012719Y029994D01*
X012719Y030225D02*
X012719Y030378D01*
X012719Y030301D02*
X012259Y030301D01*
X012259Y030225D01*
X012412Y030608D02*
X012412Y030762D01*
X012489Y030838D01*
X012719Y030838D01*
X012719Y030608D01*
X012643Y030532D01*
X012566Y030608D01*
X012566Y030838D01*
X012643Y030992D02*
X012719Y031069D01*
X012719Y031299D01*
X012796Y031299D02*
X012412Y031299D01*
X012412Y030992D02*
X012643Y030992D01*
X012873Y031145D02*
X012873Y031222D01*
X012796Y031299D01*
X012259Y029534D02*
X012259Y029304D01*
X012719Y029304D01*
D14*
X010053Y027250D02*
X009242Y027250D01*
X009242Y026227D02*
X010053Y026227D01*
X010073Y019770D02*
X009262Y019770D01*
X009262Y018746D02*
X010073Y018746D01*
X018671Y018746D02*
X019482Y018746D01*
X019482Y019770D02*
X018671Y019770D01*
X018710Y026187D02*
X019521Y026187D01*
X019521Y027211D02*
X018710Y027211D01*
X028120Y027250D02*
X028931Y027250D01*
X028931Y026227D02*
X028120Y026227D01*
X028140Y019770D02*
X028951Y019770D01*
X028951Y018746D02*
X028140Y018746D01*
X037588Y018746D02*
X038399Y018746D01*
X038399Y019770D02*
X037588Y019770D01*
X044547Y021594D02*
X044547Y025334D01*
X044901Y025688D01*
X046004Y025688D01*
X047185Y025688D02*
X048287Y025688D01*
X048642Y025334D01*
X048642Y021594D01*
X047185Y021594D01*
X046004Y021594D02*
X044547Y021594D01*
X047204Y021810D02*
X047285Y021839D01*
X047365Y021872D01*
X047443Y021908D01*
X047520Y021947D01*
X047594Y021990D01*
X047667Y022037D01*
X047737Y022086D01*
X047805Y022139D01*
X047871Y022194D01*
X047935Y022253D01*
X047995Y022314D01*
X048053Y022377D01*
X048108Y022444D01*
X048160Y022513D01*
X048208Y022583D01*
X048254Y022656D01*
X048296Y022732D01*
X048335Y022808D01*
X048371Y022887D01*
X048402Y022967D01*
X048431Y023048D01*
X048455Y023131D01*
X048476Y023214D01*
X048493Y023298D01*
X048507Y023383D01*
X048516Y023469D01*
X048522Y023555D01*
X048524Y023641D01*
X048522Y023727D01*
X048516Y023813D01*
X048507Y023899D01*
X048493Y023984D01*
X048476Y024068D01*
X048455Y024151D01*
X048431Y024234D01*
X048402Y024315D01*
X048371Y024395D01*
X048335Y024474D01*
X048296Y024550D01*
X048254Y024626D01*
X048208Y024699D01*
X048160Y024769D01*
X048108Y024838D01*
X048053Y024905D01*
X047995Y024968D01*
X047935Y025029D01*
X047871Y025088D01*
X047805Y025143D01*
X047737Y025196D01*
X047667Y025245D01*
X047594Y025292D01*
X047520Y025335D01*
X047443Y025374D01*
X047365Y025410D01*
X047285Y025443D01*
X047204Y025472D01*
X045984Y025472D02*
X045903Y025443D01*
X045823Y025410D01*
X045745Y025374D01*
X045668Y025335D01*
X045594Y025292D01*
X045521Y025245D01*
X045451Y025196D01*
X045383Y025143D01*
X045317Y025088D01*
X045253Y025029D01*
X045193Y024968D01*
X045135Y024905D01*
X045080Y024838D01*
X045028Y024769D01*
X044980Y024699D01*
X044934Y024626D01*
X044892Y024550D01*
X044853Y024474D01*
X044817Y024395D01*
X044786Y024315D01*
X044757Y024234D01*
X044733Y024151D01*
X044712Y024068D01*
X044695Y023984D01*
X044681Y023899D01*
X044672Y023813D01*
X044666Y023727D01*
X044664Y023641D01*
X044666Y023555D01*
X044672Y023469D01*
X044681Y023383D01*
X044695Y023298D01*
X044712Y023214D01*
X044733Y023131D01*
X044757Y023048D01*
X044786Y022967D01*
X044817Y022887D01*
X044853Y022808D01*
X044892Y022732D01*
X044934Y022656D01*
X044980Y022583D01*
X045028Y022513D01*
X045080Y022444D01*
X045135Y022377D01*
X045193Y022314D01*
X045253Y022253D01*
X045317Y022194D01*
X045383Y022139D01*
X045451Y022086D01*
X045521Y022037D01*
X045594Y021990D01*
X045668Y021947D01*
X045745Y021908D01*
X045823Y021872D01*
X045903Y021839D01*
X045984Y021810D01*
X038399Y026227D02*
X037588Y026227D01*
X037588Y027250D02*
X038399Y027250D01*
X059010Y025521D02*
X059010Y023276D01*
X059877Y023276D01*
X060743Y023276D02*
X061609Y023276D01*
X061609Y025521D01*
X061255Y025875D01*
X060743Y025875D01*
X059877Y025875D02*
X059365Y025875D01*
X059010Y025521D01*
X060684Y025737D02*
X060749Y025714D01*
X060812Y025688D01*
X060873Y025658D01*
X060933Y025624D01*
X060991Y025588D01*
X061047Y025548D01*
X061100Y025505D01*
X061151Y025459D01*
X061199Y025410D01*
X061244Y025359D01*
X061287Y025305D01*
X061326Y025249D01*
X061362Y025191D01*
X061395Y025130D01*
X061424Y025068D01*
X061450Y025005D01*
X061472Y024940D01*
X061491Y024874D01*
X061505Y024807D01*
X061516Y024740D01*
X061523Y024671D01*
X061527Y024603D01*
X061526Y024534D01*
X061522Y024466D01*
X061513Y024398D01*
X061501Y024331D01*
X061486Y024264D01*
X061466Y024198D01*
X061443Y024134D01*
X061416Y024071D01*
X061385Y024009D01*
X061352Y023950D01*
X061315Y023892D01*
X061274Y023837D01*
X061231Y023784D01*
X061185Y023733D01*
X061136Y023685D01*
X061084Y023640D01*
X061030Y023598D01*
X060974Y023559D01*
X060915Y023523D01*
X060855Y023491D01*
X060793Y023462D01*
X060729Y023436D01*
X060664Y023415D01*
X059936Y023415D02*
X059871Y023438D01*
X059808Y023464D01*
X059747Y023494D01*
X059687Y023528D01*
X059629Y023564D01*
X059573Y023604D01*
X059520Y023647D01*
X059469Y023693D01*
X059421Y023742D01*
X059376Y023793D01*
X059333Y023847D01*
X059294Y023903D01*
X059258Y023961D01*
X059225Y024022D01*
X059196Y024084D01*
X059170Y024147D01*
X059148Y024212D01*
X059129Y024278D01*
X059115Y024345D01*
X059104Y024412D01*
X059097Y024481D01*
X059093Y024549D01*
X059094Y024618D01*
X059098Y024686D01*
X059107Y024754D01*
X059119Y024821D01*
X059134Y024888D01*
X059154Y024954D01*
X059177Y025018D01*
X059204Y025081D01*
X059235Y025143D01*
X059268Y025202D01*
X059305Y025260D01*
X059346Y025315D01*
X059389Y025368D01*
X059435Y025419D01*
X059484Y025467D01*
X059536Y025512D01*
X059590Y025554D01*
X059646Y025593D01*
X059705Y025629D01*
X059765Y025661D01*
X059827Y025690D01*
X059891Y025716D01*
X059956Y025737D01*
X060849Y031916D02*
X060849Y033491D01*
X062700Y033491D01*
X062700Y031916D01*
X060849Y031916D01*
D15*
X037709Y026738D03*
X037709Y019258D03*
X028261Y019258D03*
X018792Y019258D03*
X018832Y026699D03*
X028241Y026738D03*
X009363Y026738D03*
X009383Y019258D03*
D16*
X011464Y024475D02*
X011464Y024475D01*
X011465Y024475D02*
X011467Y024464D01*
X011471Y024454D01*
X011478Y024446D01*
X011488Y024440D01*
X011498Y024436D01*
X011510Y024436D01*
X011520Y024440D01*
X011530Y024446D01*
X011537Y024454D01*
X011541Y024464D01*
X011543Y024475D01*
X011543Y024475D01*
X011541Y024486D01*
X011537Y024496D01*
X011530Y024504D01*
X011520Y024510D01*
X011510Y024514D01*
X011498Y024514D01*
X011488Y024510D01*
X011478Y024504D01*
X011471Y024496D01*
X011467Y024486D01*
X011465Y024475D01*
X011464Y031955D02*
X011464Y031955D01*
X011465Y031955D02*
X011467Y031944D01*
X011471Y031934D01*
X011478Y031926D01*
X011488Y031920D01*
X011498Y031916D01*
X011510Y031916D01*
X011520Y031920D01*
X011530Y031926D01*
X011537Y031934D01*
X011541Y031944D01*
X011543Y031955D01*
X011543Y031955D01*
X011541Y031966D01*
X011537Y031976D01*
X011530Y031984D01*
X011520Y031990D01*
X011510Y031994D01*
X011498Y031994D01*
X011488Y031990D01*
X011478Y031984D01*
X011471Y031976D01*
X011467Y031966D01*
X011465Y031955D01*
X020913Y031955D02*
X020913Y031955D01*
X020914Y031955D02*
X020916Y031944D01*
X020920Y031934D01*
X020927Y031926D01*
X020937Y031920D01*
X020947Y031916D01*
X020959Y031916D01*
X020969Y031920D01*
X020979Y031926D01*
X020986Y031934D01*
X020990Y031944D01*
X020992Y031955D01*
X020992Y031955D01*
X020990Y031966D01*
X020986Y031976D01*
X020979Y031984D01*
X020969Y031990D01*
X020959Y031994D01*
X020947Y031994D01*
X020937Y031990D01*
X020927Y031984D01*
X020920Y031976D01*
X020916Y031966D01*
X020914Y031955D01*
X020913Y024475D02*
X020913Y024475D01*
X020914Y024475D02*
X020916Y024464D01*
X020920Y024454D01*
X020927Y024446D01*
X020937Y024440D01*
X020947Y024436D01*
X020959Y024436D01*
X020969Y024440D01*
X020979Y024446D01*
X020986Y024454D01*
X020990Y024464D01*
X020992Y024475D01*
X020992Y024475D01*
X020990Y024486D01*
X020986Y024496D01*
X020979Y024504D01*
X020969Y024510D01*
X020959Y024514D01*
X020947Y024514D01*
X020937Y024510D01*
X020927Y024504D01*
X020920Y024496D01*
X020916Y024486D01*
X020914Y024475D01*
X030362Y024475D02*
X030362Y024475D01*
X030364Y024464D01*
X030368Y024454D01*
X030375Y024446D01*
X030385Y024440D01*
X030395Y024436D01*
X030407Y024436D01*
X030417Y024440D01*
X030427Y024446D01*
X030434Y024454D01*
X030438Y024464D01*
X030440Y024475D01*
X030441Y024475D02*
X030441Y024475D01*
X030440Y024475D02*
X030438Y024486D01*
X030434Y024496D01*
X030427Y024504D01*
X030417Y024510D01*
X030407Y024514D01*
X030395Y024514D01*
X030385Y024510D01*
X030375Y024504D01*
X030368Y024496D01*
X030364Y024486D01*
X030362Y024475D01*
X030362Y031955D02*
X030362Y031955D01*
X030364Y031944D01*
X030368Y031934D01*
X030375Y031926D01*
X030385Y031920D01*
X030395Y031916D01*
X030407Y031916D01*
X030417Y031920D01*
X030427Y031926D01*
X030434Y031934D01*
X030438Y031944D01*
X030440Y031955D01*
X030441Y031955D02*
X030441Y031955D01*
X030440Y031955D02*
X030438Y031966D01*
X030434Y031976D01*
X030427Y031984D01*
X030417Y031990D01*
X030407Y031994D01*
X030395Y031994D01*
X030385Y031990D01*
X030375Y031984D01*
X030368Y031976D01*
X030364Y031966D01*
X030362Y031955D01*
X039811Y031955D02*
X039811Y031955D01*
X039813Y031944D01*
X039817Y031934D01*
X039824Y031926D01*
X039834Y031920D01*
X039844Y031916D01*
X039856Y031916D01*
X039866Y031920D01*
X039876Y031926D01*
X039883Y031934D01*
X039887Y031944D01*
X039889Y031955D01*
X039890Y031955D02*
X039890Y031955D01*
X039889Y031955D02*
X039887Y031966D01*
X039883Y031976D01*
X039876Y031984D01*
X039866Y031990D01*
X039856Y031994D01*
X039844Y031994D01*
X039834Y031990D01*
X039824Y031984D01*
X039817Y031976D01*
X039813Y031966D01*
X039811Y031955D01*
X045207Y035451D02*
X045600Y035451D01*
X045738Y035363D02*
X045738Y034575D01*
X045817Y034575D01*
X045817Y035363D01*
X045738Y035363D01*
X056526Y025682D02*
X057107Y025682D01*
X039890Y024475D02*
X039890Y024475D01*
X039889Y024475D02*
X039887Y024464D01*
X039883Y024454D01*
X039876Y024446D01*
X039866Y024440D01*
X039856Y024436D01*
X039844Y024436D01*
X039834Y024440D01*
X039824Y024446D01*
X039817Y024454D01*
X039813Y024464D01*
X039811Y024475D01*
X039811Y024475D01*
X039813Y024486D01*
X039817Y024496D01*
X039824Y024504D01*
X039834Y024510D01*
X039844Y024514D01*
X039856Y024514D01*
X039866Y024510D01*
X039876Y024504D01*
X039883Y024496D01*
X039887Y024486D01*
X039889Y024475D01*
D17*
X050481Y023372D02*
X050481Y023125D01*
X050481Y023004D02*
X050790Y023004D01*
X050851Y022942D01*
X050851Y022819D01*
X050790Y022757D01*
X050481Y022757D01*
X050543Y022635D02*
X050481Y022574D01*
X050481Y022450D01*
X050543Y022389D01*
X050790Y022389D01*
X050851Y022450D01*
X050851Y022574D01*
X050790Y022635D01*
X050543Y022635D01*
X050913Y022267D02*
X050913Y022020D01*
X050790Y021899D02*
X050851Y021837D01*
X050851Y021714D01*
X050790Y021652D01*
X050543Y021652D01*
X050481Y021714D01*
X050481Y021837D01*
X050543Y021899D01*
X050481Y023249D02*
X050851Y023249D01*
D18*
X054235Y023737D02*
X054235Y020587D01*
X057384Y020587D01*
X057384Y023737D01*
X054235Y023737D01*
X041425Y023845D02*
X041425Y021089D01*
X040533Y021089D02*
X038134Y021089D01*
X037252Y021089D02*
X037252Y023845D01*
X038112Y023845D02*
X039524Y023845D01*
X040107Y023845D02*
X041425Y023845D01*
X041425Y028569D02*
X041425Y031325D01*
X040107Y031325D01*
X039524Y031325D02*
X038112Y031325D01*
X037252Y031325D02*
X037252Y028569D01*
X038134Y028569D02*
X040533Y028569D01*
X031976Y028569D02*
X031976Y031325D01*
X030658Y031325D01*
X030075Y031325D02*
X028663Y031325D01*
X027803Y031325D02*
X027803Y028569D01*
X028685Y028569D02*
X031084Y028569D01*
X030658Y023845D02*
X031976Y023845D01*
X031976Y021089D01*
X031084Y021089D02*
X028685Y021089D01*
X027803Y021089D02*
X027803Y023845D01*
X028663Y023845D02*
X030075Y023845D01*
X022527Y023845D02*
X022527Y021089D01*
X021636Y021089D02*
X019236Y021089D01*
X018354Y021089D02*
X018354Y023845D01*
X019214Y023845D02*
X020627Y023845D01*
X021210Y023845D02*
X022527Y023845D01*
X022527Y028569D02*
X022527Y031325D01*
X021210Y031325D01*
X020627Y031325D02*
X019214Y031325D01*
X018354Y031325D02*
X018354Y028569D01*
X019236Y028569D02*
X021636Y028569D01*
X013079Y028569D02*
X013079Y031325D01*
X011761Y031325D01*
X011178Y031325D02*
X009765Y031325D01*
X008905Y031325D02*
X008905Y028569D01*
X009788Y028569D02*
X012187Y028569D01*
X011761Y023845D02*
X013079Y023845D01*
X013079Y021089D01*
X012187Y021089D02*
X009788Y021089D01*
X008905Y021089D02*
X008905Y023845D01*
X009765Y023845D02*
X011178Y023845D01*
D19*
X061774Y032054D03*
M02*
