G75*
%MOIN*%
%OFA0B0*%
%FSLAX24Y24*%
%IPPOS*%
%LPD*%
%AMOC8*
5,1,8,0,0,1.08239X$1,22.5*
%
%ADD10C,0.0907*%
%ADD11R,0.0867X0.0710*%
%ADD12R,0.0474X0.0631*%
%ADD13R,0.0513X0.0474*%
%ADD14R,0.0474X0.0513*%
%ADD15C,0.0680*%
%ADD16R,0.0631X0.0474*%
%ADD17R,0.0789X0.1025*%
%ADD18R,0.1064X0.1773*%
%ADD19R,0.0661X0.0257*%
%ADD20R,0.1163X0.1430*%
%ADD21R,0.1222X0.0671*%
%ADD22R,0.0710X0.0789*%
%ADD23R,0.0789X0.0710*%
%ADD24R,0.0789X0.3033*%
%ADD25R,0.0710X0.1458*%
%ADD26R,0.0592X0.0671*%
%ADD27R,0.0474X0.0257*%
%ADD28C,0.0749*%
%ADD29C,0.0828*%
%ADD30R,0.0395X0.1127*%
%ADD31C,0.1080*%
%ADD32R,0.0552X0.0552*%
%ADD33C,0.0476*%
%ADD34C,0.0397*%
D10*
X041874Y040460D03*
X040889Y041445D03*
X043842Y041445D03*
X045811Y040460D03*
X046795Y041445D03*
X050787Y041417D03*
X051771Y040433D03*
X053740Y041417D03*
X055708Y040433D03*
X056693Y041417D03*
X055708Y045354D03*
X051771Y045354D03*
X045811Y045382D03*
X041874Y045382D03*
D11*
X049184Y035551D03*
X049184Y034551D03*
X049184Y033551D03*
X049184Y032551D03*
X052940Y032551D03*
X052940Y033551D03*
X052940Y034551D03*
X052940Y035551D03*
D12*
X054519Y034443D03*
X055267Y034443D03*
X054893Y033577D03*
X061259Y035567D03*
X062007Y035567D03*
X061633Y036433D03*
D13*
X060304Y029395D03*
X060304Y028726D03*
X059231Y028725D03*
X059231Y029395D03*
X053199Y027253D03*
X053199Y026584D03*
X052066Y026580D03*
X052066Y027249D03*
X049258Y030991D03*
X049258Y031661D03*
X047738Y032560D03*
X047738Y033229D03*
X046148Y036540D03*
X046148Y037209D03*
X052130Y037362D03*
X052130Y038032D03*
X036020Y028620D03*
X036020Y027951D03*
X036020Y021179D03*
X036020Y020510D03*
X026590Y020471D03*
X026590Y021140D03*
X026590Y027990D03*
X026590Y028660D03*
X017122Y028620D03*
X017122Y027951D03*
X017142Y021140D03*
X017142Y020471D03*
X007693Y020471D03*
X007693Y021140D03*
X007673Y027951D03*
X007673Y028620D03*
D14*
X012434Y025475D03*
X013103Y025475D03*
X013256Y018845D03*
X013925Y018845D03*
X021879Y025404D03*
X022548Y025404D03*
X022712Y018845D03*
X023382Y018845D03*
X031423Y025455D03*
X032093Y025455D03*
X032145Y018884D03*
X032815Y018884D03*
X041618Y018884D03*
X042287Y018884D03*
X049167Y024652D03*
X049167Y025322D03*
X050916Y026576D03*
X050916Y027245D03*
X050920Y028367D03*
X051589Y028367D03*
X057684Y028918D03*
X058353Y028918D03*
X059502Y035566D03*
X060171Y035566D03*
X045418Y033845D03*
X044749Y033845D03*
X042279Y026325D03*
X041610Y026325D03*
D15*
X040968Y034282D02*
X040968Y034882D01*
X039968Y034882D02*
X039968Y034282D01*
X038968Y034282D02*
X038968Y034882D01*
X037968Y034882D02*
X037968Y034282D01*
X036968Y034282D02*
X036968Y034882D01*
X035968Y034882D02*
X035968Y034282D01*
X033996Y034282D02*
X033996Y034882D01*
X032996Y034882D02*
X032996Y034282D01*
X031996Y034282D02*
X031996Y034882D01*
X030996Y034882D02*
X030996Y034282D01*
X029996Y034282D02*
X029996Y034882D01*
X028996Y034882D02*
X028996Y034282D01*
X027996Y034282D02*
X027996Y034882D01*
X026996Y034882D02*
X026996Y034282D01*
X027393Y015985D02*
X027393Y015385D01*
X026393Y015385D02*
X026393Y015985D01*
X025393Y015985D02*
X025393Y015385D01*
X024393Y015385D02*
X024393Y015985D01*
X023393Y015985D02*
X023393Y015385D01*
X028393Y015385D02*
X028393Y015985D01*
X029393Y015985D02*
X029393Y015385D01*
X030393Y015385D02*
X030393Y015985D01*
X031393Y015985D02*
X031393Y015385D01*
X032393Y015385D02*
X032393Y015985D01*
X033968Y015985D02*
X033968Y015385D01*
X034968Y015385D02*
X034968Y015985D01*
X035968Y015985D02*
X035968Y015385D01*
X036968Y015385D02*
X036968Y015985D01*
X037968Y015985D02*
X037968Y015385D01*
X038968Y015385D02*
X038968Y015985D01*
X039968Y015985D02*
X039968Y015385D01*
X040968Y015385D02*
X040968Y015985D01*
D16*
X040787Y018888D03*
X040787Y019636D03*
X039921Y019262D03*
X040811Y026356D03*
X040811Y027104D03*
X039945Y026730D03*
X031362Y026360D03*
X031362Y027108D03*
X030496Y026734D03*
X021890Y026364D03*
X021890Y027112D03*
X021023Y026738D03*
X021890Y019601D03*
X021890Y018853D03*
X021023Y019227D03*
X012441Y018860D03*
X012441Y019608D03*
X011575Y019234D03*
X012441Y026337D03*
X012441Y027085D03*
X011575Y026711D03*
X030457Y019258D03*
X031323Y018884D03*
X031323Y019632D03*
D17*
X029344Y019258D03*
X027750Y019258D03*
X019876Y019258D03*
X018281Y019258D03*
X010466Y019258D03*
X008872Y019258D03*
X008852Y026738D03*
X010447Y026738D03*
X018321Y026699D03*
X019915Y026699D03*
X027730Y026738D03*
X029325Y026738D03*
X037199Y026738D03*
X038793Y026738D03*
X038793Y019258D03*
X037199Y019258D03*
D18*
X046594Y022007D03*
X046594Y025275D03*
D19*
X054503Y025908D03*
X054503Y026164D03*
X054503Y026420D03*
X054503Y026676D03*
X054503Y026932D03*
X054503Y027188D03*
X054503Y027444D03*
X054503Y027700D03*
X054503Y027956D03*
X054503Y028211D03*
X056817Y028211D03*
X056817Y027956D03*
X056817Y027700D03*
X056817Y027444D03*
X056817Y027188D03*
X056817Y026932D03*
X056817Y026676D03*
X056817Y026420D03*
X056817Y026164D03*
X056817Y025908D03*
D20*
X055660Y027060D03*
D21*
X050643Y025408D03*
X050643Y024227D03*
D22*
X051993Y024717D03*
X053095Y024717D03*
D23*
X058318Y025052D03*
X058318Y026154D03*
D24*
X056912Y022162D03*
X054707Y022162D03*
D25*
X060310Y023513D03*
X060310Y025639D03*
D26*
X053280Y029344D03*
X052532Y029344D03*
D27*
X046151Y034713D03*
X046151Y034969D03*
X046151Y035225D03*
X045403Y035225D03*
X045403Y034969D03*
X045403Y034713D03*
D28*
X063130Y044025D03*
D29*
X063130Y042254D03*
D30*
X040838Y028620D03*
X039838Y031274D03*
X037838Y031274D03*
X037838Y028620D03*
X037838Y023793D03*
X039838Y023793D03*
X040838Y021140D03*
X037838Y021140D03*
X031390Y021140D03*
X028390Y021140D03*
X028390Y023793D03*
X030390Y023793D03*
X031390Y028620D03*
X030390Y031274D03*
X028390Y031274D03*
X028390Y028620D03*
X021941Y028620D03*
X020941Y031274D03*
X018941Y031274D03*
X018941Y028620D03*
X018941Y023793D03*
X020941Y023793D03*
X021941Y021140D03*
X018941Y021140D03*
X012492Y021140D03*
X009492Y021140D03*
X009492Y023793D03*
X011492Y023793D03*
X012492Y028620D03*
X011492Y031274D03*
X009492Y031274D03*
X009492Y028620D03*
D31*
X011993Y039819D03*
X014264Y039819D03*
X014264Y042319D03*
X011993Y042319D03*
X011993Y044819D03*
X014264Y044819D03*
X020654Y044819D03*
X022924Y044819D03*
X022924Y042319D03*
X020654Y042319D03*
X020654Y039819D03*
X022924Y039819D03*
X029314Y039819D03*
X031586Y039819D03*
X031586Y042319D03*
X029314Y042319D03*
X029314Y044819D03*
X031586Y044819D03*
X037976Y044819D03*
X037976Y042319D03*
X037976Y039819D03*
X005603Y039819D03*
X005603Y042319D03*
X005603Y044819D03*
D32*
X061263Y033904D03*
X062286Y033904D03*
X062286Y031503D03*
X061263Y031503D03*
D33*
X008404Y015729D03*
X010373Y015690D03*
X012735Y015690D03*
X017134Y019238D03*
X017134Y019823D03*
X015884Y021202D03*
X015884Y023958D03*
X017134Y026719D03*
X017134Y027303D03*
X020004Y032015D03*
X023074Y034023D03*
X023054Y036023D03*
X026081Y031023D03*
X026594Y027303D03*
X026583Y026719D03*
X025255Y024627D03*
X025530Y021635D03*
X026594Y019823D03*
X026583Y019238D03*
X023381Y017933D03*
X034821Y021556D03*
X036014Y019823D03*
X036020Y019250D03*
X039744Y018183D03*
X042341Y015808D03*
X034900Y023839D03*
X036031Y026719D03*
X036031Y027303D03*
X036071Y031033D03*
X036071Y033013D03*
X033074Y033023D03*
X031074Y033023D03*
X043064Y032023D03*
X043074Y030033D03*
X046434Y027533D03*
X046434Y027023D03*
X046974Y027023D03*
X046974Y027533D03*
X047514Y027523D03*
X047504Y027013D03*
X048044Y027013D03*
X048044Y027523D03*
X052649Y028379D03*
X053426Y028369D03*
X054271Y029133D03*
X054823Y029133D03*
X055374Y029133D03*
X055925Y029133D03*
X056476Y029133D03*
X057027Y029133D03*
X058278Y027721D03*
X058898Y027721D03*
X059498Y027721D03*
X060098Y027721D03*
X062314Y030793D03*
X063194Y030793D03*
X063194Y031451D03*
X063194Y032223D03*
X059484Y036813D03*
X059484Y037383D03*
X059484Y038013D03*
X065214Y043183D03*
X065714Y043183D03*
X065724Y044983D03*
X065184Y044993D03*
X047741Y031736D03*
X047255Y034709D03*
X047241Y035436D03*
X044305Y035310D03*
X043901Y034316D03*
X054271Y024960D03*
X054823Y024960D03*
X055374Y024960D03*
X055925Y024960D03*
X056476Y024960D03*
X057027Y024960D03*
X059113Y021674D03*
X060333Y021674D03*
X061554Y021674D03*
X060255Y019863D03*
X016074Y034023D03*
X016074Y036023D03*
X010563Y032409D03*
X008071Y033023D03*
X008071Y036013D03*
X007684Y027303D03*
X007685Y026719D03*
X007684Y019823D03*
X007705Y019258D03*
D34*
X055256Y025449D03*
X055649Y025763D03*
X056043Y025449D03*
X056043Y026078D03*
X055649Y026315D03*
X055256Y026551D03*
X055256Y026078D03*
X056043Y026551D03*
X055649Y026826D03*
X055256Y027063D03*
X055649Y027338D03*
X055256Y027574D03*
X055649Y027811D03*
X056043Y027574D03*
X056043Y027063D03*
X056043Y028086D03*
X055649Y028362D03*
X055256Y028637D03*
X055256Y028086D03*
X056043Y028637D03*
M02*
